{"glyphs":{"0":{"ha":860,"x_min":150,"x_max":706,"o":"m 428 361 q 381 380 401 361 q 360 425 360 399 q 381 471 360 452 q 428 490 401 490 q 477 471 457 490 q 497 425 497 452 q 477 380 497 399 q 428 361 457 361 m 429 -15 q 332 8 381 -15 q 241 80 283 30 q 175 216 200 131 q 150 427 150 301 q 175 638 150 553 q 241 773 200 722 q 332 846 283 824 q 429 868 381 868 q 520 846 472 868 q 610 773 568 824 q 680 638 653 722 q 706 427 706 553 q 680 216 706 301 q 610 80 653 131 q 520 8 568 30 q 429 -15 472 -15 m 429 29 q 542 73 488 29 q 629 205 595 117 q 663 427 663 293 q 629 650 663 562 q 542 781 595 738 q 429 824 488 824 q 314 781 368 824 q 227 650 260 738 q 194 427 194 562 q 227 205 194 293 q 314 73 260 117 q 429 29 368 29 z "},"1":{"ha":860,"x_min":174,"x_max":722,"o":"m 213 0 q 184 6 194 0 q 174 22 174 11 q 213 44 174 44 l 428 44 l 428 799 q 334 736 392 756 q 221 716 276 716 q 207 718 213 716 q 196 726 200 721 q 192 738 192 731 q 197 749 192 745 q 208 756 201 753 q 224 758 215 758 q 332 782 281 758 q 410 845 384 806 q 427 861 418 857 q 445 865 436 865 q 466 857 459 865 q 472 832 472 849 l 472 44 l 683 44 q 722 22 722 44 q 712 6 722 11 q 683 0 702 0 l 213 0 z "},"2":{"ha":860,"x_min":164,"x_max":678,"o":"m 658 653 q 624 520 658 592 q 537 377 590 449 q 424 240 484 305 q 311 123 365 174 q 224 44 257 72 l 639 44 q 668 38 658 44 q 678 22 678 32 q 668 6 678 11 q 639 0 658 0 l 203 0 q 174 7 184 0 q 164 28 164 13 q 169 47 164 39 q 185 65 174 55 q 277 150 223 98 q 390 265 332 201 q 499 396 448 328 q 581 531 549 464 q 613 655 613 597 q 563 781 613 737 q 428 826 514 826 q 304 797 358 826 q 222 731 251 768 q 207 714 214 720 q 192 708 199 708 q 177 715 183 708 q 170 730 170 721 q 183 758 170 743 q 285 836 219 803 q 431 869 350 869 q 598 811 538 869 q 658 653 658 753 z "},"3":{"ha":860,"x_min":156,"x_max":691,"o":"m 156 120 q 163 134 156 130 q 176 139 169 139 q 191 134 183 139 q 208 118 199 128 q 292 54 240 80 q 419 28 344 28 q 524 50 472 28 q 611 116 576 72 q 646 230 646 161 q 607 333 646 292 q 505 395 568 374 q 371 417 442 417 q 353 423 359 417 q 347 439 347 428 q 353 455 347 449 q 371 461 359 461 q 500 484 442 461 q 593 550 558 506 q 627 655 627 593 q 593 753 627 716 q 510 808 560 791 q 413 826 460 826 q 299 798 349 826 q 221 736 248 771 q 205 719 212 725 q 190 713 197 713 q 176 718 181 713 q 170 732 170 724 q 181 760 170 744 q 269 835 212 801 q 413 869 327 869 q 536 847 476 869 q 634 777 595 824 q 672 655 672 730 q 644 545 672 590 q 571 474 616 500 q 476 440 526 449 q 576 408 527 431 q 658 342 626 385 q 691 230 691 299 q 654 97 691 152 q 555 13 617 42 q 419 -16 493 -16 q 273 16 335 -16 q 171 90 210 48 q 160 107 163 99 q 156 120 156 115 z "},"4":{"ha":860,"x_min":118,"x_max":722,"o":"m 549 -14 q 533 -3 539 -14 q 528 26 528 7 l 528 281 l 153 281 q 124 290 131 281 q 118 308 118 299 q 119 321 118 313 q 124 336 121 329 l 324 845 q 334 862 328 856 q 347 867 340 867 q 360 861 355 867 q 366 842 366 855 q 366 834 366 838 q 363 824 365 829 l 169 325 l 528 325 l 528 836 q 531 851 528 845 q 539 860 534 857 q 549 863 544 863 q 560 860 555 863 q 568 851 565 857 q 571 836 571 845 l 571 325 l 682 325 q 712 319 702 325 q 722 303 722 313 q 712 287 722 292 q 682 281 702 281 l 571 281 l 571 26 q 565 -3 571 7 q 549 -14 560 -14 z "},"5":{"ha":860,"x_min":134,"x_max":690,"o":"m 414 570 q 553 538 490 570 q 653 442 615 506 q 690 283 690 378 q 668 157 690 213 q 606 63 647 101 q 507 5 565 25 q 380 -15 450 -15 q 246 7 304 -15 q 149 66 188 28 q 138 81 141 74 q 134 95 134 89 q 142 112 134 106 q 158 118 149 118 q 172 114 165 118 q 188 100 179 109 q 270 49 220 69 q 383 29 320 29 q 517 56 458 29 q 610 139 576 83 q 644 283 644 195 q 578 464 644 401 q 414 526 513 526 q 301 503 349 526 q 215 429 252 479 q 191 399 197 405 q 174 393 184 393 q 154 403 160 393 q 148 426 148 413 q 152 466 148 428 q 163 561 156 505 q 175 674 169 617 q 186 773 181 731 q 192 823 191 815 q 205 851 194 842 q 233 860 215 860 l 614 860 q 643 854 633 860 q 653 838 653 849 q 643 822 653 828 q 614 816 633 816 l 234 816 l 197 472 q 285 543 230 515 q 414 570 341 570 z "},"6":{"ha":860,"x_min":132,"x_max":701,"o":"m 441 568 q 628 500 556 568 q 701 290 701 432 q 667 129 701 197 q 569 23 633 60 q 414 -15 505 -15 q 264 32 327 -15 q 166 173 201 78 q 132 410 132 267 q 159 609 132 523 q 231 752 185 694 q 335 840 277 810 q 456 869 393 869 q 553 850 514 869 q 612 808 592 831 q 632 769 632 785 q 626 757 632 762 q 613 751 620 751 q 591 763 601 751 q 564 789 580 774 q 522 815 548 803 q 452 826 495 826 q 327 780 390 826 q 222 641 264 733 q 180 410 180 549 q 180 393 180 401 q 181 378 180 385 q 283 516 213 463 q 441 568 353 568 m 193 254 q 272 85 215 140 q 414 29 328 29 q 589 97 522 29 q 656 290 656 164 q 626 427 656 376 q 548 501 597 478 q 441 524 499 524 q 328 493 381 524 q 240 401 276 462 q 193 254 203 341 z "},"7":{"ha":860,"x_min":171,"x_max":701,"o":"m 171 838 q 181 854 171 849 q 210 860 191 860 l 661 860 q 701 832 701 860 q 698 814 701 822 q 685 794 694 806 q 551 587 616 703 q 445 333 487 472 q 404 33 404 194 q 379 -7 404 -7 q 363 4 368 -7 q 357 35 357 15 q 383 270 357 158 q 451 482 408 383 q 545 665 493 581 q 649 816 597 749 l 210 816 q 181 822 191 816 q 171 838 171 828 z "},"8":{"ha":860,"x_min":143,"x_max":710,"o":"m 427 -15 q 282 13 347 -15 q 181 94 218 40 q 143 230 143 149 q 192 372 143 315 q 313 453 241 428 q 215 529 253 478 q 176 652 176 580 q 211 768 176 720 q 303 842 246 817 q 427 867 360 867 q 551 842 494 867 q 642 768 608 817 q 677 652 677 720 q 638 528 677 579 q 539 452 599 477 q 660 371 610 427 q 710 230 710 315 q 673 94 710 149 q 572 13 635 40 q 427 -15 508 -15 m 188 228 q 254 78 188 131 q 427 26 320 26 q 599 78 533 26 q 665 228 665 131 q 631 337 665 292 q 542 407 597 383 q 427 431 488 431 q 311 407 366 431 q 222 337 256 383 q 188 228 188 292 m 222 652 q 278 523 222 574 q 427 472 334 472 q 576 523 520 472 q 631 652 631 574 q 572 782 631 737 q 427 826 513 826 q 281 782 340 826 q 222 652 222 737 z "},"9":{"ha":860,"x_min":132,"x_max":696,"o":"m 414 868 q 558 833 494 868 q 659 713 622 798 q 696 475 696 627 q 645 227 696 334 q 493 61 594 121 q 242 1 392 1 q 212 7 222 1 q 201 24 201 13 q 212 40 201 34 q 242 45 222 45 q 466 98 376 45 q 602 247 556 151 q 649 468 648 342 q 550 361 615 408 q 397 315 485 315 q 266 343 326 315 q 169 431 206 372 q 132 585 132 491 q 170 741 132 678 q 272 836 208 804 q 414 868 336 868 m 178 585 q 210 453 178 503 q 291 381 241 403 q 397 358 340 358 q 515 391 463 358 q 601 473 567 423 q 644 574 635 522 q 603 727 635 673 q 524 801 572 781 q 414 822 476 822 q 245 764 312 822 q 178 585 178 706 z "},"A":{"ha":860,"x_min":90,"x_max":767,"o":"m 109 -13 q 96 -9 102 -13 q 90 6 90 -4 q 92 17 90 11 q 96 32 93 24 l 388 834 q 403 858 393 850 q 426 867 413 867 l 430 867 q 455 858 445 867 q 469 834 464 850 l 761 32 q 766 17 765 24 q 767 6 767 11 q 761 -9 767 -5 q 747 -13 755 -13 q 730 -6 735 -13 q 719 19 725 2 l 628 270 l 229 270 l 138 19 q 126 -6 132 2 q 109 -13 121 -13 m 244 313 l 613 313 l 434 806 q 431 816 433 811 q 428 824 430 821 q 426 816 428 821 q 424 806 425 811 l 244 313 z "},"Á":{"ha":860,"x_min":90,"x_max":767,"o":"m 109 -13 q 96 -9 102 -13 q 90 6 90 -4 q 92 17 90 11 q 96 32 93 24 l 388 834 q 403 858 393 850 q 426 867 413 867 l 430 867 q 455 858 445 867 q 469 834 464 850 l 761 32 q 766 17 765 24 q 767 6 767 11 q 761 -9 767 -5 q 747 -13 755 -13 q 730 -6 735 -13 q 719 19 725 2 l 628 270 l 229 270 l 138 19 q 126 -6 132 2 q 109 -13 121 -13 m 244 313 l 613 313 l 434 806 q 431 816 433 811 q 428 824 430 821 q 426 816 428 821 q 424 806 425 811 l 244 313 m 397 931 q 389 934 394 931 q 383 942 383 936 q 403 976 383 950 l 482 1078 q 500 1096 492 1091 q 523 1101 508 1101 l 534 1101 q 549 1098 542 1101 q 555 1089 555 1095 q 542 1067 555 1080 l 436 956 q 415 938 425 944 q 397 931 406 931 z "},"Ă":{"ha":860,"x_min":90,"x_max":767,"o":"m 109 -13 q 96 -9 102 -13 q 90 6 90 -4 q 92 17 90 11 q 96 32 93 24 l 388 834 q 403 858 393 850 q 426 867 413 867 l 430 867 q 455 858 445 867 q 469 834 464 850 l 761 32 q 766 17 765 24 q 767 6 767 11 q 761 -9 767 -5 q 747 -13 755 -13 q 730 -6 735 -13 q 719 19 725 2 l 628 270 l 229 270 l 138 19 q 126 -6 132 2 q 109 -13 121 -13 m 244 313 l 613 313 l 434 806 q 431 816 433 811 q 428 824 430 821 q 426 816 428 821 q 424 806 425 811 l 244 313 m 547 1099 q 563 1091 557 1099 q 569 1070 569 1084 q 568 1064 569 1067 q 567 1057 568 1060 q 522 971 557 1008 q 428 935 487 935 q 335 971 369 935 q 292 1057 301 1008 q 291 1064 291 1060 q 291 1070 291 1067 q 297 1091 291 1084 q 312 1099 303 1099 q 330 1089 324 1099 q 339 1062 335 1080 q 365 1003 344 1031 q 430 974 385 974 q 495 1003 475 974 q 520 1061 515 1031 q 530 1089 524 1079 q 547 1099 535 1099 z "},"Ắ":{"ha":860,"x_min":90,"x_max":767,"o":"m 109 -13 q 96 -9 102 -13 q 90 6 90 -4 q 92 17 90 11 q 96 32 93 24 l 388 834 q 403 858 393 850 q 426 867 413 867 l 430 867 q 455 858 445 867 q 469 834 464 850 l 761 32 q 766 17 765 24 q 767 6 767 11 q 761 -9 767 -5 q 747 -13 755 -13 q 730 -6 735 -13 q 719 19 725 2 l 628 270 l 229 270 l 138 19 q 126 -6 132 2 q 109 -13 121 -13 m 244 313 l 613 313 l 434 806 q 431 816 433 811 q 428 824 430 821 q 426 816 428 821 q 424 806 425 811 l 244 313 m 547 1099 q 563 1091 557 1099 q 569 1070 569 1084 q 568 1064 569 1067 q 567 1057 568 1060 q 522 971 557 1008 q 428 935 487 935 q 335 971 369 935 q 292 1057 301 1008 q 291 1064 291 1060 q 291 1070 291 1067 q 297 1091 291 1084 q 312 1099 303 1099 q 330 1089 324 1099 q 339 1062 335 1080 q 365 1003 344 1031 q 430 974 385 974 q 495 1003 475 974 q 520 1061 515 1031 q 530 1089 524 1079 q 547 1099 535 1099 m 397 1163 q 389 1166 394 1163 q 383 1174 383 1168 q 403 1208 383 1182 l 482 1310 q 500 1328 492 1323 q 523 1333 508 1333 l 534 1333 q 549 1330 542 1333 q 555 1321 555 1327 q 542 1299 555 1312 l 436 1188 q 415 1170 425 1176 q 397 1163 406 1163 z "},"Ặ":{"ha":860,"x_min":90,"x_max":767,"o":"m 109 -13 q 96 -9 102 -13 q 90 6 90 -4 q 92 17 90 11 q 96 32 93 24 l 388 834 q 403 858 393 850 q 426 867 413 867 l 430 867 q 455 858 445 867 q 469 834 464 850 l 761 32 q 766 17 765 24 q 767 6 767 11 q 761 -9 767 -5 q 747 -13 755 -13 q 730 -6 735 -13 q 719 19 725 2 l 628 270 l 229 270 l 138 19 q 126 -6 132 2 q 109 -13 121 -13 m 244 313 l 613 313 l 434 806 q 431 816 433 811 q 428 824 430 821 q 426 816 428 821 q 424 806 425 811 l 244 313 m 428 -219 q 386 -202 403 -219 q 369 -160 369 -185 q 386 -118 369 -135 q 428 -101 403 -101 q 470 -118 453 -101 q 488 -160 488 -135 q 470 -202 488 -185 q 428 -219 453 -219 m 547 1099 q 563 1091 557 1099 q 569 1070 569 1084 q 568 1064 569 1067 q 567 1057 568 1060 q 522 971 557 1008 q 428 935 487 935 q 335 971 369 935 q 292 1057 301 1008 q 291 1064 291 1060 q 291 1070 291 1067 q 297 1091 291 1084 q 312 1099 303 1099 q 330 1089 324 1099 q 339 1062 335 1080 q 365 1003 344 1031 q 430 974 385 974 q 495 1003 475 974 q 520 1061 515 1031 q 530 1089 524 1079 q 547 1099 535 1099 z "},"Ằ":{"ha":860,"x_min":90,"x_max":767,"o":"m 109 -13 q 96 -9 102 -13 q 90 6 90 -4 q 92 17 90 11 q 96 32 93 24 l 388 834 q 403 858 393 850 q 426 867 413 867 l 430 867 q 455 858 445 867 q 469 834 464 850 l 761 32 q 766 17 765 24 q 767 6 767 11 q 761 -9 767 -5 q 747 -13 755 -13 q 730 -6 735 -13 q 719 19 725 2 l 628 270 l 229 270 l 138 19 q 126 -6 132 2 q 109 -13 121 -13 m 244 313 l 613 313 l 434 806 q 431 816 433 811 q 428 824 430 821 q 426 816 428 821 q 424 806 425 811 l 244 313 m 547 1099 q 563 1091 557 1099 q 569 1070 569 1084 q 568 1064 569 1067 q 567 1057 568 1060 q 522 971 557 1008 q 428 935 487 935 q 335 971 369 935 q 292 1057 301 1008 q 291 1064 291 1060 q 291 1070 291 1067 q 297 1091 291 1084 q 312 1099 303 1099 q 330 1089 324 1099 q 339 1062 335 1080 q 365 1003 344 1031 q 430 974 385 974 q 495 1003 475 974 q 520 1061 515 1031 q 530 1089 524 1079 q 547 1099 535 1099 m 462 1161 q 444 1167 453 1161 q 423 1185 434 1174 l 317 1296 q 304 1318 304 1309 q 310 1327 304 1325 q 325 1330 317 1330 l 336 1330 q 360 1325 351 1330 q 377 1308 368 1320 l 456 1206 q 476 1172 476 1180 q 470 1163 476 1165 q 462 1161 465 1161 z "},"Ẳ":{"ha":860,"x_min":90,"x_max":767,"o":"m 109 -13 q 96 -9 102 -13 q 90 6 90 -4 q 92 17 90 11 q 96 32 93 24 l 388 834 q 403 858 393 850 q 426 867 413 867 l 430 867 q 455 858 445 867 q 469 834 464 850 l 761 32 q 766 17 765 24 q 767 6 767 11 q 761 -9 767 -5 q 747 -13 755 -13 q 730 -6 735 -13 q 719 19 725 2 l 628 270 l 229 270 l 138 19 q 126 -6 132 2 q 109 -13 121 -13 m 244 313 l 613 313 l 434 806 q 431 816 433 811 q 428 824 430 821 q 426 816 428 821 q 424 806 425 811 l 244 313 m 547 1099 q 563 1091 557 1099 q 569 1070 569 1084 q 568 1064 569 1067 q 567 1057 568 1060 q 522 971 557 1008 q 428 935 487 935 q 335 971 369 935 q 292 1057 301 1008 q 291 1064 291 1060 q 291 1070 291 1067 q 297 1091 291 1084 q 312 1099 303 1099 q 330 1089 324 1099 q 339 1062 335 1080 q 365 1003 344 1031 q 430 974 385 974 q 495 1003 475 974 q 520 1061 515 1031 q 530 1089 524 1079 q 547 1099 535 1099 m 403 1161 q 383 1166 390 1161 q 376 1180 376 1171 q 383 1193 376 1189 q 403 1198 390 1198 q 476 1206 442 1198 q 511 1242 511 1213 q 478 1275 511 1269 q 409 1281 446 1281 q 373 1280 390 1281 q 342 1276 356 1278 q 330 1275 335 1276 q 320 1274 324 1274 q 308 1278 312 1274 q 304 1288 304 1282 q 335 1314 304 1306 q 406 1321 365 1321 q 480 1315 446 1321 q 534 1291 513 1308 q 555 1241 555 1274 q 529 1191 555 1208 q 468 1167 503 1174 q 403 1161 433 1161 z "},"Ẵ":{"ha":860,"x_min":90,"x_max":767,"o":"m 109 -13 q 96 -9 102 -13 q 90 6 90 -4 q 92 17 90 11 q 96 32 93 24 l 388 834 q 403 858 393 850 q 426 867 413 867 l 430 867 q 455 858 445 867 q 469 834 464 850 l 761 32 q 766 17 765 24 q 767 6 767 11 q 761 -9 767 -5 q 747 -13 755 -13 q 730 -6 735 -13 q 719 19 725 2 l 628 270 l 229 270 l 138 19 q 126 -6 132 2 q 109 -13 121 -13 m 244 313 l 613 313 l 434 806 q 431 816 433 811 q 428 824 430 821 q 426 816 428 821 q 424 806 425 811 l 244 313 m 547 1099 q 563 1091 557 1099 q 569 1070 569 1084 q 568 1064 569 1067 q 567 1057 568 1060 q 522 971 557 1008 q 428 935 487 935 q 335 971 369 935 q 292 1057 301 1008 q 291 1064 291 1060 q 291 1070 291 1067 q 297 1091 291 1084 q 312 1099 303 1099 q 330 1089 324 1099 q 339 1062 335 1080 q 365 1003 344 1031 q 430 974 385 974 q 495 1003 475 974 q 520 1061 515 1031 q 530 1089 524 1079 q 547 1099 535 1099 m 499 1174 q 451 1185 469 1174 q 417 1212 434 1196 q 390 1234 402 1226 q 357 1241 378 1241 q 318 1232 335 1241 q 289 1213 301 1224 q 273 1201 281 1206 q 260 1196 265 1196 q 247 1202 253 1196 q 240 1216 240 1208 q 259 1246 240 1229 q 303 1274 277 1260 q 360 1288 330 1288 q 407 1276 390 1288 q 441 1249 424 1265 q 468 1226 456 1235 q 501 1218 481 1218 q 540 1227 524 1218 q 567 1246 556 1235 q 586 1261 577 1256 q 604 1267 596 1267 q 617 1262 612 1267 q 623 1247 623 1257 q 617 1233 623 1237 q 573 1196 604 1218 q 499 1174 541 1174 z "},"Ǎ":{"ha":860,"x_min":90,"x_max":767,"o":"m 109 -13 q 96 -9 102 -13 q 90 6 90 -4 q 92 17 90 11 q 96 32 93 24 l 388 834 q 403 858 393 850 q 426 867 413 867 l 430 867 q 455 858 445 867 q 469 834 464 850 l 761 32 q 766 17 765 24 q 767 6 767 11 q 761 -9 767 -5 q 747 -13 755 -13 q 730 -6 735 -13 q 719 19 725 2 l 628 270 l 229 270 l 138 19 q 126 -6 132 2 q 109 -13 121 -13 m 244 313 l 613 313 l 434 806 q 431 816 433 811 q 428 824 430 821 q 426 816 428 821 q 424 806 425 811 l 244 313 m 561 1030 l 470 940 q 450 924 459 928 q 429 919 440 919 q 409 924 418 919 q 388 940 399 928 l 298 1030 q 283 1060 283 1044 q 288 1074 283 1068 q 301 1079 293 1079 q 317 1074 310 1079 q 333 1058 323 1069 l 430 958 l 525 1058 q 542 1074 535 1069 q 558 1079 549 1079 q 572 1074 567 1079 q 577 1061 577 1069 q 573 1047 577 1055 q 561 1030 569 1039 z "},"Â":{"ha":860,"x_min":90,"x_max":767,"o":"m 109 -13 q 96 -9 102 -13 q 90 6 90 -4 q 92 17 90 11 q 96 32 93 24 l 388 834 q 403 858 393 850 q 426 867 413 867 l 430 867 q 455 858 445 867 q 469 834 464 850 l 761 32 q 766 17 765 24 q 767 6 767 11 q 761 -9 767 -5 q 747 -13 755 -13 q 730 -6 735 -13 q 719 19 725 2 l 628 270 l 229 270 l 138 19 q 126 -6 132 2 q 109 -13 121 -13 m 244 313 l 613 313 l 434 806 q 431 816 433 811 q 428 824 430 821 q 426 816 428 821 q 424 806 425 811 l 244 313 m 561 974 q 578 943 578 957 q 572 930 578 935 q 558 925 567 925 q 542 930 549 925 q 526 946 536 935 l 430 1045 l 333 945 q 317 930 323 934 q 301 925 311 925 q 288 930 293 925 q 283 944 283 935 q 287 958 283 951 q 298 974 290 966 l 388 1065 q 409 1080 399 1076 q 429 1085 419 1085 q 450 1080 440 1085 q 471 1065 460 1076 l 561 974 z "},"Ấ":{"ha":860,"x_min":90,"x_max":767,"o":"m 109 -13 q 96 -9 102 -13 q 90 6 90 -4 q 92 17 90 11 q 96 32 93 24 l 388 834 q 403 858 393 850 q 426 867 413 867 l 430 867 q 455 858 445 867 q 469 834 464 850 l 761 32 q 766 17 765 24 q 767 6 767 11 q 761 -9 767 -5 q 747 -13 755 -13 q 730 -6 735 -13 q 719 19 725 2 l 628 270 l 229 270 l 138 19 q 126 -6 132 2 q 109 -13 121 -13 m 244 313 l 613 313 l 434 806 q 431 816 433 811 q 428 824 430 821 q 426 816 428 821 q 424 806 425 811 l 244 313 m 561 994 q 578 963 578 977 q 572 950 578 955 q 558 945 567 945 q 542 950 549 945 q 526 966 536 955 l 430 1065 l 333 965 q 317 950 323 954 q 301 945 311 945 q 288 950 293 945 q 283 964 283 956 q 298 994 283 979 l 388 1085 q 409 1100 399 1096 q 429 1105 419 1105 q 450 1100 440 1105 q 471 1085 460 1096 l 561 994 m 542 1062 q 533 1064 539 1062 q 528 1072 528 1067 q 548 1107 528 1081 l 626 1208 q 644 1226 636 1221 q 667 1231 652 1231 l 678 1231 q 693 1228 687 1231 q 699 1219 699 1226 q 687 1197 699 1209 l 581 1086 q 560 1068 569 1075 q 542 1062 550 1062 z "},"Ậ":{"ha":860,"x_min":90,"x_max":767,"o":"m 109 -13 q 96 -9 102 -13 q 90 6 90 -4 q 92 17 90 11 q 96 32 93 24 l 388 834 q 403 858 393 850 q 426 867 413 867 l 430 867 q 455 858 445 867 q 469 834 464 850 l 761 32 q 766 17 765 24 q 767 6 767 11 q 761 -9 767 -5 q 747 -13 755 -13 q 730 -6 735 -13 q 719 19 725 2 l 628 270 l 229 270 l 138 19 q 126 -6 132 2 q 109 -13 121 -13 m 244 313 l 613 313 l 434 806 q 431 816 433 811 q 428 824 430 821 q 426 816 428 821 q 424 806 425 811 l 244 313 m 428 -219 q 386 -202 403 -219 q 369 -160 369 -185 q 386 -118 369 -135 q 428 -101 403 -101 q 470 -118 453 -101 q 488 -160 488 -135 q 470 -202 488 -185 q 428 -219 453 -219 m 561 974 q 578 943 578 957 q 572 930 578 935 q 558 925 567 925 q 542 930 549 925 q 526 946 536 935 l 430 1045 l 333 945 q 317 930 323 934 q 301 925 311 925 q 288 930 293 925 q 283 944 283 935 q 287 958 283 951 q 298 974 290 966 l 388 1065 q 409 1080 399 1076 q 429 1085 419 1085 q 450 1080 440 1085 q 471 1065 460 1076 l 561 974 z "},"Ầ":{"ha":860,"x_min":90,"x_max":767,"o":"m 109 -13 q 96 -9 102 -13 q 90 6 90 -4 q 92 17 90 11 q 96 32 93 24 l 388 834 q 403 858 393 850 q 426 867 413 867 l 430 867 q 455 858 445 867 q 469 834 464 850 l 761 32 q 766 17 765 24 q 767 6 767 11 q 761 -9 767 -5 q 747 -13 755 -13 q 730 -6 735 -13 q 719 19 725 2 l 628 270 l 229 270 l 138 19 q 126 -6 132 2 q 109 -13 121 -13 m 244 313 l 613 313 l 434 806 q 431 816 433 811 q 428 824 430 821 q 426 816 428 821 q 424 806 425 811 l 244 313 m 561 994 q 578 963 578 977 q 572 950 578 955 q 558 945 567 945 q 542 950 549 945 q 526 966 536 955 l 430 1065 l 333 965 q 317 950 323 954 q 301 945 311 945 q 288 950 293 945 q 283 964 283 956 q 298 994 283 979 l 388 1085 q 409 1100 399 1096 q 429 1105 419 1105 q 450 1100 440 1105 q 471 1085 460 1096 l 561 994 m 608 1062 q 590 1068 599 1062 q 569 1086 581 1074 l 463 1197 q 450 1219 450 1211 q 457 1228 450 1226 q 471 1231 463 1231 l 482 1231 q 506 1226 497 1231 q 523 1208 514 1221 l 601 1107 q 622 1072 622 1081 q 616 1064 622 1067 q 608 1062 611 1062 z "},"Ẩ":{"ha":860,"x_min":90,"x_max":767,"o":"m 109 -13 q 96 -9 102 -13 q 90 6 90 -4 q 92 17 90 11 q 96 32 93 24 l 388 834 q 403 858 393 850 q 426 867 413 867 l 430 867 q 455 858 445 867 q 469 834 464 850 l 761 32 q 766 17 765 24 q 767 6 767 11 q 761 -9 767 -5 q 747 -13 755 -13 q 730 -6 735 -13 q 719 19 725 2 l 628 270 l 229 270 l 138 19 q 126 -6 132 2 q 109 -13 121 -13 m 244 313 l 613 313 l 434 806 q 431 816 433 811 q 428 824 430 821 q 426 816 428 821 q 424 806 425 811 l 244 313 m 561 994 q 578 963 578 977 q 572 950 578 955 q 558 945 567 945 q 542 950 549 945 q 526 966 536 955 l 430 1065 l 333 965 q 317 950 323 954 q 301 945 311 945 q 288 950 293 945 q 283 964 283 956 q 298 994 283 979 l 388 1085 q 409 1100 399 1096 q 429 1105 419 1105 q 450 1100 440 1105 q 471 1085 460 1096 l 561 994 m 563 1075 q 535 1094 535 1075 q 543 1107 535 1103 q 563 1112 550 1112 q 636 1119 601 1112 q 671 1156 671 1127 q 638 1189 671 1183 q 569 1195 606 1195 q 533 1193 550 1195 q 502 1190 516 1192 q 489 1188 495 1189 q 478 1188 482 1188 q 469 1190 474 1188 q 464 1202 464 1193 q 494 1227 464 1220 q 565 1234 525 1234 q 639 1228 606 1234 q 694 1205 673 1222 q 715 1155 715 1188 q 689 1105 715 1122 q 628 1081 663 1088 q 563 1075 592 1075 z "},"Ẫ":{"ha":860,"x_min":90,"x_max":767,"o":"m 109 -13 q 96 -9 102 -13 q 90 6 90 -4 q 92 17 90 11 q 96 32 93 24 l 388 834 q 403 858 393 850 q 426 867 413 867 l 430 867 q 455 858 445 867 q 469 834 464 850 l 761 32 q 766 17 765 24 q 767 6 767 11 q 761 -9 767 -5 q 747 -13 755 -13 q 730 -6 735 -13 q 719 19 725 2 l 628 270 l 229 270 l 138 19 q 126 -6 132 2 q 109 -13 121 -13 m 244 313 l 613 313 l 434 806 q 431 816 433 811 q 428 824 430 821 q 426 816 428 821 q 424 806 425 811 l 244 313 m 561 974 q 578 943 578 957 q 572 930 578 935 q 558 925 567 925 q 542 930 549 925 q 526 946 536 935 l 430 1045 l 333 945 q 317 930 323 934 q 301 925 311 925 q 288 930 293 925 q 283 944 283 935 q 287 958 283 951 q 298 974 290 966 l 388 1065 q 409 1080 399 1076 q 429 1085 419 1085 q 450 1080 440 1085 q 471 1065 460 1076 l 561 974 m 499 1160 q 451 1171 469 1160 q 417 1198 434 1182 q 390 1220 402 1213 q 357 1227 378 1227 q 318 1218 335 1227 q 289 1199 301 1210 q 273 1187 281 1192 q 260 1182 265 1182 q 247 1188 253 1182 q 240 1202 240 1194 q 259 1232 240 1215 q 303 1260 277 1246 q 360 1274 330 1274 q 407 1263 390 1274 q 441 1235 424 1251 q 468 1213 456 1221 q 501 1204 481 1204 q 540 1213 524 1204 q 567 1232 556 1222 q 586 1247 577 1242 q 604 1253 596 1253 q 617 1248 612 1253 q 623 1233 623 1243 q 617 1219 623 1223 q 573 1182 604 1204 q 499 1160 541 1160 z "},"Ȁ":{"ha":860,"x_min":90,"x_max":767,"o":"m 109 -13 q 96 -9 102 -13 q 90 6 90 -4 q 92 17 90 11 q 96 32 93 24 l 388 834 q 403 858 393 850 q 426 867 413 867 l 430 867 q 455 858 445 867 q 469 834 464 850 l 761 32 q 766 17 765 24 q 767 6 767 11 q 761 -9 767 -5 q 747 -13 755 -13 q 730 -6 735 -13 q 719 19 725 2 l 628 270 l 229 270 l 138 19 q 126 -6 132 2 q 109 -13 121 -13 m 244 313 l 613 313 l 434 806 q 431 816 433 811 q 428 824 430 821 q 426 816 428 821 q 424 806 425 811 l 244 313 m 354 922 q 336 928 345 922 q 315 947 326 935 l 209 1057 q 199 1070 202 1065 q 197 1080 197 1076 q 203 1089 197 1086 q 217 1092 209 1092 l 228 1092 q 252 1086 244 1092 q 269 1069 260 1081 l 348 967 q 368 933 368 941 q 363 925 368 927 q 354 922 358 922 m 539 922 q 521 928 531 922 q 500 947 512 935 l 394 1057 q 382 1080 382 1070 q 388 1089 382 1086 q 402 1092 394 1092 l 413 1092 q 437 1086 429 1092 q 454 1069 445 1081 l 533 967 q 548 946 543 954 q 553 933 553 938 q 548 925 553 927 q 539 922 542 922 z "},"Ä":{"ha":860,"x_min":90,"x_max":767,"o":"m 109 -13 q 96 -9 102 -13 q 90 6 90 -4 q 92 17 90 11 q 96 32 93 24 l 388 834 q 403 858 393 850 q 426 867 413 867 l 430 867 q 455 858 445 867 q 469 834 464 850 l 761 32 q 766 17 765 24 q 767 6 767 11 q 761 -9 767 -5 q 747 -13 755 -13 q 730 -6 735 -13 q 719 19 725 2 l 628 270 l 229 270 l 138 19 q 126 -6 132 2 q 109 -13 121 -13 m 244 313 l 613 313 l 434 806 q 431 816 433 811 q 428 824 430 821 q 426 816 428 821 q 424 806 425 811 l 244 313 m 302 964 q 260 981 278 964 q 243 1024 243 999 q 260 1066 243 1048 q 302 1083 278 1083 q 344 1066 327 1083 q 362 1024 362 1048 q 344 981 362 999 q 302 964 327 964 m 558 964 q 515 981 533 964 q 498 1024 498 999 q 515 1066 498 1048 q 558 1083 533 1083 q 600 1066 582 1083 q 617 1024 617 1048 q 600 981 617 999 q 558 964 582 964 z "},"Ạ":{"ha":860,"x_min":90,"x_max":767,"o":"m 109 -13 q 96 -9 102 -13 q 90 6 90 -4 q 92 17 90 11 q 96 32 93 24 l 388 834 q 403 858 393 850 q 426 867 413 867 l 430 867 q 455 858 445 867 q 469 834 464 850 l 761 32 q 766 17 765 24 q 767 6 767 11 q 761 -9 767 -5 q 747 -13 755 -13 q 730 -6 735 -13 q 719 19 725 2 l 628 270 l 229 270 l 138 19 q 126 -6 132 2 q 109 -13 121 -13 m 244 313 l 613 313 l 434 806 q 431 816 433 811 q 428 824 430 821 q 426 816 428 821 q 424 806 425 811 l 244 313 m 428 -219 q 386 -202 403 -219 q 369 -160 369 -185 q 386 -118 369 -135 q 428 -101 403 -101 q 470 -118 453 -101 q 488 -160 488 -135 q 470 -202 488 -185 q 428 -219 453 -219 z "},"À":{"ha":860,"x_min":90,"x_max":767,"o":"m 109 -13 q 96 -9 102 -13 q 90 6 90 -4 q 92 17 90 11 q 96 32 93 24 l 388 834 q 403 858 393 850 q 426 867 413 867 l 430 867 q 455 858 445 867 q 469 834 464 850 l 761 32 q 766 17 765 24 q 767 6 767 11 q 761 -9 767 -5 q 747 -13 755 -13 q 730 -6 735 -13 q 719 19 725 2 l 628 270 l 229 270 l 138 19 q 126 -6 132 2 q 109 -13 121 -13 m 244 313 l 613 313 l 434 806 q 431 816 433 811 q 428 824 430 821 q 426 816 428 821 q 424 806 425 811 l 244 313 m 462 929 q 444 935 453 929 q 423 953 434 942 l 317 1064 q 304 1086 304 1077 q 310 1095 304 1093 q 325 1098 317 1098 l 336 1098 q 360 1093 351 1098 q 377 1076 368 1088 l 456 974 q 476 940 476 948 q 470 931 476 933 q 462 929 465 929 z "},"Ả":{"ha":860,"x_min":90,"x_max":767,"o":"m 109 -13 q 96 -9 102 -13 q 90 6 90 -4 q 92 17 90 11 q 96 32 93 24 l 388 834 q 403 858 393 850 q 426 867 413 867 l 430 867 q 455 858 445 867 q 469 834 464 850 l 761 32 q 766 17 765 24 q 767 6 767 11 q 761 -9 767 -5 q 747 -13 755 -13 q 730 -6 735 -13 q 719 19 725 2 l 628 270 l 229 270 l 138 19 q 126 -6 132 2 q 109 -13 121 -13 m 244 313 l 613 313 l 434 806 q 431 816 433 811 q 428 824 430 821 q 426 816 428 821 q 424 806 425 811 l 244 313 m 403 929 q 383 934 390 929 q 376 948 376 939 q 383 961 376 957 q 403 966 390 966 q 476 974 442 966 q 511 1010 511 981 q 478 1043 511 1038 q 409 1049 446 1049 q 373 1048 390 1049 q 342 1044 356 1047 q 330 1043 335 1044 q 320 1042 324 1042 q 308 1046 312 1042 q 304 1056 304 1050 q 335 1082 304 1074 q 406 1089 365 1089 q 480 1083 446 1089 q 534 1059 513 1076 q 555 1009 555 1042 q 529 959 555 976 q 468 935 503 942 q 403 929 433 929 z "},"Ȃ":{"ha":860,"x_min":90,"x_max":767,"o":"m 109 -13 q 96 -9 102 -13 q 90 6 90 -4 q 92 17 90 11 q 96 32 93 24 l 388 834 q 403 858 393 850 q 426 867 413 867 l 430 867 q 455 858 445 867 q 469 834 464 850 l 761 32 q 766 17 765 24 q 767 6 767 11 q 761 -9 767 -5 q 747 -13 755 -13 q 730 -6 735 -13 q 719 19 725 2 l 628 270 l 229 270 l 138 19 q 126 -6 132 2 q 109 -13 121 -13 m 244 313 l 613 313 l 434 806 q 431 816 433 811 q 428 824 430 821 q 426 816 428 821 q 424 806 425 811 l 244 313 m 547 935 q 530 944 535 935 q 520 972 524 954 q 495 1031 515 1003 q 430 1059 475 1059 q 365 1031 385 1059 q 339 972 344 1003 q 330 944 335 953 q 312 935 324 935 q 297 942 303 935 q 291 963 291 949 q 291 970 291 967 q 292 976 291 974 q 335 1062 301 1026 q 428 1099 369 1099 q 522 1062 487 1099 q 567 976 557 1026 q 568 970 568 974 q 569 963 569 967 q 563 942 569 949 q 547 935 557 935 z "},"Ā":{"ha":860,"x_min":90,"x_max":767,"o":"m 109 -13 q 96 -9 102 -13 q 90 6 90 -4 q 92 17 90 11 q 96 32 93 24 l 388 834 q 403 858 393 850 q 426 867 413 867 l 430 867 q 455 858 445 867 q 469 834 464 850 l 761 32 q 766 17 765 24 q 767 6 767 11 q 761 -9 767 -5 q 747 -13 755 -13 q 730 -6 735 -13 q 719 19 725 2 l 628 270 l 229 270 l 138 19 q 126 -6 132 2 q 109 -13 121 -13 m 244 313 l 613 313 l 434 806 q 431 816 433 811 q 428 824 430 821 q 426 816 428 821 q 424 806 425 811 l 244 313 m 206 992 q 216 1008 206 1003 q 245 1014 226 1014 l 615 1014 q 644 1008 634 1014 q 654 992 654 1003 q 644 976 654 982 q 615 971 634 971 l 245 971 q 216 976 226 971 q 206 992 206 982 z "},"Ą":{"ha":860,"x_min":90,"x_max":844,"o":"m 109 -13 q 96 -9 102 -13 q 90 6 90 -4 q 92 17 90 11 q 96 32 93 24 l 388 834 q 403 858 393 850 q 426 867 413 867 l 430 867 q 455 858 445 867 q 469 834 464 850 l 761 32 q 766 17 765 24 q 767 6 767 11 q 761 -9 767 -5 q 747 -13 755 -13 q 730 -6 735 -13 q 719 19 725 2 l 628 270 l 229 270 l 138 19 q 126 -6 132 2 q 109 -13 121 -13 m 244 313 l 613 313 l 434 806 q 431 816 433 811 q 428 824 430 821 q 426 816 428 821 q 424 806 425 811 l 244 313 m 766 -305 q 698 -292 729 -305 q 647 -253 666 -279 q 627 -186 627 -226 q 640 -124 627 -157 q 671 -64 652 -92 q 709 -18 690 -35 q 742 0 728 0 l 766 0 q 728 -42 749 -11 q 692 -112 708 -73 q 676 -187 676 -151 q 702 -245 676 -228 q 761 -262 728 -262 q 781 -261 771 -262 q 799 -259 790 -260 q 809 -257 804 -258 q 817 -257 813 -257 q 836 -262 829 -257 q 844 -276 844 -268 q 817 -299 844 -294 q 766 -305 790 -305 z "},"Å":{"ha":860,"x_min":90,"x_max":767,"o":"m 109 -13 q 96 -9 102 -13 q 90 6 90 -4 q 92 17 90 11 q 96 32 93 24 l 388 834 q 403 858 393 850 q 426 867 413 867 l 430 867 q 455 858 445 867 q 469 834 464 850 l 761 32 q 766 17 765 24 q 767 6 767 11 q 761 -9 767 -5 q 747 -13 755 -13 q 730 -6 735 -13 q 719 19 725 2 l 628 270 l 229 270 l 138 19 q 126 -6 132 2 q 109 -13 121 -13 m 244 313 l 613 313 l 434 806 q 431 816 433 811 q 428 824 430 821 q 426 816 428 821 q 424 806 425 811 l 244 313 m 431 915 q 361 943 391 915 q 332 1013 332 971 q 345 1061 332 1039 q 382 1096 359 1083 q 431 1109 404 1109 q 479 1096 457 1109 q 514 1061 501 1083 q 528 1013 528 1039 q 499 943 528 971 q 431 915 470 915 m 431 951 q 474 968 456 951 q 492 1014 492 985 q 474 1054 492 1038 q 431 1070 456 1070 q 387 1054 406 1070 q 369 1014 369 1038 q 387 968 369 985 q 431 951 406 951 z "},"Ǻ":{"ha":860,"x_min":90,"x_max":767,"o":"m 109 -13 q 96 -9 102 -13 q 90 6 90 -4 q 92 17 90 11 q 96 32 93 24 l 388 834 q 403 858 393 850 q 426 867 413 867 l 430 867 q 455 858 445 867 q 469 834 464 850 l 761 32 q 766 17 765 24 q 767 6 767 11 q 761 -9 767 -5 q 747 -13 755 -13 q 730 -6 735 -13 q 719 19 725 2 l 628 270 l 229 270 l 138 19 q 126 -6 132 2 q 109 -13 121 -13 m 244 313 l 613 313 l 434 806 q 431 816 433 811 q 428 824 430 821 q 426 816 428 821 q 424 806 425 811 l 244 313 m 431 915 q 361 943 391 915 q 332 1013 332 971 q 345 1061 332 1039 q 382 1096 359 1083 q 431 1109 404 1109 q 479 1096 457 1109 q 514 1061 501 1083 q 528 1013 528 1039 q 499 943 528 971 q 431 915 470 915 m 431 951 q 474 968 456 951 q 492 1014 492 985 q 474 1054 492 1038 q 431 1070 456 1070 q 387 1054 406 1070 q 369 1014 369 1038 q 387 968 369 985 q 431 951 406 951 m 397 1174 q 389 1176 394 1174 q 383 1185 383 1178 q 403 1219 383 1192 l 482 1321 q 500 1338 492 1333 q 523 1343 508 1343 l 534 1343 q 549 1340 542 1343 q 555 1331 555 1338 q 542 1309 555 1322 l 436 1199 q 415 1180 425 1187 q 397 1174 406 1174 z "},"Ã":{"ha":860,"x_min":90,"x_max":767,"o":"m 109 -13 q 96 -9 102 -13 q 90 6 90 -4 q 92 17 90 11 q 96 32 93 24 l 388 834 q 403 858 393 850 q 426 867 413 867 l 430 867 q 455 858 445 867 q 469 834 464 850 l 761 32 q 766 17 765 24 q 767 6 767 11 q 761 -9 767 -5 q 747 -13 755 -13 q 730 -6 735 -13 q 719 19 725 2 l 628 270 l 229 270 l 138 19 q 126 -6 132 2 q 109 -13 121 -13 m 244 313 l 613 313 l 434 806 q 431 816 433 811 q 428 824 430 821 q 426 816 428 821 q 424 806 425 811 l 244 313 m 499 942 q 451 953 469 942 q 417 980 434 964 q 390 1002 402 994 q 357 1009 378 1009 q 318 1000 335 1009 q 289 981 301 992 q 273 969 281 974 q 260 964 265 964 q 247 970 253 964 q 240 984 240 976 q 259 1014 240 997 q 303 1042 277 1028 q 360 1056 330 1056 q 407 1044 390 1056 q 441 1017 424 1033 q 468 994 456 1003 q 501 986 481 986 q 540 995 524 986 q 567 1014 556 1003 q 586 1029 577 1024 q 604 1035 596 1035 q 617 1030 612 1035 q 623 1015 623 1025 q 617 1001 623 1005 q 573 964 604 986 q 499 942 541 942 z "},"Æ":{"ha":860,"x_min":31,"x_max":796,"o":"m 473 -1 q 433 35 433 -1 l 433 238 l 175 238 l 79 17 q 67 -6 73 1 q 49 -13 60 -13 q 40 -12 44 -13 q 34 -7 36 -10 q 31 2 31 -4 q 33 14 31 7 q 38 29 35 20 l 387 830 q 402 852 394 845 q 422 860 410 860 l 759 860 q 787 855 778 860 q 796 840 796 850 q 787 826 796 831 q 759 821 778 821 l 477 821 l 477 442 l 715 442 q 742 437 734 442 q 751 422 751 432 q 742 408 751 413 q 715 402 734 402 l 477 402 l 477 38 l 759 38 q 787 33 778 38 q 796 19 796 28 q 787 5 796 10 q 759 -1 778 -1 l 473 -1 m 192 277 l 433 277 l 433 821 q 430 820 431 821 q 428 817 429 819 l 192 277 z "},"Ǽ":{"ha":860,"x_min":31,"x_max":796,"o":"m 473 -1 q 433 35 433 -1 l 433 238 l 175 238 l 79 17 q 67 -6 73 1 q 49 -13 60 -13 q 40 -12 44 -13 q 34 -7 36 -10 q 31 2 31 -4 q 33 14 31 7 q 38 29 35 20 l 387 830 q 402 852 394 845 q 422 860 410 860 l 759 860 q 787 855 778 860 q 796 840 796 850 q 787 826 796 831 q 759 821 778 821 l 477 821 l 477 442 l 715 442 q 742 437 734 442 q 751 422 751 432 q 742 408 751 413 q 715 402 734 402 l 477 402 l 477 38 l 759 38 q 787 33 778 38 q 796 19 796 28 q 787 5 796 10 q 759 -1 778 -1 l 473 -1 m 192 277 l 433 277 l 433 821 q 430 820 431 821 q 428 817 429 819 l 192 277 m 397 924 q 389 927 394 924 q 383 935 383 929 q 403 969 383 943 l 482 1072 q 500 1089 492 1084 q 523 1094 508 1094 l 534 1094 q 549 1091 542 1094 q 555 1082 555 1088 q 542 1060 555 1073 l 436 949 q 415 931 425 938 q 397 924 406 924 z "},"B":{"ha":860,"x_min":178,"x_max":733,"o":"m 558 446 q 601 436 572 446 q 660 402 629 426 q 711 338 690 378 q 733 236 733 297 q 701 105 733 157 q 604 26 669 52 q 441 0 540 0 l 218 0 q 178 40 178 0 l 178 820 q 218 860 178 860 l 409 860 q 560 844 492 860 q 667 783 627 828 q 706 649 706 738 q 688 552 706 591 q 644 489 670 513 q 594 456 619 466 q 558 446 570 446 m 222 817 l 222 465 l 467 465 q 573 489 530 465 q 639 554 617 513 q 661 649 661 595 q 631 753 661 717 q 549 803 601 789 q 430 817 497 817 l 222 817 m 432 42 q 629 93 571 42 q 688 236 688 144 q 625 377 688 331 q 471 423 563 423 l 222 423 l 222 42 l 432 42 z "},"C":{"ha":860,"x_min":119,"x_max":757,"o":"m 474 -13 q 339 15 403 -13 q 225 98 275 42 q 147 236 176 153 q 119 427 119 318 q 147 619 119 536 q 225 757 176 701 q 339 840 275 812 q 474 868 403 868 q 601 844 547 868 q 689 784 654 820 q 740 711 724 748 q 757 649 757 674 q 751 633 757 638 q 739 628 746 628 q 724 633 729 628 q 715 653 718 638 q 680 725 708 685 q 601 795 651 765 q 475 824 550 824 q 328 780 399 824 q 212 647 257 735 q 167 427 167 558 q 212 208 167 297 q 328 75 257 119 q 475 31 399 31 q 601 60 550 31 q 680 129 651 89 q 715 201 708 169 q 724 222 718 217 q 739 226 729 226 q 751 221 746 226 q 757 206 757 216 q 740 143 757 180 q 689 70 724 106 q 601 11 654 35 q 474 -13 547 -13 z "},"Ć":{"ha":860,"x_min":119,"x_max":757,"o":"m 474 -13 q 339 15 403 -13 q 225 98 275 42 q 147 236 176 153 q 119 427 119 318 q 147 619 119 536 q 225 757 176 701 q 339 840 275 812 q 474 868 403 868 q 601 844 547 868 q 689 784 654 820 q 740 711 724 748 q 757 649 757 674 q 751 633 757 638 q 739 628 746 628 q 724 633 729 628 q 715 653 718 638 q 680 725 708 685 q 601 795 651 765 q 475 824 550 824 q 328 780 399 824 q 212 647 257 735 q 167 427 167 558 q 212 208 167 297 q 328 75 257 119 q 475 31 399 31 q 601 60 550 31 q 680 129 651 89 q 715 201 708 169 q 724 222 718 217 q 739 226 729 226 q 751 221 746 226 q 757 206 757 216 q 740 143 757 180 q 689 70 724 106 q 601 11 654 35 q 474 -13 547 -13 m 418 924 q 410 927 415 924 q 404 935 404 929 q 424 969 404 943 l 503 1072 q 520 1089 513 1084 q 544 1094 528 1094 l 555 1094 q 569 1091 563 1094 q 576 1082 576 1088 q 563 1060 576 1073 l 457 949 q 436 931 446 938 q 418 924 426 924 z "},"Č":{"ha":860,"x_min":119,"x_max":757,"o":"m 474 -13 q 339 15 403 -13 q 225 98 275 42 q 147 236 176 153 q 119 427 119 318 q 147 619 119 536 q 225 757 176 701 q 339 840 275 812 q 474 868 403 868 q 601 844 547 868 q 689 784 654 820 q 740 711 724 748 q 757 649 757 674 q 751 633 757 638 q 739 628 746 628 q 724 633 729 628 q 715 653 718 638 q 680 725 708 685 q 601 795 651 765 q 475 824 550 824 q 328 780 399 824 q 212 647 257 735 q 167 427 167 558 q 212 208 167 297 q 328 75 257 119 q 475 31 399 31 q 601 60 550 31 q 680 129 651 89 q 715 201 708 169 q 724 222 718 217 q 739 226 729 226 q 751 221 746 226 q 757 206 757 216 q 740 143 757 180 q 689 70 724 106 q 601 11 654 35 q 474 -13 547 -13 m 582 1023 l 491 933 q 470 917 480 922 q 450 912 461 912 q 430 917 439 912 q 409 933 420 922 l 319 1023 q 304 1053 304 1038 q 309 1067 304 1061 q 322 1072 314 1072 q 338 1067 331 1072 q 354 1051 344 1063 l 451 951 l 546 1051 q 563 1067 556 1062 q 578 1072 569 1072 q 593 1067 588 1072 q 598 1054 598 1062 q 594 1040 598 1048 q 582 1023 590 1032 z "},"Ç":{"ha":860,"x_min":119,"x_max":757,"o":"m 456 -289 q 430 -288 443 -289 q 403 -285 417 -287 q 368 -260 368 -277 q 374 -246 368 -251 q 393 -241 381 -241 q 412 -243 401 -241 q 433 -245 419 -244 q 458 -247 447 -247 q 553 -225 513 -247 q 593 -164 593 -204 q 578 -128 593 -139 q 542 -117 563 -117 q 502 -121 518 -117 q 474 -130 486 -124 q 456 -136 465 -133 q 438 -138 447 -138 q 424 -134 429 -138 q 419 -121 419 -131 q 420 -110 419 -117 q 424 -97 422 -103 l 451 -12 q 324 22 384 -8 q 218 107 264 52 q 145 242 172 163 q 119 427 119 322 q 147 619 119 536 q 225 757 176 701 q 339 840 275 812 q 474 868 403 868 q 601 844 547 868 q 689 784 654 820 q 740 711 724 748 q 757 649 757 674 q 751 633 757 638 q 739 628 746 628 q 724 633 729 628 q 715 653 718 638 q 680 725 708 685 q 601 795 651 765 q 475 824 550 824 q 328 780 399 824 q 212 647 257 735 q 167 427 167 558 q 212 208 167 297 q 328 75 257 119 q 475 31 399 31 q 601 60 550 31 q 680 129 651 89 q 715 201 708 169 q 724 222 718 217 q 739 226 729 226 q 751 221 746 226 q 757 206 757 216 q 741 145 757 181 q 693 75 726 110 q 611 16 660 40 q 492 -12 561 -9 l 467 -101 q 506 -85 483 -92 q 552 -78 528 -78 q 596 -85 576 -78 q 629 -110 616 -93 q 642 -154 642 -127 q 616 -230 642 -199 q 548 -274 590 -260 q 456 -289 506 -289 z "},"Ĉ":{"ha":860,"x_min":119,"x_max":757,"o":"m 474 -13 q 339 15 403 -13 q 225 98 275 42 q 147 236 176 153 q 119 427 119 318 q 147 619 119 536 q 225 757 176 701 q 339 840 275 812 q 474 868 403 868 q 601 844 547 868 q 689 784 654 820 q 740 711 724 748 q 757 649 757 674 q 751 633 757 638 q 739 628 746 628 q 724 633 729 628 q 715 653 718 638 q 680 725 708 685 q 601 795 651 765 q 475 824 550 824 q 328 780 399 824 q 212 647 257 735 q 167 427 167 558 q 212 208 167 297 q 328 75 257 119 q 475 31 399 31 q 601 60 550 31 q 680 129 651 89 q 715 201 708 169 q 724 222 718 217 q 739 226 729 226 q 751 221 746 226 q 757 206 757 216 q 740 143 757 180 q 689 70 724 106 q 601 11 654 35 q 474 -13 547 -13 m 582 967 q 599 936 599 950 q 593 923 599 928 q 578 918 588 918 q 563 923 569 918 q 547 939 557 928 l 451 1038 l 354 938 q 338 923 344 927 q 322 918 332 918 q 309 923 314 918 q 304 938 304 928 q 308 951 304 944 q 319 967 311 959 l 409 1058 q 430 1073 420 1069 q 450 1078 440 1078 q 471 1073 461 1078 q 492 1058 481 1069 l 582 967 z "},"Ċ":{"ha":860,"x_min":119,"x_max":757,"o":"m 474 -13 q 339 15 403 -13 q 225 98 275 42 q 147 236 176 153 q 119 427 119 318 q 147 619 119 536 q 225 757 176 701 q 339 840 275 812 q 474 868 403 868 q 601 844 547 868 q 689 784 654 820 q 740 711 724 748 q 757 649 757 674 q 751 633 757 638 q 739 628 746 628 q 724 633 729 628 q 715 653 718 638 q 680 725 708 685 q 601 795 651 765 q 475 824 550 824 q 328 780 399 824 q 212 647 257 735 q 167 427 167 558 q 212 208 167 297 q 328 75 257 119 q 475 31 399 31 q 601 60 550 31 q 680 129 651 89 q 715 201 708 169 q 724 222 718 217 q 739 226 729 226 q 751 221 746 226 q 757 206 757 216 q 740 143 757 180 q 689 70 724 106 q 601 11 654 35 q 474 -13 547 -13 m 451 965 q 408 982 426 965 q 391 1024 391 999 q 408 1066 391 1049 q 451 1083 426 1083 q 492 1066 475 1083 q 510 1024 510 1049 q 492 982 510 999 q 451 965 475 965 z "},"D":{"ha":860,"x_min":143,"x_max":743,"o":"m 365 860 q 463 848 411 860 q 564 808 514 836 q 654 730 613 779 q 719 607 694 681 q 743 430 743 533 q 719 253 743 327 q 654 130 694 179 q 564 52 613 81 q 463 12 514 24 q 365 0 411 0 l 183 0 q 143 40 143 0 l 143 820 q 183 860 143 860 l 365 860 m 361 42 q 477 63 418 42 q 587 129 537 83 q 668 249 638 174 q 699 430 699 323 q 668 611 699 537 q 587 731 638 685 q 477 797 537 776 q 361 817 418 817 l 187 817 l 187 42 l 361 42 z "},"Ð":{"ha":860,"x_min":22,"x_max":743,"o":"m 63 409 q 22 430 22 409 q 63 451 22 451 l 380 451 q 419 430 419 451 q 380 409 419 409 l 63 409 m 365 860 q 463 848 411 860 q 564 808 514 836 q 654 730 613 779 q 719 607 694 681 q 743 430 743 533 q 719 253 743 327 q 654 130 694 179 q 564 52 613 81 q 463 12 514 24 q 365 0 411 0 l 183 0 q 143 40 143 0 l 143 820 q 183 860 143 860 l 365 860 m 361 42 q 477 63 418 42 q 587 129 537 83 q 668 249 638 174 q 699 430 699 323 q 668 611 699 537 q 587 731 638 685 q 477 797 537 776 q 361 817 418 817 l 187 817 l 187 42 l 361 42 z "},"Ď":{"ha":860,"x_min":143,"x_max":743,"o":"m 365 860 q 463 848 411 860 q 564 808 514 836 q 654 730 613 779 q 719 607 694 681 q 743 430 743 533 q 719 253 743 327 q 654 130 694 179 q 564 52 613 81 q 463 12 514 24 q 365 0 411 0 l 183 0 q 143 40 143 0 l 143 820 q 183 860 143 860 l 365 860 m 361 42 q 477 63 418 42 q 587 129 537 83 q 668 249 638 174 q 699 430 699 323 q 668 611 699 537 q 587 731 638 685 q 477 797 537 776 q 361 817 418 817 l 187 817 l 187 42 l 361 42 m 523 1023 l 432 933 q 411 917 421 922 q 391 912 402 912 q 370 917 380 912 q 350 933 361 922 l 260 1023 q 245 1053 245 1038 q 250 1067 245 1061 q 263 1072 255 1072 q 278 1067 272 1072 q 295 1051 285 1063 l 392 951 l 487 1051 q 504 1067 497 1062 q 519 1072 510 1072 q 534 1067 528 1072 q 539 1054 539 1062 q 535 1040 539 1048 q 523 1023 531 1032 z "},"Đ":{"ha":860,"x_min":22,"x_max":743,"o":"m 63 409 q 22 430 22 409 q 63 451 22 451 l 380 451 q 419 430 419 451 q 380 409 419 409 l 63 409 m 365 860 q 463 848 411 860 q 564 808 514 836 q 654 730 613 779 q 719 607 694 681 q 743 430 743 533 q 719 253 743 327 q 654 130 694 179 q 564 52 613 81 q 463 12 514 24 q 365 0 411 0 l 183 0 q 143 40 143 0 l 143 820 q 183 860 143 860 l 365 860 m 361 42 q 477 63 418 42 q 587 129 537 83 q 668 249 638 174 q 699 430 699 323 q 668 611 699 537 q 587 731 638 685 q 477 797 537 776 q 361 817 418 817 l 187 817 l 187 42 l 361 42 z "},"E":{"ha":860,"x_min":190,"x_max":699,"o":"m 699 839 q 659 817 699 817 l 234 817 l 234 456 l 594 456 q 623 451 613 456 q 633 435 633 445 q 623 420 633 426 q 594 414 613 414 l 234 414 l 234 42 l 659 42 q 699 21 699 42 q 659 0 699 0 l 230 0 q 190 40 190 0 l 190 820 q 230 860 190 860 l 659 860 q 699 839 699 860 z "},"É":{"ha":860,"x_min":190,"x_max":699,"o":"m 699 839 q 659 817 699 817 l 234 817 l 234 456 l 594 456 q 623 451 613 456 q 633 435 633 445 q 623 420 633 426 q 594 414 613 414 l 234 414 l 234 42 l 659 42 q 699 21 699 42 q 659 0 699 0 l 230 0 q 190 40 190 0 l 190 820 q 230 860 190 860 l 659 860 q 699 839 699 860 m 417 924 q 409 927 415 924 q 403 935 403 929 q 424 969 403 943 l 502 1072 q 520 1089 512 1084 q 543 1094 528 1094 l 554 1094 q 569 1091 563 1094 q 575 1082 575 1088 q 563 1060 575 1073 l 456 949 q 435 931 445 938 q 417 924 426 924 z "},"Ĕ":{"ha":860,"x_min":190,"x_max":699,"o":"m 699 839 q 659 817 699 817 l 234 817 l 234 456 l 594 456 q 623 451 613 456 q 633 435 633 445 q 623 420 633 426 q 594 414 613 414 l 234 414 l 234 42 l 659 42 q 699 21 699 42 q 659 0 699 0 l 230 0 q 190 40 190 0 l 190 820 q 230 860 190 860 l 659 860 q 699 839 699 860 m 567 1092 q 583 1084 577 1092 q 589 1063 589 1077 q 589 1057 589 1060 q 588 1050 588 1053 q 542 964 577 1001 q 449 928 507 928 q 356 964 390 928 q 312 1050 322 1001 q 311 1057 311 1053 q 311 1063 311 1060 q 317 1084 311 1077 q 332 1092 323 1092 q 350 1082 344 1092 q 359 1055 356 1073 q 385 996 365 1024 q 450 967 406 967 q 515 996 495 967 q 540 1054 535 1024 q 550 1082 544 1072 q 567 1092 556 1092 z "},"Ě":{"ha":860,"x_min":190,"x_max":699,"o":"m 699 839 q 659 817 699 817 l 234 817 l 234 456 l 594 456 q 623 451 613 456 q 633 435 633 445 q 623 420 633 426 q 594 414 613 414 l 234 414 l 234 42 l 659 42 q 699 21 699 42 q 659 0 699 0 l 230 0 q 190 40 190 0 l 190 820 q 230 860 190 860 l 659 860 q 699 839 699 860 m 581 1023 l 490 933 q 470 917 479 922 q 449 912 460 912 q 429 917 438 912 q 408 933 419 922 l 318 1023 q 303 1053 303 1038 q 308 1067 303 1061 q 321 1072 313 1072 q 337 1067 331 1072 q 353 1051 343 1063 l 450 951 l 545 1051 q 562 1067 556 1062 q 578 1072 569 1072 q 592 1067 587 1072 q 597 1054 597 1062 q 593 1040 597 1048 q 581 1023 590 1032 z "},"Ê":{"ha":860,"x_min":190,"x_max":699,"o":"m 699 839 q 659 817 699 817 l 234 817 l 234 456 l 594 456 q 623 451 613 456 q 633 435 633 445 q 623 420 633 426 q 594 414 613 414 l 234 414 l 234 42 l 659 42 q 699 21 699 42 q 659 0 699 0 l 230 0 q 190 40 190 0 l 190 820 q 230 860 190 860 l 659 860 q 699 839 699 860 m 581 967 q 598 936 598 950 q 592 923 598 928 q 578 918 587 918 q 563 923 569 918 q 546 939 556 928 l 450 1038 l 353 938 q 337 923 343 927 q 322 918 331 918 q 308 923 313 918 q 303 938 303 928 q 307 951 303 944 q 318 967 310 959 l 408 1058 q 429 1073 419 1069 q 449 1078 439 1078 q 470 1073 460 1078 q 491 1058 480 1069 l 581 967 z "},"Ế":{"ha":860,"x_min":190,"x_max":719,"o":"m 699 839 q 659 817 699 817 l 234 817 l 234 456 l 594 456 q 623 451 613 456 q 633 435 633 445 q 623 420 633 426 q 594 414 613 414 l 234 414 l 234 42 l 659 42 q 699 21 699 42 q 659 0 699 0 l 230 0 q 190 40 190 0 l 190 820 q 230 860 190 860 l 659 860 q 699 839 699 860 m 581 987 q 598 956 598 970 q 592 943 598 948 q 578 938 587 938 q 563 943 569 938 q 546 959 556 948 l 450 1058 l 353 958 q 337 943 343 947 q 322 938 331 938 q 308 943 313 938 q 303 957 303 949 q 318 987 303 972 l 408 1078 q 429 1093 419 1089 q 449 1098 439 1098 q 470 1093 460 1098 q 491 1078 480 1089 l 581 987 m 562 1055 q 553 1057 559 1055 q 548 1065 548 1060 q 568 1100 548 1074 l 647 1201 q 664 1219 656 1214 q 688 1224 672 1224 l 699 1224 q 713 1222 707 1224 q 719 1213 719 1219 q 707 1190 719 1202 l 601 1079 q 580 1061 590 1068 q 562 1055 570 1055 z "},"Ệ":{"ha":860,"x_min":190,"x_max":699,"o":"m 699 839 q 659 817 699 817 l 234 817 l 234 456 l 594 456 q 623 451 613 456 q 633 435 633 445 q 623 420 633 426 q 594 414 613 414 l 234 414 l 234 42 l 659 42 q 699 21 699 42 q 659 0 699 0 l 230 0 q 190 40 190 0 l 190 820 q 230 860 190 860 l 659 860 q 699 839 699 860 m 450 -219 q 408 -202 425 -219 q 390 -160 390 -185 q 408 -118 390 -135 q 450 -101 425 -101 q 492 -118 474 -101 q 509 -160 509 -135 q 492 -202 509 -185 q 450 -219 474 -219 m 581 967 q 598 936 598 950 q 592 923 598 928 q 578 918 587 918 q 563 923 569 918 q 546 939 556 928 l 450 1038 l 353 938 q 337 923 343 927 q 322 918 331 918 q 308 923 313 918 q 303 938 303 928 q 307 951 303 944 q 318 967 310 959 l 408 1058 q 429 1073 419 1069 q 449 1078 439 1078 q 470 1073 460 1078 q 491 1058 480 1069 l 581 967 z "},"Ề":{"ha":860,"x_min":190,"x_max":699,"o":"m 699 839 q 659 817 699 817 l 234 817 l 234 456 l 594 456 q 623 451 613 456 q 633 435 633 445 q 623 420 633 426 q 594 414 613 414 l 234 414 l 234 42 l 659 42 q 699 21 699 42 q 659 0 699 0 l 230 0 q 190 40 190 0 l 190 820 q 230 860 190 860 l 659 860 q 699 839 699 860 m 581 987 q 598 956 598 970 q 592 943 598 948 q 578 938 587 938 q 563 943 569 938 q 546 959 556 948 l 450 1058 l 353 958 q 337 943 343 947 q 322 938 331 938 q 308 943 313 938 q 303 957 303 949 q 318 987 303 972 l 408 1078 q 429 1093 419 1089 q 449 1098 439 1098 q 470 1093 460 1098 q 491 1078 480 1089 l 581 987 m 628 1055 q 610 1061 619 1055 q 589 1079 601 1067 l 483 1190 q 470 1213 470 1204 q 477 1222 470 1219 q 491 1224 483 1224 l 502 1224 q 526 1219 517 1224 q 543 1201 534 1214 l 622 1100 q 642 1065 642 1074 q 636 1057 642 1060 q 628 1055 631 1055 z "},"Ể":{"ha":860,"x_min":190,"x_max":735,"o":"m 699 839 q 659 817 699 817 l 234 817 l 234 456 l 594 456 q 623 451 613 456 q 633 435 633 445 q 623 420 633 426 q 594 414 613 414 l 234 414 l 234 42 l 659 42 q 699 21 699 42 q 659 0 699 0 l 230 0 q 190 40 190 0 l 190 820 q 230 860 190 860 l 659 860 q 699 839 699 860 m 581 987 q 598 956 598 970 q 592 943 598 948 q 578 938 587 938 q 563 943 569 938 q 546 959 556 948 l 450 1058 l 353 958 q 337 943 343 947 q 322 938 331 938 q 308 943 313 938 q 303 957 303 949 q 318 987 303 972 l 408 1078 q 429 1093 419 1089 q 449 1098 439 1098 q 470 1093 460 1098 q 491 1078 480 1089 l 581 987 m 583 1068 q 556 1087 556 1068 q 563 1100 556 1096 q 583 1105 570 1105 q 656 1113 622 1105 q 691 1149 691 1120 q 658 1182 691 1176 q 589 1188 626 1188 q 553 1186 570 1188 q 522 1183 536 1185 q 509 1181 515 1182 q 499 1181 502 1181 q 489 1183 494 1181 q 484 1195 484 1186 q 515 1220 484 1213 q 585 1227 545 1227 q 659 1221 626 1227 q 714 1198 693 1215 q 735 1148 735 1181 q 709 1098 735 1115 q 648 1074 683 1081 q 583 1068 613 1068 z "},"Ễ":{"ha":860,"x_min":190,"x_max":699,"o":"m 699 839 q 659 817 699 817 l 234 817 l 234 456 l 594 456 q 623 451 613 456 q 633 435 633 445 q 623 420 633 426 q 594 414 613 414 l 234 414 l 234 42 l 659 42 q 699 21 699 42 q 659 0 699 0 l 230 0 q 190 40 190 0 l 190 820 q 230 860 190 860 l 659 860 q 699 839 699 860 m 581 967 q 598 936 598 950 q 592 923 598 928 q 578 918 587 918 q 563 923 569 918 q 546 939 556 928 l 450 1038 l 353 938 q 337 923 343 927 q 322 918 331 918 q 308 923 313 918 q 303 938 303 928 q 307 951 303 944 q 318 967 310 959 l 408 1058 q 429 1073 419 1069 q 449 1078 439 1078 q 470 1073 460 1078 q 491 1058 480 1069 l 581 967 m 519 1153 q 472 1164 489 1153 q 438 1191 454 1175 q 410 1213 422 1206 q 377 1220 398 1220 q 338 1211 355 1220 q 309 1192 321 1203 q 293 1180 301 1185 q 280 1175 285 1175 q 267 1181 273 1175 q 260 1195 260 1187 q 279 1225 260 1208 q 324 1253 297 1239 q 380 1267 350 1267 q 427 1256 410 1267 q 461 1228 444 1244 q 488 1206 476 1214 q 522 1197 501 1197 q 560 1206 544 1197 q 588 1225 576 1215 q 607 1240 597 1235 q 624 1246 616 1246 q 638 1241 632 1246 q 643 1226 643 1236 q 638 1212 643 1216 q 593 1175 624 1197 q 519 1153 561 1153 z "},"Ȅ":{"ha":860,"x_min":190,"x_max":699,"o":"m 699 839 q 659 817 699 817 l 234 817 l 234 456 l 594 456 q 623 451 613 456 q 633 435 633 445 q 623 420 633 426 q 594 414 613 414 l 234 414 l 234 42 l 659 42 q 699 21 699 42 q 659 0 699 0 l 230 0 q 190 40 190 0 l 190 820 q 230 860 190 860 l 659 860 q 699 839 699 860 m 374 915 q 356 922 365 915 q 335 940 347 928 l 229 1050 q 219 1063 222 1058 q 217 1073 217 1069 q 223 1082 217 1079 q 238 1085 229 1085 l 249 1085 q 272 1080 264 1085 q 290 1063 281 1074 l 368 960 q 388 926 388 934 q 383 918 388 920 q 374 915 378 915 m 559 915 q 541 922 551 915 q 520 940 532 928 l 415 1050 q 402 1073 402 1063 q 408 1082 402 1079 q 422 1085 415 1085 l 433 1085 q 457 1080 449 1085 q 474 1063 465 1074 l 553 960 q 568 939 563 947 q 573 926 573 931 q 568 918 573 920 q 559 915 563 915 z "},"Ë":{"ha":860,"x_min":190,"x_max":699,"o":"m 699 839 q 659 817 699 817 l 234 817 l 234 456 l 594 456 q 623 451 613 456 q 633 435 633 445 q 623 420 633 426 q 594 414 613 414 l 234 414 l 234 42 l 659 42 q 699 21 699 42 q 659 0 699 0 l 230 0 q 190 40 190 0 l 190 820 q 230 860 190 860 l 659 860 q 699 839 699 860 m 322 957 q 281 974 298 957 q 263 1017 263 992 q 281 1059 263 1041 q 322 1076 298 1076 q 365 1059 347 1076 q 382 1017 382 1041 q 365 974 382 992 q 322 957 347 957 m 578 957 q 535 974 553 957 q 518 1017 518 992 q 535 1059 518 1041 q 578 1076 553 1076 q 620 1059 602 1076 q 638 1017 638 1041 q 620 974 638 992 q 578 957 602 957 z "},"Ė":{"ha":860,"x_min":190,"x_max":699,"o":"m 699 839 q 659 817 699 817 l 234 817 l 234 456 l 594 456 q 623 451 613 456 q 633 435 633 445 q 623 420 633 426 q 594 414 613 414 l 234 414 l 234 42 l 659 42 q 699 21 699 42 q 659 0 699 0 l 230 0 q 190 40 190 0 l 190 820 q 230 860 190 860 l 659 860 q 699 839 699 860 m 450 965 q 408 982 425 965 q 390 1024 390 999 q 408 1066 390 1049 q 450 1083 425 1083 q 492 1066 474 1083 q 509 1024 509 1049 q 492 982 509 999 q 450 965 474 965 z "},"Ẹ":{"ha":860,"x_min":190,"x_max":699,"o":"m 699 839 q 659 817 699 817 l 234 817 l 234 456 l 594 456 q 623 451 613 456 q 633 435 633 445 q 623 420 633 426 q 594 414 613 414 l 234 414 l 234 42 l 659 42 q 699 21 699 42 q 659 0 699 0 l 230 0 q 190 40 190 0 l 190 820 q 230 860 190 860 l 659 860 q 699 839 699 860 m 450 -219 q 408 -202 425 -219 q 390 -160 390 -185 q 408 -118 390 -135 q 450 -101 425 -101 q 492 -118 474 -101 q 509 -160 509 -135 q 492 -202 509 -185 q 450 -219 474 -219 z "},"È":{"ha":860,"x_min":190,"x_max":699,"o":"m 699 839 q 659 817 699 817 l 234 817 l 234 456 l 594 456 q 623 451 613 456 q 633 435 633 445 q 623 420 633 426 q 594 414 613 414 l 234 414 l 234 42 l 659 42 q 699 21 699 42 q 659 0 699 0 l 230 0 q 190 40 190 0 l 190 820 q 230 860 190 860 l 659 860 q 699 839 699 860 m 482 922 q 464 928 474 922 q 443 947 454 935 l 337 1057 q 324 1079 324 1070 q 331 1089 324 1086 q 345 1091 337 1091 l 356 1091 q 380 1086 372 1091 q 397 1069 388 1081 l 476 967 q 496 933 496 941 q 491 924 496 926 q 482 922 485 922 z "},"Ẻ":{"ha":860,"x_min":190,"x_max":699,"o":"m 699 839 q 659 817 699 817 l 234 817 l 234 456 l 594 456 q 623 451 613 456 q 633 435 633 445 q 623 420 633 426 q 594 414 613 414 l 234 414 l 234 42 l 659 42 q 699 21 699 42 q 659 0 699 0 l 230 0 q 190 40 190 0 l 190 820 q 230 860 190 860 l 659 860 q 699 839 699 860 m 423 922 q 403 927 410 922 q 396 941 396 932 q 403 955 396 950 q 423 959 410 959 q 497 967 462 959 q 531 1003 531 974 q 499 1036 531 1031 q 429 1042 466 1042 q 393 1041 410 1042 q 363 1038 376 1040 q 350 1036 356 1037 q 340 1035 344 1035 q 328 1039 332 1035 q 324 1049 324 1043 q 355 1075 324 1067 q 426 1082 385 1082 q 500 1076 466 1082 q 554 1052 533 1069 q 575 1002 575 1035 q 549 952 575 969 q 488 928 524 935 q 423 922 453 922 z "},"Ȇ":{"ha":860,"x_min":190,"x_max":699,"o":"m 699 839 q 659 817 699 817 l 234 817 l 234 456 l 594 456 q 623 451 613 456 q 633 435 633 445 q 623 420 633 426 q 594 414 613 414 l 234 414 l 234 42 l 659 42 q 699 21 699 42 q 659 0 699 0 l 230 0 q 190 40 190 0 l 190 820 q 230 860 190 860 l 659 860 q 699 839 699 860 m 567 928 q 550 938 556 928 q 540 965 544 947 q 515 1024 535 996 q 450 1052 495 1052 q 385 1024 406 1052 q 359 965 365 996 q 350 937 356 947 q 332 928 344 928 q 317 935 323 928 q 311 956 311 942 q 311 963 311 960 q 312 969 311 967 q 356 1055 322 1019 q 449 1092 390 1092 q 542 1055 507 1092 q 588 969 577 1019 q 589 963 588 967 q 589 956 589 960 q 583 935 589 942 q 567 928 577 928 z "},"Ē":{"ha":860,"x_min":190,"x_max":699,"o":"m 699 839 q 659 817 699 817 l 234 817 l 234 456 l 594 456 q 623 451 613 456 q 633 435 633 445 q 623 420 633 426 q 594 414 613 414 l 234 414 l 234 42 l 659 42 q 699 21 699 42 q 659 0 699 0 l 230 0 q 190 40 190 0 l 190 820 q 230 860 190 860 l 659 860 q 699 839 699 860 m 226 985 q 236 1001 226 996 q 265 1007 246 1007 l 635 1007 q 664 1001 654 1007 q 674 985 674 996 q 664 969 674 975 q 635 964 654 964 l 265 964 q 236 969 246 964 q 226 985 226 975 z "},"Ę":{"ha":860,"x_min":190,"x_max":743,"o":"m 699 839 q 659 817 699 817 l 234 817 l 234 456 l 594 456 q 623 451 613 456 q 633 435 633 445 q 623 420 633 426 q 594 414 613 414 l 234 414 l 234 42 l 659 42 q 699 21 699 42 q 659 0 699 0 l 230 0 q 190 40 190 0 l 190 820 q 230 860 190 860 l 659 860 q 699 839 699 860 m 665 -305 q 597 -292 628 -305 q 546 -253 565 -279 q 526 -186 526 -226 q 539 -124 526 -157 q 570 -64 551 -92 q 608 -18 589 -35 q 642 0 628 0 l 665 0 q 628 -42 649 -11 q 591 -112 607 -73 q 576 -187 576 -151 q 602 -245 576 -228 q 660 -262 628 -262 q 680 -261 670 -262 q 699 -259 690 -260 q 708 -257 703 -258 q 716 -257 713 -257 q 736 -262 728 -257 q 743 -276 743 -268 q 716 -299 743 -294 q 665 -305 690 -305 z "},"Ẽ":{"ha":860,"x_min":190,"x_max":699,"o":"m 699 839 q 659 817 699 817 l 234 817 l 234 456 l 594 456 q 623 451 613 456 q 633 435 633 445 q 623 420 633 426 q 594 414 613 414 l 234 414 l 234 42 l 659 42 q 699 21 699 42 q 659 0 699 0 l 230 0 q 190 40 190 0 l 190 820 q 230 860 190 860 l 659 860 q 699 839 699 860 m 519 935 q 472 946 489 935 q 438 973 454 957 q 410 995 422 988 q 377 1002 398 1002 q 338 993 355 1002 q 309 974 321 985 q 293 962 301 967 q 280 957 285 957 q 267 963 273 957 q 260 977 260 969 q 279 1007 260 990 q 324 1035 297 1021 q 380 1049 350 1049 q 427 1038 410 1049 q 461 1010 444 1026 q 488 988 476 996 q 522 979 501 979 q 560 988 544 979 q 588 1007 576 997 q 607 1022 597 1017 q 624 1028 616 1028 q 638 1023 632 1028 q 643 1008 643 1018 q 638 994 643 998 q 593 957 624 979 q 519 935 561 935 z "},"Ə":{"ha":860,"x_min":122,"x_max":721,"o":"m 417 -15 q 265 34 331 -15 q 163 174 199 82 q 126 397 126 266 q 166 436 126 436 l 689 436 l 689 392 l 154 392 l 174 409 q 240 122 174 215 q 420 29 306 29 q 540 68 482 29 q 636 192 599 106 q 674 419 674 278 q 638 647 674 558 q 544 780 602 736 q 419 823 485 823 q 304 796 353 823 q 223 732 256 769 q 175 667 191 695 q 159 648 168 655 q 141 641 149 641 q 127 646 132 641 q 122 660 122 651 q 126 677 122 667 q 135 697 130 688 q 193 768 155 728 q 288 838 231 808 q 419 867 344 867 q 565 820 497 867 q 677 674 634 773 q 721 419 721 576 q 694 216 721 299 q 623 83 667 133 q 525 9 578 32 q 417 -15 471 -15 z "},"F":{"ha":860,"x_min":219,"x_max":728,"o":"m 728 839 q 718 823 728 829 q 688 817 708 817 l 263 817 l 263 403 l 622 403 q 661 382 661 403 q 622 361 661 361 l 263 361 l 263 33 q 242 -7 263 -7 q 219 33 219 -7 l 219 820 q 259 860 219 860 l 688 860 q 718 855 708 860 q 728 839 728 849 z "},"G":{"ha":860,"x_min":106,"x_max":753,"o":"m 453 -15 q 328 10 390 -15 q 216 89 267 35 q 136 226 166 142 q 106 427 106 310 q 137 629 106 545 q 220 765 168 713 q 334 843 272 818 q 460 868 397 868 q 596 842 544 868 q 681 777 647 816 q 692 761 688 768 q 695 747 695 753 q 689 732 695 738 q 675 727 682 727 q 659 733 667 727 q 640 751 650 740 q 571 805 613 785 q 460 824 530 824 q 313 782 383 824 q 198 652 242 740 q 153 427 153 565 q 198 201 153 290 q 311 71 242 113 q 453 29 380 29 q 583 62 526 29 q 673 167 640 94 q 708 361 706 240 l 479 361 q 451 366 460 361 q 442 382 442 372 q 451 398 442 392 q 479 403 460 403 l 714 403 q 743 393 733 403 q 753 364 753 383 q 714 148 753 231 q 606 25 674 64 q 453 -15 538 -15 z "},"Ğ":{"ha":860,"x_min":106,"x_max":753,"o":"m 453 -15 q 328 10 390 -15 q 216 89 267 35 q 136 226 166 142 q 106 427 106 310 q 137 629 106 545 q 220 765 168 713 q 334 843 272 818 q 460 868 397 868 q 596 842 544 868 q 681 777 647 816 q 692 761 688 768 q 695 747 695 753 q 689 732 695 738 q 675 727 682 727 q 659 733 667 727 q 640 751 650 740 q 571 805 613 785 q 460 824 530 824 q 313 782 383 824 q 198 652 242 740 q 153 427 153 565 q 198 201 153 290 q 311 71 242 113 q 453 29 380 29 q 583 62 526 29 q 673 167 640 94 q 708 361 706 240 l 479 361 q 451 366 460 361 q 442 382 442 372 q 451 398 442 392 q 479 403 460 403 l 714 403 q 743 393 733 403 q 753 364 753 383 q 714 148 753 231 q 606 25 674 64 q 453 -15 538 -15 m 561 1131 q 577 1124 571 1131 q 583 1103 583 1117 q 582 1097 583 1100 q 581 1090 582 1093 q 536 1004 571 1040 q 442 967 501 967 q 349 1004 383 967 q 306 1090 315 1040 q 305 1097 305 1093 q 305 1103 305 1100 q 311 1124 305 1117 q 326 1131 317 1131 q 343 1122 338 1131 q 353 1094 349 1113 q 379 1035 358 1063 q 444 1007 399 1007 q 509 1035 489 1007 q 534 1094 528 1063 q 543 1122 538 1112 q 561 1131 549 1131 z "},"Ǧ":{"ha":860,"x_min":106,"x_max":753,"o":"m 453 -15 q 328 10 390 -15 q 216 89 267 35 q 136 226 166 142 q 106 427 106 310 q 137 629 106 545 q 220 765 168 713 q 334 843 272 818 q 460 868 397 868 q 596 842 544 868 q 681 777 647 816 q 692 761 688 768 q 695 747 695 753 q 689 732 695 738 q 675 727 682 727 q 659 733 667 727 q 640 751 650 740 q 571 805 613 785 q 460 824 530 824 q 313 782 383 824 q 198 652 242 740 q 153 427 153 565 q 198 201 153 290 q 311 71 242 113 q 453 29 380 29 q 583 62 526 29 q 673 167 640 94 q 708 361 706 240 l 479 361 q 451 366 460 361 q 442 382 442 372 q 451 398 442 392 q 479 403 460 403 l 714 403 q 743 393 733 403 q 753 364 753 383 q 714 148 753 231 q 606 25 674 64 q 453 -15 538 -15 m 575 1023 l 484 933 q 464 917 473 922 q 443 912 454 912 q 423 917 432 912 q 402 933 413 922 l 312 1023 q 297 1053 297 1038 q 302 1067 297 1061 q 315 1072 307 1072 q 331 1067 324 1072 q 347 1051 337 1063 l 444 951 l 539 1051 q 556 1067 549 1062 q 572 1072 563 1072 q 586 1067 581 1072 q 591 1054 591 1062 q 587 1040 591 1048 q 575 1023 583 1032 z "},"Ĝ":{"ha":860,"x_min":106,"x_max":753,"o":"m 453 -15 q 328 10 390 -15 q 216 89 267 35 q 136 226 166 142 q 106 427 106 310 q 137 629 106 545 q 220 765 168 713 q 334 843 272 818 q 460 868 397 868 q 596 842 544 868 q 681 777 647 816 q 692 761 688 768 q 695 747 695 753 q 689 732 695 738 q 675 727 682 727 q 659 733 667 727 q 640 751 650 740 q 571 805 613 785 q 460 824 530 824 q 313 782 383 824 q 198 652 242 740 q 153 427 153 565 q 198 201 153 290 q 311 71 242 113 q 453 29 380 29 q 583 62 526 29 q 673 167 640 94 q 708 361 706 240 l 479 361 q 451 366 460 361 q 442 382 442 372 q 451 398 442 392 q 479 403 460 403 l 714 403 q 743 393 733 403 q 753 364 753 383 q 714 148 753 231 q 606 25 674 64 q 453 -15 538 -15 m 575 967 q 592 936 592 950 q 586 923 592 928 q 572 918 581 918 q 556 923 563 918 q 540 939 550 928 l 444 1038 l 347 938 q 331 923 337 927 q 315 918 325 918 q 302 923 307 918 q 297 938 297 928 q 301 951 297 944 q 312 967 304 959 l 402 1058 q 423 1073 413 1069 q 443 1078 433 1078 q 464 1073 454 1078 q 485 1058 474 1069 l 575 967 z "},"Ģ":{"ha":860,"x_min":106,"x_max":753,"o":"m 453 -15 q 328 10 390 -15 q 216 89 267 35 q 136 226 166 142 q 106 427 106 310 q 137 629 106 545 q 220 765 168 713 q 334 843 272 818 q 460 868 397 868 q 596 842 544 868 q 681 777 647 816 q 692 761 688 768 q 695 747 695 753 q 689 732 695 738 q 675 727 682 727 q 659 733 667 727 q 640 751 650 740 q 571 805 613 785 q 460 824 530 824 q 313 782 383 824 q 198 652 242 740 q 153 427 153 565 q 198 201 153 290 q 311 71 242 113 q 453 29 380 29 q 583 62 526 29 q 673 167 640 94 q 708 361 706 240 l 479 361 q 451 366 460 361 q 442 382 442 372 q 451 398 442 392 q 479 403 460 403 l 714 403 q 743 393 733 403 q 753 364 753 383 q 714 148 753 231 q 606 25 674 64 q 453 -15 538 -15 m 453 -83 q 492 -98 476 -83 q 508 -139 508 -112 q 497 -202 508 -165 q 446 -271 485 -240 q 434 -278 440 -276 q 424 -281 429 -281 q 417 -277 419 -281 q 414 -271 414 -273 q 418 -260 414 -266 q 431 -249 423 -255 q 453 -225 445 -240 q 465 -194 462 -210 q 459 -194 463 -194 q 453 -194 456 -194 q 414 -178 430 -194 q 397 -139 397 -162 q 414 -99 397 -116 q 453 -83 430 -83 z "},"Ġ":{"ha":860,"x_min":106,"x_max":753,"o":"m 453 -15 q 328 10 390 -15 q 216 89 267 35 q 136 226 166 142 q 106 427 106 310 q 137 629 106 545 q 220 765 168 713 q 334 843 272 818 q 460 868 397 868 q 596 842 544 868 q 681 777 647 816 q 692 761 688 768 q 695 747 695 753 q 689 732 695 738 q 675 727 682 727 q 659 733 667 727 q 640 751 650 740 q 571 805 613 785 q 460 824 530 824 q 313 782 383 824 q 198 652 242 740 q 153 427 153 565 q 198 201 153 290 q 311 71 242 113 q 453 29 380 29 q 583 62 526 29 q 673 167 640 94 q 708 361 706 240 l 479 361 q 451 366 460 361 q 442 382 442 372 q 451 398 442 392 q 479 403 460 403 l 714 403 q 743 393 733 403 q 753 364 753 383 q 714 148 753 231 q 606 25 674 64 q 453 -15 538 -15 m 444 999 q 402 1016 419 999 q 384 1058 384 1033 q 402 1101 384 1083 q 444 1118 419 1118 q 486 1101 469 1118 q 503 1058 503 1083 q 486 1016 503 1033 q 444 999 469 999 z "},"H":{"ha":860,"x_min":144,"x_max":713,"o":"m 669 826 q 691 867 669 867 q 713 826 713 867 l 713 33 q 691 -7 713 -7 q 669 33 669 -7 l 669 427 l 188 427 l 188 33 q 166 -7 188 -7 q 144 33 144 -7 l 144 826 q 150 857 144 847 q 166 867 156 867 q 188 826 188 867 l 188 469 l 669 469 l 669 826 z "},"Ħ":{"ha":860,"x_min":86,"x_max":766,"o":"m 86 690 q 97 706 86 700 q 126 712 107 712 l 726 712 q 756 706 746 712 q 766 690 766 700 q 756 675 766 681 q 726 669 746 669 l 126 669 q 97 675 107 669 q 86 690 86 680 m 669 826 q 691 867 669 867 q 713 826 713 867 l 713 33 q 691 -7 713 -7 q 669 33 669 -7 l 669 427 l 188 427 l 188 33 q 166 -7 188 -7 q 144 33 144 -7 l 144 826 q 150 857 144 847 q 166 867 156 867 q 188 826 188 867 l 188 469 l 669 469 l 669 826 z "},"Ĥ":{"ha":860,"x_min":144,"x_max":713,"o":"m 669 826 q 691 867 669 867 q 713 826 713 867 l 713 33 q 691 -7 713 -7 q 669 33 669 -7 l 669 427 l 188 427 l 188 33 q 166 -7 188 -7 q 144 33 144 -7 l 144 826 q 150 857 144 847 q 166 867 156 867 q 188 826 188 867 l 188 469 l 669 469 l 669 826 m 558 967 q 574 936 574 950 q 569 923 574 928 q 554 918 563 918 q 539 923 545 918 q 522 939 533 928 l 426 1038 l 330 938 q 314 923 319 927 q 298 918 308 918 q 285 923 290 918 q 280 938 280 928 q 283 951 280 944 q 294 967 287 959 l 385 1058 q 406 1073 396 1069 q 426 1078 415 1078 q 447 1073 437 1078 q 467 1058 456 1069 l 558 967 z "},"I":{"ha":860,"x_min":168,"x_max":678,"o":"m 205 0 q 177 6 185 0 q 168 21 168 11 q 177 37 168 31 q 205 42 185 42 l 405 42 l 405 817 l 205 817 q 177 823 185 817 q 168 839 168 829 q 177 854 168 849 q 205 860 185 860 l 642 860 q 670 854 661 860 q 678 839 678 849 q 670 823 678 829 q 642 817 661 817 l 449 817 l 449 42 l 642 42 q 670 37 661 42 q 678 21 678 31 q 670 6 678 11 q 642 0 661 0 l 205 0 z "},"Í":{"ha":860,"x_min":168,"x_max":678,"o":"m 205 0 q 177 6 185 0 q 168 21 168 11 q 177 37 168 31 q 205 42 185 42 l 405 42 l 405 817 l 205 817 q 177 823 185 817 q 168 839 168 829 q 177 854 168 849 q 205 860 185 860 l 642 860 q 670 854 661 860 q 678 839 678 849 q 670 823 678 829 q 642 817 661 817 l 449 817 l 449 42 l 642 42 q 670 37 661 42 q 678 21 678 31 q 670 6 678 11 q 642 0 661 0 l 205 0 m 394 924 q 385 927 391 924 q 380 935 380 929 q 400 969 380 943 l 478 1072 q 496 1089 488 1084 q 519 1094 504 1094 l 531 1094 q 545 1091 539 1094 q 551 1082 551 1088 q 539 1060 551 1073 l 433 949 q 412 931 422 938 q 394 924 402 924 z "},"Ĭ":{"ha":860,"x_min":168,"x_max":678,"o":"m 205 0 q 177 6 185 0 q 168 21 168 11 q 177 37 168 31 q 205 42 185 42 l 405 42 l 405 817 l 205 817 q 177 823 185 817 q 168 839 168 829 q 177 854 168 849 q 205 860 185 860 l 642 860 q 670 854 661 860 q 678 839 678 849 q 670 823 678 829 q 642 817 661 817 l 449 817 l 449 42 l 642 42 q 670 37 661 42 q 678 21 678 31 q 670 6 678 11 q 642 0 661 0 l 205 0 m 544 1092 q 559 1084 553 1092 q 565 1063 565 1077 q 565 1057 565 1060 q 564 1050 565 1053 q 518 964 553 1001 q 425 928 483 928 q 332 964 366 928 q 288 1050 298 1001 q 288 1057 288 1053 q 288 1063 288 1060 q 293 1084 288 1077 q 308 1092 299 1092 q 326 1082 320 1092 q 335 1055 332 1073 q 361 996 341 1024 q 426 967 382 967 q 491 996 472 967 q 517 1054 511 1024 q 526 1082 520 1072 q 544 1092 532 1092 z "},"Ǐ":{"ha":860,"x_min":168,"x_max":678,"o":"m 205 0 q 177 6 185 0 q 168 21 168 11 q 177 37 168 31 q 205 42 185 42 l 405 42 l 405 817 l 205 817 q 177 823 185 817 q 168 839 168 829 q 177 854 168 849 q 205 860 185 860 l 642 860 q 670 854 661 860 q 678 839 678 849 q 670 823 678 829 q 642 817 661 817 l 449 817 l 449 42 l 642 42 q 670 37 661 42 q 678 21 678 31 q 670 6 678 11 q 642 0 661 0 l 205 0 m 558 1023 l 467 933 q 446 917 456 922 q 426 912 437 912 q 405 917 415 912 q 385 933 396 922 l 294 1023 q 280 1053 280 1038 q 285 1067 280 1061 q 297 1072 290 1072 q 313 1067 307 1072 q 330 1051 319 1063 l 426 951 l 522 1051 q 539 1067 532 1062 q 554 1072 545 1072 q 568 1067 563 1072 q 574 1054 574 1062 q 570 1040 574 1048 q 558 1023 566 1032 z "},"Î":{"ha":860,"x_min":168,"x_max":678,"o":"m 205 0 q 177 6 185 0 q 168 21 168 11 q 177 37 168 31 q 205 42 185 42 l 405 42 l 405 817 l 205 817 q 177 823 185 817 q 168 839 168 829 q 177 854 168 849 q 205 860 185 860 l 642 860 q 670 854 661 860 q 678 839 678 849 q 670 823 678 829 q 642 817 661 817 l 449 817 l 449 42 l 642 42 q 670 37 661 42 q 678 21 678 31 q 670 6 678 11 q 642 0 661 0 l 205 0 m 558 967 q 574 936 574 950 q 569 923 574 928 q 554 918 563 918 q 539 923 545 918 q 522 939 533 928 l 426 1038 l 330 938 q 314 923 319 927 q 298 918 308 918 q 285 923 290 918 q 280 938 280 928 q 283 951 280 944 q 294 967 287 959 l 385 1058 q 406 1073 396 1069 q 426 1078 415 1078 q 447 1073 437 1078 q 467 1058 456 1069 l 558 967 z "},"Ȉ":{"ha":860,"x_min":168,"x_max":678,"o":"m 205 0 q 177 6 185 0 q 168 21 168 11 q 177 37 168 31 q 205 42 185 42 l 405 42 l 405 817 l 205 817 q 177 823 185 817 q 168 839 168 829 q 177 854 168 849 q 205 860 185 860 l 642 860 q 670 854 661 860 q 678 839 678 849 q 670 823 678 829 q 642 817 661 817 l 449 817 l 449 42 l 642 42 q 670 37 661 42 q 678 21 678 31 q 670 6 678 11 q 642 0 661 0 l 205 0 m 351 915 q 332 922 342 915 q 311 940 323 928 l 206 1050 q 196 1063 199 1058 q 193 1073 193 1069 q 199 1082 193 1079 q 214 1085 206 1085 l 225 1085 q 249 1080 240 1085 q 266 1063 257 1074 l 344 960 q 365 926 365 934 q 359 918 365 920 q 351 915 354 915 m 535 915 q 518 922 527 915 q 497 940 508 928 l 391 1050 q 378 1073 378 1063 q 385 1082 378 1079 q 399 1085 391 1085 l 410 1085 q 434 1080 426 1085 q 451 1063 442 1074 l 530 960 q 544 939 540 947 q 549 926 549 931 q 544 918 549 920 q 535 915 539 915 z "},"Ï":{"ha":860,"x_min":168,"x_max":678,"o":"m 205 0 q 177 6 185 0 q 168 21 168 11 q 177 37 168 31 q 205 42 185 42 l 405 42 l 405 817 l 205 817 q 177 823 185 817 q 168 839 168 829 q 177 854 168 849 q 205 860 185 860 l 642 860 q 670 854 661 860 q 678 839 678 849 q 670 823 678 829 q 642 817 661 817 l 449 817 l 449 42 l 642 42 q 670 37 661 42 q 678 21 678 31 q 670 6 678 11 q 642 0 661 0 l 205 0 m 299 957 q 257 974 274 957 q 240 1017 240 992 q 257 1059 240 1041 q 299 1076 274 1076 q 341 1059 324 1076 q 358 1017 358 1041 q 341 974 358 992 q 299 957 324 957 m 554 957 q 512 974 529 957 q 494 1017 494 992 q 512 1059 494 1041 q 554 1076 529 1076 q 596 1059 578 1076 q 614 1017 614 1041 q 596 974 614 992 q 554 957 578 957 z "},"İ":{"ha":860,"x_min":168,"x_max":678,"o":"m 205 0 q 177 6 185 0 q 168 21 168 11 q 177 37 168 31 q 205 42 185 42 l 405 42 l 405 817 l 205 817 q 177 823 185 817 q 168 839 168 829 q 177 854 168 849 q 205 860 185 860 l 642 860 q 670 854 661 860 q 678 839 678 849 q 670 823 678 829 q 642 817 661 817 l 449 817 l 449 42 l 642 42 q 670 37 661 42 q 678 21 678 31 q 670 6 678 11 q 642 0 661 0 l 205 0 m 426 965 q 384 982 401 965 q 367 1024 367 999 q 384 1066 367 1049 q 426 1083 401 1083 q 468 1066 451 1083 q 485 1024 485 1049 q 468 982 485 999 q 426 965 451 965 z "},"Ị":{"ha":860,"x_min":168,"x_max":678,"o":"m 205 0 q 177 6 185 0 q 168 21 168 11 q 177 37 168 31 q 205 42 185 42 l 405 42 l 405 817 l 205 817 q 177 823 185 817 q 168 839 168 829 q 177 854 168 849 q 205 860 185 860 l 642 860 q 670 854 661 860 q 678 839 678 849 q 670 823 678 829 q 642 817 661 817 l 449 817 l 449 42 l 642 42 q 670 37 661 42 q 678 21 678 31 q 670 6 678 11 q 642 0 661 0 l 205 0 m 428 -219 q 386 -202 403 -219 q 369 -160 369 -185 q 386 -118 369 -135 q 428 -101 403 -101 q 470 -118 453 -101 q 488 -160 488 -135 q 470 -202 488 -185 q 428 -219 453 -219 z "},"Ì":{"ha":860,"x_min":168,"x_max":678,"o":"m 205 0 q 177 6 185 0 q 168 21 168 11 q 177 37 168 31 q 205 42 185 42 l 405 42 l 405 817 l 205 817 q 177 823 185 817 q 168 839 168 829 q 177 854 168 849 q 205 860 185 860 l 642 860 q 670 854 661 860 q 678 839 678 849 q 670 823 678 829 q 642 817 661 817 l 449 817 l 449 42 l 642 42 q 670 37 661 42 q 678 21 678 31 q 670 6 678 11 q 642 0 661 0 l 205 0 m 458 922 q 440 928 450 922 q 419 947 431 935 l 313 1057 q 301 1079 301 1070 q 307 1089 301 1086 q 322 1091 313 1091 l 333 1091 q 356 1086 348 1091 q 374 1069 365 1081 l 452 967 q 472 933 472 941 q 467 924 472 926 q 458 922 462 922 z "},"Ỉ":{"ha":860,"x_min":168,"x_max":678,"o":"m 205 0 q 177 6 185 0 q 168 21 168 11 q 177 37 168 31 q 205 42 185 42 l 405 42 l 405 817 l 205 817 q 177 823 185 817 q 168 839 168 829 q 177 854 168 849 q 205 860 185 860 l 642 860 q 670 854 661 860 q 678 839 678 849 q 670 823 678 829 q 642 817 661 817 l 449 817 l 449 42 l 642 42 q 670 37 661 42 q 678 21 678 31 q 670 6 678 11 q 642 0 661 0 l 205 0 m 399 922 q 380 927 387 922 q 372 941 372 932 q 380 955 372 950 q 399 959 387 959 q 473 967 438 959 q 508 1003 508 974 q 475 1036 508 1031 q 406 1042 442 1042 q 370 1041 387 1042 q 339 1038 353 1040 q 326 1036 332 1037 q 317 1035 320 1035 q 305 1039 308 1035 q 301 1049 301 1043 q 331 1075 301 1067 q 402 1082 362 1082 q 476 1076 442 1082 q 531 1052 510 1069 q 551 1002 551 1035 q 526 952 551 969 q 465 928 500 935 q 399 922 429 922 z "},"Ȋ":{"ha":860,"x_min":168,"x_max":678,"o":"m 205 0 q 177 6 185 0 q 168 21 168 11 q 177 37 168 31 q 205 42 185 42 l 405 42 l 405 817 l 205 817 q 177 823 185 817 q 168 839 168 829 q 177 854 168 849 q 205 860 185 860 l 642 860 q 670 854 661 860 q 678 839 678 849 q 670 823 678 829 q 642 817 661 817 l 449 817 l 449 42 l 642 42 q 670 37 661 42 q 678 21 678 31 q 670 6 678 11 q 642 0 661 0 l 205 0 m 544 928 q 526 938 532 928 q 517 965 520 947 q 491 1024 511 996 q 426 1052 472 1052 q 361 1024 382 1052 q 335 965 341 996 q 326 937 332 947 q 308 928 320 928 q 293 935 299 928 q 288 956 288 942 q 288 963 288 960 q 288 969 288 967 q 332 1055 298 1019 q 425 1092 366 1092 q 518 1055 483 1092 q 564 969 553 1019 q 565 963 565 967 q 565 956 565 960 q 559 935 565 942 q 544 928 553 928 z "},"Ī":{"ha":860,"x_min":168,"x_max":678,"o":"m 205 0 q 177 6 185 0 q 168 21 168 11 q 177 37 168 31 q 205 42 185 42 l 405 42 l 405 817 l 205 817 q 177 823 185 817 q 168 839 168 829 q 177 854 168 849 q 205 860 185 860 l 642 860 q 670 854 661 860 q 678 839 678 849 q 670 823 678 829 q 642 817 661 817 l 449 817 l 449 42 l 642 42 q 670 37 661 42 q 678 21 678 31 q 670 6 678 11 q 642 0 661 0 l 205 0 m 202 985 q 212 1001 202 996 q 242 1007 222 1007 l 611 1007 q 641 1001 631 1007 q 651 985 651 996 q 641 969 651 975 q 611 964 631 964 l 242 964 q 212 969 222 964 q 202 985 202 975 z "},"Į":{"ha":860,"x_min":168,"x_max":699,"o":"m 205 0 q 177 6 185 0 q 168 21 168 11 q 177 37 168 31 q 205 42 185 42 l 405 42 l 405 817 l 205 817 q 177 823 185 817 q 168 839 168 829 q 177 854 168 849 q 205 860 185 860 l 642 860 q 670 854 661 860 q 678 839 678 849 q 670 823 678 829 q 642 817 661 817 l 449 817 l 449 42 l 642 42 q 670 37 661 42 q 678 21 678 31 q 670 6 678 11 q 642 0 661 0 l 205 0 m 622 -305 q 553 -292 585 -305 q 502 -253 522 -279 q 483 -186 483 -226 q 495 -124 483 -157 q 526 -64 508 -92 q 565 -18 545 -35 q 598 0 584 0 l 622 0 q 584 -42 605 -11 q 548 -112 563 -73 q 532 -187 532 -151 q 558 -245 532 -228 q 617 -262 584 -262 q 636 -261 626 -262 q 655 -259 646 -260 q 664 -257 660 -258 q 672 -257 669 -257 q 692 -262 685 -257 q 699 -276 699 -268 q 673 -299 699 -294 q 622 -305 646 -305 z "},"Ĩ":{"ha":860,"x_min":168,"x_max":678,"o":"m 205 0 q 177 6 185 0 q 168 21 168 11 q 177 37 168 31 q 205 42 185 42 l 405 42 l 405 817 l 205 817 q 177 823 185 817 q 168 839 168 829 q 177 854 168 849 q 205 860 185 860 l 642 860 q 670 854 661 860 q 678 839 678 849 q 670 823 678 829 q 642 817 661 817 l 449 817 l 449 42 l 642 42 q 670 37 661 42 q 678 21 678 31 q 670 6 678 11 q 642 0 661 0 l 205 0 m 496 935 q 448 946 465 935 q 414 973 431 957 q 386 995 399 988 q 353 1002 374 1002 q 314 993 331 1002 q 285 974 297 985 q 269 962 277 967 q 256 957 262 957 q 243 963 249 957 q 237 977 237 969 q 256 1007 237 990 q 300 1035 274 1021 q 356 1049 326 1049 q 403 1038 387 1049 q 438 1010 420 1026 q 465 988 452 996 q 498 979 477 979 q 536 988 520 979 q 564 1007 553 997 q 583 1022 574 1017 q 601 1028 592 1028 q 614 1023 608 1028 q 619 1008 619 1018 q 614 994 619 998 q 569 957 601 979 q 496 935 538 935 z "},"J":{"ha":860,"x_min":53,"x_max":619,"o":"m 337 -15 q 194 19 258 -15 q 91 123 129 53 q 53 304 53 194 q 59 335 53 324 q 74 345 64 345 q 91 335 85 345 q 97 306 97 325 q 127 154 97 216 q 211 61 157 92 q 337 29 265 29 q 468 66 415 29 q 549 173 522 102 q 576 345 576 243 l 576 820 q 598 860 576 860 q 619 820 619 860 l 619 342 q 584 140 619 219 q 484 23 548 61 q 337 -15 421 -15 z "},"Ĵ":{"ha":860,"x_min":53,"x_max":752,"o":"m 337 -15 q 194 19 258 -15 q 91 123 129 53 q 53 304 53 194 q 59 335 53 324 q 74 345 64 345 q 91 335 85 345 q 97 306 97 325 q 127 154 97 216 q 211 61 157 92 q 337 29 265 29 q 468 66 415 29 q 549 173 522 102 q 576 345 576 243 l 576 820 q 598 860 576 860 q 619 820 619 860 l 619 342 q 584 140 619 219 q 484 23 548 61 q 337 -15 421 -15 m 735 967 q 752 936 752 950 q 747 923 752 928 q 732 918 741 918 q 717 923 723 918 q 700 939 710 928 l 604 1038 l 508 938 q 491 923 497 927 q 476 918 485 918 q 463 923 467 918 q 458 938 458 928 q 461 951 458 944 q 472 967 465 959 l 563 1058 q 583 1073 574 1069 q 603 1078 593 1078 q 624 1073 615 1078 q 645 1058 634 1069 l 735 967 z "},"K":{"ha":860,"x_min":209,"x_max":691,"o":"m 231 -13 q 209 23 209 -13 l 209 830 q 215 858 209 849 q 231 867 220 867 q 253 830 253 867 l 253 445 l 638 846 q 656 862 649 857 q 672 867 663 867 q 686 861 682 867 q 690 850 690 856 q 688 841 690 845 q 683 832 686 836 l 324 456 q 304 435 313 444 q 290 422 295 426 q 304 410 295 419 q 324 391 313 402 l 683 22 q 689 12 687 17 q 691 3 691 7 q 686 -8 691 -3 q 669 -13 681 -13 q 655 -9 661 -13 q 638 7 648 -4 l 253 403 l 253 23 q 231 -13 253 -13 z "},"Ķ":{"ha":860,"x_min":209,"x_max":691,"o":"m 231 -13 q 209 23 209 -13 l 209 830 q 215 858 209 849 q 231 867 220 867 q 253 830 253 867 l 253 445 l 638 846 q 656 862 649 857 q 672 867 663 867 q 686 861 682 867 q 690 850 690 856 q 688 841 690 845 q 683 832 686 836 l 324 456 q 304 435 313 444 q 290 422 295 426 q 304 410 295 419 q 324 391 313 402 l 683 22 q 689 12 687 17 q 691 3 691 7 q 686 -8 691 -3 q 669 -13 681 -13 q 655 -9 661 -13 q 638 7 648 -4 l 253 403 l 253 23 q 231 -13 253 -13 m 431 -68 q 469 -83 453 -68 q 485 -124 485 -98 q 474 -188 485 -150 q 423 -256 462 -226 q 411 -264 417 -261 q 401 -266 406 -266 q 394 -262 397 -266 q 391 -256 391 -258 q 395 -246 391 -251 q 408 -235 400 -240 q 431 -210 422 -225 q 442 -179 439 -195 q 436 -180 440 -180 q 431 -180 433 -180 q 391 -164 407 -180 q 374 -124 374 -148 q 391 -85 374 -101 q 431 -68 407 -68 z "},"L":{"ha":860,"x_min":235,"x_max":730,"o":"m 279 42 l 690 42 q 720 37 710 42 q 730 21 730 31 q 720 6 730 11 q 690 0 710 0 l 275 0 q 235 40 235 0 l 235 826 q 257 867 235 867 q 279 826 279 867 l 279 42 z "},"Ĺ":{"ha":860,"x_min":171,"x_max":730,"o":"m 279 42 l 690 42 q 720 37 710 42 q 730 21 730 31 q 720 6 730 11 q 690 0 710 0 l 275 0 q 235 40 235 0 l 235 826 q 257 867 235 867 q 279 826 279 867 l 279 42 m 185 962 q 176 964 182 962 q 171 972 171 967 q 191 1007 171 981 l 269 1108 q 287 1126 279 1121 q 310 1131 295 1131 l 322 1131 q 336 1128 330 1131 q 342 1119 342 1126 q 330 1097 342 1109 l 224 986 q 203 968 213 975 q 185 962 193 962 z "},"Ľ":{"ha":860,"x_min":235,"x_max":730,"o":"m 279 42 l 690 42 q 720 37 710 42 q 730 21 730 31 q 720 6 730 11 q 690 0 710 0 l 275 0 q 235 40 235 0 l 235 826 q 257 867 235 867 q 279 826 279 867 l 279 42 m 519 596 q 503 604 509 596 q 497 626 497 612 q 501 658 497 630 q 511 724 505 685 q 523 800 517 763 q 533 860 529 837 q 563 895 539 895 q 585 887 578 895 q 593 865 593 878 q 589 836 593 860 q 577 776 584 812 q 561 702 569 741 q 546 631 553 663 q 519 596 538 596 z "},"Ļ":{"ha":860,"x_min":235,"x_max":730,"o":"m 279 42 l 690 42 q 720 37 710 42 q 730 21 730 31 q 720 6 730 11 q 690 0 710 0 l 275 0 q 235 40 235 0 l 235 826 q 257 867 235 867 q 279 826 279 867 l 279 42 m 487 -68 q 525 -83 509 -68 q 542 -124 542 -98 q 530 -188 542 -150 q 479 -256 518 -226 q 468 -264 473 -261 q 458 -266 463 -266 q 450 -262 453 -266 q 447 -256 447 -258 q 452 -246 447 -251 q 464 -235 456 -240 q 487 -210 478 -225 q 498 -179 495 -195 q 493 -180 497 -180 q 487 -180 489 -180 q 447 -164 463 -180 q 431 -124 431 -148 q 447 -85 431 -101 q 487 -68 463 -68 z "},"Ŀ":{"ha":860,"x_min":235,"x_max":764,"o":"m 704 393 q 663 410 680 393 q 645 452 645 428 q 663 494 645 477 q 704 512 680 512 q 747 494 729 512 q 764 452 764 477 q 747 410 764 428 q 704 393 729 393 m 279 42 l 690 42 q 720 37 710 42 q 730 21 730 31 q 720 6 730 11 q 690 0 710 0 l 275 0 q 235 40 235 0 l 235 826 q 257 867 235 867 q 279 826 279 867 l 279 42 z "},"Ł":{"ha":860,"x_min":125,"x_max":730,"o":"m 141 242 q 130 247 134 242 q 125 258 125 251 q 143 290 125 272 l 347 494 q 378 513 365 513 q 390 508 385 513 q 395 495 395 503 q 377 465 395 483 l 173 260 q 141 242 156 242 m 279 42 l 690 42 q 720 37 710 42 q 730 21 730 31 q 720 6 730 11 q 690 0 710 0 l 275 0 q 235 40 235 0 l 235 826 q 257 867 235 867 q 279 826 279 867 l 279 42 z "},"M":{"ha":860,"x_min":81,"x_max":793,"o":"m 103 -7 q 87 1 93 -7 q 81 24 81 8 q 86 74 81 30 q 99 188 91 119 q 117 340 107 258 q 137 505 127 422 q 155 659 147 588 q 170 778 164 731 q 177 835 176 825 q 184 857 179 849 q 196 869 188 865 q 216 873 204 873 l 217 873 q 243 865 233 873 q 258 840 253 856 l 438 269 l 616 840 q 632 865 622 857 q 659 873 642 873 l 660 873 q 679 869 672 873 q 691 856 687 865 q 697 835 696 848 q 705 777 699 825 q 719 658 710 730 q 738 503 728 586 q 757 337 747 419 q 775 185 767 254 q 788 72 783 116 q 793 24 793 28 q 788 1 793 8 q 774 -7 783 -7 q 749 28 753 -7 l 657 808 l 476 247 q 461 222 471 231 q 438 213 451 213 q 414 222 423 213 q 399 247 404 231 l 220 814 l 126 28 q 119 1 124 10 q 103 -7 114 -7 z "},"N":{"ha":860,"x_min":132,"x_max":721,"o":"m 154 -13 q 132 23 132 -13 l 132 826 q 139 856 132 846 q 163 867 146 867 l 164 867 q 185 860 178 867 q 201 839 192 853 l 677 63 l 677 830 q 699 867 677 867 q 715 858 710 867 q 721 830 721 849 l 721 26 q 715 -3 721 8 q 691 -13 709 -13 l 690 -13 q 669 -7 676 -13 q 652 15 661 0 l 176 796 l 176 23 q 154 -13 176 -13 z "},"Ń":{"ha":860,"x_min":132,"x_max":721,"o":"m 154 -13 q 132 23 132 -13 l 132 826 q 139 856 132 846 q 163 867 146 867 l 164 867 q 185 860 178 867 q 201 839 192 853 l 677 63 l 677 830 q 699 867 677 867 q 715 858 710 867 q 721 830 721 849 l 721 26 q 715 -3 721 8 q 691 -13 709 -13 l 690 -13 q 669 -7 676 -13 q 652 15 661 0 l 176 796 l 176 23 q 154 -13 176 -13 m 353 962 q 344 964 350 962 q 339 972 339 967 q 359 1007 339 981 l 438 1108 q 455 1126 447 1121 q 478 1131 463 1131 l 490 1131 q 504 1128 498 1131 q 510 1119 510 1126 q 498 1097 510 1109 l 392 986 q 371 968 381 975 q 353 962 361 962 z "},"Ň":{"ha":860,"x_min":132,"x_max":721,"o":"m 154 -13 q 132 23 132 -13 l 132 826 q 139 856 132 846 q 163 867 146 867 l 164 867 q 185 860 178 867 q 201 839 192 853 l 677 63 l 677 830 q 699 867 677 867 q 715 858 710 867 q 721 830 721 849 l 721 26 q 715 -3 721 8 q 691 -13 709 -13 l 690 -13 q 669 -7 676 -13 q 652 15 661 0 l 176 796 l 176 23 q 154 -13 176 -13 m 556 1049 l 466 958 q 445 943 455 947 q 424 938 435 938 q 404 943 414 938 q 383 958 394 947 l 293 1049 q 278 1079 278 1064 q 283 1093 278 1088 q 297 1098 288 1098 q 312 1093 306 1098 q 328 1078 318 1089 l 425 978 l 521 1077 q 538 1093 531 1088 q 553 1098 544 1098 q 567 1093 562 1098 q 573 1081 573 1088 q 556 1049 573 1066 z "},"Ņ":{"ha":860,"x_min":132,"x_max":721,"o":"m 154 -13 q 132 23 132 -13 l 132 826 q 139 856 132 846 q 163 867 146 867 l 164 867 q 185 860 178 867 q 201 839 192 853 l 677 63 l 677 830 q 699 867 677 867 q 715 858 710 867 q 721 830 721 849 l 721 26 q 715 -3 721 8 q 691 -13 709 -13 l 690 -13 q 669 -7 676 -13 q 652 15 661 0 l 176 796 l 176 23 q 154 -13 176 -13 m 428 -68 q 466 -83 450 -68 q 483 -124 483 -98 q 471 -188 483 -150 q 420 -256 459 -226 q 409 -264 414 -261 q 399 -266 403 -266 q 391 -262 394 -266 q 388 -256 388 -258 q 393 -246 388 -251 q 405 -235 397 -240 q 428 -210 419 -225 q 439 -179 436 -195 q 434 -180 438 -180 q 428 -180 430 -180 q 388 -164 404 -180 q 372 -124 372 -148 q 388 -85 372 -101 q 428 -68 404 -68 z "},"Ñ":{"ha":860,"x_min":132,"x_max":721,"o":"m 154 -13 q 132 23 132 -13 l 132 826 q 139 856 132 846 q 163 867 146 867 l 164 867 q 185 860 178 867 q 201 839 192 853 l 677 63 l 677 830 q 699 867 677 867 q 715 858 710 867 q 721 830 721 849 l 721 26 q 715 -3 721 8 q 691 -13 709 -13 l 690 -13 q 669 -7 676 -13 q 652 15 661 0 l 176 796 l 176 23 q 154 -13 176 -13 m 494 949 q 446 960 463 949 q 412 988 428 972 q 384 1009 397 1002 q 351 1017 372 1017 q 312 1008 329 1017 q 283 989 295 999 q 254 972 265 972 q 241 978 247 972 q 235 992 235 984 q 253 1022 235 1005 q 298 1049 272 1035 q 354 1063 324 1063 q 402 1052 385 1063 q 435 1025 419 1041 q 463 1002 450 1010 q 497 994 475 994 q 534 1003 518 994 q 562 1022 551 1011 q 581 1037 572 1031 q 599 1042 590 1042 q 612 1038 606 1042 q 617 1024 617 1033 q 612 1009 617 1013 q 567 972 599 994 q 494 949 535 949 z "},"Ŋ":{"ha":860,"x_min":160,"x_max":712,"o":"m 668 833 q 674 861 668 853 q 690 869 680 869 q 706 861 701 869 q 712 833 712 853 l 712 -9 q 687 -142 712 -87 q 613 -225 663 -197 q 486 -254 563 -254 q 415 -252 451 -254 q 354 -244 379 -249 q 332 -234 338 -240 q 326 -219 326 -228 q 333 -203 326 -209 q 351 -198 340 -198 q 372 -200 359 -198 q 422 -207 394 -203 q 476 -210 451 -210 q 578 -195 535 -210 q 644 -135 621 -180 q 668 0 668 -90 l 204 806 l 204 23 q 183 -13 204 -13 q 160 23 160 -13 l 160 829 q 170 858 160 848 q 197 869 179 869 l 198 869 q 220 861 213 869 q 235 840 227 854 l 668 98 l 668 833 z "},"O":{"ha":860,"x_min":79,"x_max":779,"o":"m 430 -15 q 305 10 367 -15 q 191 88 242 35 q 110 225 140 141 q 79 427 79 309 q 110 629 79 545 q 191 765 140 713 q 305 843 242 818 q 430 868 367 868 q 554 843 492 868 q 667 765 616 818 q 749 629 718 713 q 779 427 779 545 q 749 225 779 309 q 667 88 718 141 q 554 10 616 35 q 430 -15 492 -15 m 430 29 q 574 71 504 29 q 688 201 643 113 q 733 427 733 289 q 688 652 733 565 q 574 782 643 740 q 430 824 504 824 q 285 782 356 824 q 170 652 215 740 q 126 427 126 565 q 170 201 126 289 q 285 71 215 113 q 430 29 356 29 z "},"Ó":{"ha":860,"x_min":79,"x_max":779,"o":"m 430 -15 q 305 10 367 -15 q 191 88 242 35 q 110 225 140 141 q 79 427 79 309 q 110 629 79 545 q 191 765 140 713 q 305 843 242 818 q 430 868 367 868 q 554 843 492 868 q 667 765 616 818 q 749 629 718 713 q 779 427 779 545 q 749 225 779 309 q 667 88 718 141 q 554 10 616 35 q 430 -15 492 -15 m 430 29 q 574 71 504 29 q 688 201 643 113 q 733 427 733 289 q 688 652 733 565 q 574 782 643 740 q 430 824 504 824 q 285 782 356 824 q 170 652 215 740 q 126 427 126 565 q 170 201 126 289 q 285 71 215 113 q 430 29 356 29 m 397 924 q 389 927 394 924 q 383 935 383 929 q 403 969 383 943 l 482 1072 q 500 1089 492 1084 q 523 1094 508 1094 l 534 1094 q 549 1091 542 1094 q 555 1082 555 1088 q 542 1060 555 1073 l 436 949 q 415 931 425 938 q 397 924 406 924 z "},"Ŏ":{"ha":860,"x_min":79,"x_max":779,"o":"m 430 -15 q 305 10 367 -15 q 191 88 242 35 q 110 225 140 141 q 79 427 79 309 q 110 629 79 545 q 191 765 140 713 q 305 843 242 818 q 430 868 367 868 q 554 843 492 868 q 667 765 616 818 q 749 629 718 713 q 779 427 779 545 q 749 225 779 309 q 667 88 718 141 q 554 10 616 35 q 430 -15 492 -15 m 430 29 q 574 71 504 29 q 688 201 643 113 q 733 427 733 289 q 688 652 733 565 q 574 782 643 740 q 430 824 504 824 q 285 782 356 824 q 170 652 215 740 q 126 427 126 565 q 170 201 126 289 q 285 71 215 113 q 430 29 356 29 m 547 1092 q 563 1084 557 1092 q 569 1063 569 1077 q 568 1057 569 1060 q 567 1050 568 1053 q 522 964 557 1001 q 428 928 487 928 q 335 964 369 928 q 292 1050 301 1001 q 291 1057 291 1053 q 291 1063 291 1060 q 297 1084 291 1077 q 312 1092 303 1092 q 330 1082 324 1092 q 339 1055 335 1073 q 365 996 344 1024 q 430 967 385 967 q 495 996 475 967 q 520 1054 515 1024 q 530 1082 524 1072 q 547 1092 535 1092 z "},"Ǒ":{"ha":860,"x_min":79,"x_max":779,"o":"m 430 -15 q 305 10 367 -15 q 191 88 242 35 q 110 225 140 141 q 79 427 79 309 q 110 629 79 545 q 191 765 140 713 q 305 843 242 818 q 430 868 367 868 q 554 843 492 868 q 667 765 616 818 q 749 629 718 713 q 779 427 779 545 q 749 225 779 309 q 667 88 718 141 q 554 10 616 35 q 430 -15 492 -15 m 430 29 q 574 71 504 29 q 688 201 643 113 q 733 427 733 289 q 688 652 733 565 q 574 782 643 740 q 430 824 504 824 q 285 782 356 824 q 170 652 215 740 q 126 427 126 565 q 170 201 126 289 q 285 71 215 113 q 430 29 356 29 m 561 1023 l 470 933 q 450 917 459 922 q 429 912 440 912 q 409 917 418 912 q 388 933 399 922 l 298 1023 q 283 1053 283 1038 q 288 1067 283 1061 q 301 1072 293 1072 q 317 1067 310 1072 q 333 1051 323 1063 l 430 951 l 525 1051 q 542 1067 535 1062 q 558 1072 549 1072 q 572 1067 567 1072 q 577 1054 577 1062 q 573 1040 577 1048 q 561 1023 569 1032 z "},"Ô":{"ha":860,"x_min":79,"x_max":779,"o":"m 430 -15 q 305 10 367 -15 q 191 88 242 35 q 110 225 140 141 q 79 427 79 309 q 110 629 79 545 q 191 765 140 713 q 305 843 242 818 q 430 868 367 868 q 554 843 492 868 q 667 765 616 818 q 749 629 718 713 q 779 427 779 545 q 749 225 779 309 q 667 88 718 141 q 554 10 616 35 q 430 -15 492 -15 m 430 29 q 574 71 504 29 q 688 201 643 113 q 733 427 733 289 q 688 652 733 565 q 574 782 643 740 q 430 824 504 824 q 285 782 356 824 q 170 652 215 740 q 126 427 126 565 q 170 201 126 289 q 285 71 215 113 q 430 29 356 29 m 561 967 q 578 936 578 950 q 572 923 578 928 q 558 918 567 918 q 542 923 549 918 q 526 939 536 928 l 430 1038 l 333 938 q 317 923 323 927 q 301 918 311 918 q 288 923 293 918 q 283 938 283 928 q 287 951 283 944 q 298 967 290 959 l 388 1058 q 409 1073 399 1069 q 429 1078 419 1078 q 450 1073 440 1078 q 471 1058 460 1069 l 561 967 z "},"Ố":{"ha":860,"x_min":79,"x_max":779,"o":"m 430 -15 q 305 10 367 -15 q 191 88 242 35 q 110 225 140 141 q 79 427 79 309 q 110 629 79 545 q 191 765 140 713 q 305 843 242 818 q 430 868 367 868 q 554 843 492 868 q 667 765 616 818 q 749 629 718 713 q 779 427 779 545 q 749 225 779 309 q 667 88 718 141 q 554 10 616 35 q 430 -15 492 -15 m 430 29 q 574 71 504 29 q 688 201 643 113 q 733 427 733 289 q 688 652 733 565 q 574 782 643 740 q 430 824 504 824 q 285 782 356 824 q 170 652 215 740 q 126 427 126 565 q 170 201 126 289 q 285 71 215 113 q 430 29 356 29 m 561 987 q 578 956 578 970 q 572 943 578 948 q 558 938 567 938 q 542 943 549 938 q 526 959 536 948 l 430 1058 l 333 958 q 317 943 323 947 q 301 938 311 938 q 288 943 293 938 q 283 957 283 949 q 298 987 283 972 l 388 1078 q 409 1093 399 1089 q 429 1098 419 1098 q 450 1093 440 1098 q 471 1078 460 1089 l 561 987 m 542 1055 q 533 1057 539 1055 q 528 1065 528 1060 q 548 1100 528 1074 l 626 1201 q 644 1219 636 1214 q 667 1224 652 1224 l 678 1224 q 693 1222 687 1224 q 699 1213 699 1219 q 687 1190 699 1202 l 581 1079 q 560 1061 569 1068 q 542 1055 550 1055 z "},"Ộ":{"ha":860,"x_min":79,"x_max":779,"o":"m 430 -15 q 305 10 367 -15 q 191 88 242 35 q 110 225 140 141 q 79 427 79 309 q 110 629 79 545 q 191 765 140 713 q 305 843 242 818 q 430 868 367 868 q 554 843 492 868 q 667 765 616 818 q 749 629 718 713 q 779 427 779 545 q 749 225 779 309 q 667 88 718 141 q 554 10 616 35 q 430 -15 492 -15 m 430 29 q 574 71 504 29 q 688 201 643 113 q 733 427 733 289 q 688 652 733 565 q 574 782 643 740 q 430 824 504 824 q 285 782 356 824 q 170 652 215 740 q 126 427 126 565 q 170 201 126 289 q 285 71 215 113 q 430 29 356 29 m 424 -219 q 382 -202 399 -219 q 365 -160 365 -185 q 382 -118 365 -135 q 424 -101 399 -101 q 466 -118 449 -101 q 483 -160 483 -135 q 466 -202 483 -185 q 424 -219 449 -219 m 561 967 q 578 936 578 950 q 572 923 578 928 q 558 918 567 918 q 542 923 549 918 q 526 939 536 928 l 430 1038 l 333 938 q 317 923 323 927 q 301 918 311 918 q 288 923 293 918 q 283 938 283 928 q 287 951 283 944 q 298 967 290 959 l 388 1058 q 409 1073 399 1069 q 429 1078 419 1078 q 450 1073 440 1078 q 471 1058 460 1069 l 561 967 z "},"Ồ":{"ha":860,"x_min":79,"x_max":779,"o":"m 430 -15 q 305 10 367 -15 q 191 88 242 35 q 110 225 140 141 q 79 427 79 309 q 110 629 79 545 q 191 765 140 713 q 305 843 242 818 q 430 868 367 868 q 554 843 492 868 q 667 765 616 818 q 749 629 718 713 q 779 427 779 545 q 749 225 779 309 q 667 88 718 141 q 554 10 616 35 q 430 -15 492 -15 m 430 29 q 574 71 504 29 q 688 201 643 113 q 733 427 733 289 q 688 652 733 565 q 574 782 643 740 q 430 824 504 824 q 285 782 356 824 q 170 652 215 740 q 126 427 126 565 q 170 201 126 289 q 285 71 215 113 q 430 29 356 29 m 561 987 q 578 956 578 970 q 572 943 578 948 q 558 938 567 938 q 542 943 549 938 q 526 959 536 948 l 430 1058 l 333 958 q 317 943 323 947 q 301 938 311 938 q 288 943 293 938 q 283 957 283 949 q 298 987 283 972 l 388 1078 q 409 1093 399 1089 q 429 1098 419 1098 q 450 1093 440 1098 q 471 1078 460 1089 l 561 987 m 608 1055 q 590 1061 599 1055 q 569 1079 581 1067 l 463 1190 q 450 1213 450 1204 q 457 1222 450 1219 q 471 1224 463 1224 l 482 1224 q 506 1219 497 1224 q 523 1201 514 1214 l 601 1100 q 622 1065 622 1074 q 616 1057 622 1060 q 608 1055 611 1055 z "},"Ổ":{"ha":860,"x_min":79,"x_max":779,"o":"m 430 -15 q 305 10 367 -15 q 191 88 242 35 q 110 225 140 141 q 79 427 79 309 q 110 629 79 545 q 191 765 140 713 q 305 843 242 818 q 430 868 367 868 q 554 843 492 868 q 667 765 616 818 q 749 629 718 713 q 779 427 779 545 q 749 225 779 309 q 667 88 718 141 q 554 10 616 35 q 430 -15 492 -15 m 430 29 q 574 71 504 29 q 688 201 643 113 q 733 427 733 289 q 688 652 733 565 q 574 782 643 740 q 430 824 504 824 q 285 782 356 824 q 170 652 215 740 q 126 427 126 565 q 170 201 126 289 q 285 71 215 113 q 430 29 356 29 m 561 987 q 578 956 578 970 q 572 943 578 948 q 558 938 567 938 q 542 943 549 938 q 526 959 536 948 l 430 1058 l 333 958 q 317 943 323 947 q 301 938 311 938 q 288 943 293 938 q 283 957 283 949 q 298 987 283 972 l 388 1078 q 409 1093 399 1089 q 429 1098 419 1098 q 450 1093 440 1098 q 471 1078 460 1089 l 561 987 m 563 1068 q 535 1087 535 1068 q 543 1100 535 1096 q 563 1105 550 1105 q 636 1113 601 1105 q 671 1149 671 1120 q 638 1182 671 1176 q 569 1188 606 1188 q 533 1186 550 1188 q 502 1183 516 1185 q 489 1181 495 1182 q 478 1181 482 1181 q 469 1183 474 1181 q 464 1195 464 1186 q 494 1220 464 1213 q 565 1227 525 1227 q 639 1221 606 1227 q 694 1198 673 1215 q 715 1148 715 1181 q 689 1098 715 1115 q 628 1074 663 1081 q 563 1068 592 1068 z "},"Ỗ":{"ha":860,"x_min":79,"x_max":779,"o":"m 430 -15 q 305 10 367 -15 q 191 88 242 35 q 110 225 140 141 q 79 427 79 309 q 110 629 79 545 q 191 765 140 713 q 305 843 242 818 q 430 868 367 868 q 554 843 492 868 q 667 765 616 818 q 749 629 718 713 q 779 427 779 545 q 749 225 779 309 q 667 88 718 141 q 554 10 616 35 q 430 -15 492 -15 m 430 29 q 574 71 504 29 q 688 201 643 113 q 733 427 733 289 q 688 652 733 565 q 574 782 643 740 q 430 824 504 824 q 285 782 356 824 q 170 652 215 740 q 126 427 126 565 q 170 201 126 289 q 285 71 215 113 q 430 29 356 29 m 561 967 q 578 936 578 950 q 572 923 578 928 q 558 918 567 918 q 542 923 549 918 q 526 939 536 928 l 430 1038 l 333 938 q 317 923 323 927 q 301 918 311 918 q 288 923 293 918 q 283 938 283 928 q 287 951 283 944 q 298 967 290 959 l 388 1058 q 409 1073 399 1069 q 429 1078 419 1078 q 450 1073 440 1078 q 471 1058 460 1069 l 561 967 m 499 1153 q 451 1164 469 1153 q 417 1191 434 1175 q 390 1213 402 1206 q 357 1220 378 1220 q 318 1211 335 1220 q 289 1192 301 1203 q 273 1180 281 1185 q 260 1175 265 1175 q 247 1181 253 1175 q 240 1195 240 1187 q 259 1225 240 1208 q 303 1253 277 1239 q 360 1267 330 1267 q 407 1256 390 1267 q 441 1228 424 1244 q 468 1206 456 1214 q 501 1197 481 1197 q 540 1206 524 1197 q 567 1225 556 1215 q 586 1240 577 1235 q 604 1246 596 1246 q 617 1241 612 1246 q 623 1226 623 1236 q 617 1212 623 1216 q 573 1175 604 1197 q 499 1153 541 1153 z "},"Ȍ":{"ha":860,"x_min":79,"x_max":779,"o":"m 430 -15 q 305 10 367 -15 q 191 88 242 35 q 110 225 140 141 q 79 427 79 309 q 110 629 79 545 q 191 765 140 713 q 305 843 242 818 q 430 868 367 868 q 554 843 492 868 q 667 765 616 818 q 749 629 718 713 q 779 427 779 545 q 749 225 779 309 q 667 88 718 141 q 554 10 616 35 q 430 -15 492 -15 m 430 29 q 574 71 504 29 q 688 201 643 113 q 733 427 733 289 q 688 652 733 565 q 574 782 643 740 q 430 824 504 824 q 285 782 356 824 q 170 652 215 740 q 126 427 126 565 q 170 201 126 289 q 285 71 215 113 q 430 29 356 29 m 354 915 q 336 922 345 915 q 315 940 326 928 l 209 1050 q 199 1063 202 1058 q 197 1073 197 1069 q 203 1082 197 1079 q 217 1085 209 1085 l 228 1085 q 252 1080 244 1085 q 269 1063 260 1074 l 348 960 q 368 926 368 934 q 363 918 368 920 q 354 915 358 915 m 539 915 q 521 922 531 915 q 500 940 512 928 l 394 1050 q 382 1073 382 1063 q 388 1082 382 1079 q 402 1085 394 1085 l 413 1085 q 437 1080 429 1085 q 454 1063 445 1074 l 533 960 q 548 939 543 947 q 553 926 553 931 q 548 918 553 920 q 539 915 542 915 z "},"Ö":{"ha":860,"x_min":79,"x_max":779,"o":"m 430 -15 q 305 10 367 -15 q 191 88 242 35 q 110 225 140 141 q 79 427 79 309 q 110 629 79 545 q 191 765 140 713 q 305 843 242 818 q 430 868 367 868 q 554 843 492 868 q 667 765 616 818 q 749 629 718 713 q 779 427 779 545 q 749 225 779 309 q 667 88 718 141 q 554 10 616 35 q 430 -15 492 -15 m 430 29 q 574 71 504 29 q 688 201 643 113 q 733 427 733 289 q 688 652 733 565 q 574 782 643 740 q 430 824 504 824 q 285 782 356 824 q 170 652 215 740 q 126 427 126 565 q 170 201 126 289 q 285 71 215 113 q 430 29 356 29 m 302 957 q 260 974 278 957 q 243 1017 243 992 q 260 1059 243 1041 q 302 1076 278 1076 q 344 1059 327 1076 q 362 1017 362 1041 q 344 974 362 992 q 302 957 327 957 m 558 957 q 515 974 533 957 q 498 1017 498 992 q 515 1059 498 1041 q 558 1076 533 1076 q 600 1059 582 1076 q 617 1017 617 1041 q 600 974 617 992 q 558 957 582 957 z "},"Ȫ":{"ha":860,"x_min":79,"x_max":779,"o":"m 430 -15 q 305 10 367 -15 q 191 88 242 35 q 110 225 140 141 q 79 427 79 309 q 110 629 79 545 q 191 765 140 713 q 305 843 242 818 q 430 868 367 868 q 554 843 492 868 q 667 765 616 818 q 749 629 718 713 q 779 427 779 545 q 749 225 779 309 q 667 88 718 141 q 554 10 616 35 q 430 -15 492 -15 m 430 29 q 574 71 504 29 q 688 201 643 113 q 733 427 733 289 q 688 652 733 565 q 574 782 643 740 q 430 824 504 824 q 285 782 356 824 q 170 652 215 740 q 126 427 126 565 q 170 201 126 289 q 285 71 215 113 q 430 29 356 29 m 302 957 q 260 974 278 957 q 243 1017 243 992 q 260 1059 243 1041 q 302 1076 278 1076 q 344 1059 327 1076 q 362 1017 362 1041 q 344 974 362 992 q 302 957 327 957 m 558 957 q 515 974 533 957 q 498 1017 498 992 q 515 1059 498 1041 q 558 1076 533 1076 q 600 1059 582 1076 q 617 1017 617 1041 q 600 974 617 992 q 558 957 582 957 m 206 1202 q 216 1218 206 1213 q 245 1224 226 1224 l 615 1224 q 644 1218 634 1224 q 654 1202 654 1213 q 644 1186 654 1192 q 615 1181 634 1181 l 245 1181 q 216 1186 226 1181 q 206 1202 206 1192 z "},"Ȱ":{"ha":860,"x_min":79,"x_max":779,"o":"m 430 -15 q 305 10 367 -15 q 191 88 242 35 q 110 225 140 141 q 79 427 79 309 q 110 629 79 545 q 191 765 140 713 q 305 843 242 818 q 430 868 367 868 q 554 843 492 868 q 667 765 616 818 q 749 629 718 713 q 779 427 779 545 q 749 225 779 309 q 667 88 718 141 q 554 10 616 35 q 430 -15 492 -15 m 430 29 q 574 71 504 29 q 688 201 643 113 q 733 427 733 289 q 688 652 733 565 q 574 782 643 740 q 430 824 504 824 q 285 782 356 824 q 170 652 215 740 q 126 427 126 565 q 170 201 126 289 q 285 71 215 113 q 430 29 356 29 m 430 965 q 388 982 405 965 q 370 1024 370 999 q 388 1066 370 1049 q 430 1083 405 1083 q 472 1066 454 1083 q 489 1024 489 1049 q 472 982 489 999 q 430 965 454 965 m 206 1209 q 216 1225 206 1219 q 245 1231 226 1231 l 615 1231 q 644 1225 634 1231 q 654 1209 654 1219 q 644 1193 654 1199 q 615 1188 634 1188 l 245 1188 q 216 1193 226 1188 q 206 1209 206 1199 z "},"Ọ":{"ha":860,"x_min":79,"x_max":779,"o":"m 430 -15 q 305 10 367 -15 q 191 88 242 35 q 110 225 140 141 q 79 427 79 309 q 110 629 79 545 q 191 765 140 713 q 305 843 242 818 q 430 868 367 868 q 554 843 492 868 q 667 765 616 818 q 749 629 718 713 q 779 427 779 545 q 749 225 779 309 q 667 88 718 141 q 554 10 616 35 q 430 -15 492 -15 m 430 29 q 574 71 504 29 q 688 201 643 113 q 733 427 733 289 q 688 652 733 565 q 574 782 643 740 q 430 824 504 824 q 285 782 356 824 q 170 652 215 740 q 126 427 126 565 q 170 201 126 289 q 285 71 215 113 q 430 29 356 29 m 424 -219 q 382 -202 399 -219 q 365 -160 365 -185 q 382 -118 365 -135 q 424 -101 399 -101 q 466 -118 449 -101 q 483 -160 483 -135 q 466 -202 483 -185 q 424 -219 449 -219 z "},"Ò":{"ha":860,"x_min":79,"x_max":779,"o":"m 430 -15 q 305 10 367 -15 q 191 88 242 35 q 110 225 140 141 q 79 427 79 309 q 110 629 79 545 q 191 765 140 713 q 305 843 242 818 q 430 868 367 868 q 554 843 492 868 q 667 765 616 818 q 749 629 718 713 q 779 427 779 545 q 749 225 779 309 q 667 88 718 141 q 554 10 616 35 q 430 -15 492 -15 m 430 29 q 574 71 504 29 q 688 201 643 113 q 733 427 733 289 q 688 652 733 565 q 574 782 643 740 q 430 824 504 824 q 285 782 356 824 q 170 652 215 740 q 126 427 126 565 q 170 201 126 289 q 285 71 215 113 q 430 29 356 29 m 462 922 q 444 928 453 922 q 423 947 434 935 l 317 1057 q 304 1079 304 1070 q 310 1089 304 1086 q 325 1091 317 1091 l 336 1091 q 360 1086 351 1091 q 377 1069 368 1081 l 456 967 q 476 933 476 941 q 470 924 476 926 q 462 922 465 922 z "},"Ỏ":{"ha":860,"x_min":79,"x_max":779,"o":"m 430 -15 q 305 10 367 -15 q 191 88 242 35 q 110 225 140 141 q 79 427 79 309 q 110 629 79 545 q 191 765 140 713 q 305 843 242 818 q 430 868 367 868 q 554 843 492 868 q 667 765 616 818 q 749 629 718 713 q 779 427 779 545 q 749 225 779 309 q 667 88 718 141 q 554 10 616 35 q 430 -15 492 -15 m 430 29 q 574 71 504 29 q 688 201 643 113 q 733 427 733 289 q 688 652 733 565 q 574 782 643 740 q 430 824 504 824 q 285 782 356 824 q 170 652 215 740 q 126 427 126 565 q 170 201 126 289 q 285 71 215 113 q 430 29 356 29 m 403 922 q 383 927 390 922 q 376 941 376 932 q 383 955 376 950 q 403 959 390 959 q 476 967 442 959 q 511 1003 511 974 q 478 1036 511 1031 q 409 1042 446 1042 q 373 1041 390 1042 q 342 1038 356 1040 q 330 1036 335 1037 q 320 1035 324 1035 q 308 1039 312 1035 q 304 1049 304 1043 q 335 1075 304 1067 q 406 1082 365 1082 q 480 1076 446 1082 q 534 1052 513 1069 q 555 1002 555 1035 q 529 952 555 969 q 468 928 503 935 q 403 922 433 922 z "},"Ơ":{"ha":860,"x_min":76,"x_max":826,"o":"m 433 -15 q 307 10 370 -15 q 192 88 244 35 q 108 225 140 141 q 76 427 76 309 q 108 629 76 545 q 192 765 140 713 q 307 843 244 818 q 433 868 370 868 q 524 855 478 868 q 612 816 569 842 q 703 846 670 819 q 752 913 736 873 q 775 995 769 953 q 784 1023 778 1013 q 802 1033 790 1033 q 820 1022 815 1033 q 826 994 826 1010 q 806 904 826 951 q 751 820 787 856 q 664 775 715 784 q 754 636 719 722 q 789 427 789 550 q 757 225 789 309 q 674 88 726 141 q 559 10 622 35 q 433 -15 496 -15 m 122 427 q 169 201 122 289 q 287 71 215 113 q 433 29 359 29 q 544 52 489 29 q 644 124 599 76 q 716 248 689 173 q 743 427 743 324 q 716 606 743 531 q 644 729 689 681 q 544 801 599 777 q 433 824 489 824 q 287 782 359 824 q 169 652 215 740 q 122 427 122 565 z "},"Ớ":{"ha":860,"x_min":76,"x_max":826,"o":"m 433 -15 q 307 10 370 -15 q 192 88 244 35 q 108 225 140 141 q 76 427 76 309 q 108 629 76 545 q 192 765 140 713 q 307 843 244 818 q 433 868 370 868 q 524 855 478 868 q 612 816 569 842 q 703 846 670 819 q 752 913 736 873 q 775 995 769 953 q 784 1023 778 1013 q 802 1033 790 1033 q 820 1022 815 1033 q 826 994 826 1010 q 806 904 826 951 q 751 820 787 856 q 664 775 715 784 q 754 636 719 722 q 789 427 789 550 q 757 225 789 309 q 674 88 726 141 q 559 10 622 35 q 433 -15 496 -15 m 122 427 q 169 201 122 289 q 287 71 215 113 q 433 29 359 29 q 544 52 489 29 q 644 124 599 76 q 716 248 689 173 q 743 427 743 324 q 716 606 743 531 q 644 729 689 681 q 544 801 599 777 q 433 824 489 824 q 287 782 359 824 q 169 652 215 740 q 122 427 122 565 m 397 924 q 389 927 394 924 q 383 935 383 929 q 403 969 383 943 l 482 1072 q 500 1089 492 1084 q 523 1094 508 1094 l 534 1094 q 549 1091 542 1094 q 555 1082 555 1088 q 542 1060 555 1073 l 436 949 q 415 931 425 938 q 397 924 406 924 z "},"Ợ":{"ha":860,"x_min":76,"x_max":826,"o":"m 433 -15 q 307 10 370 -15 q 192 88 244 35 q 108 225 140 141 q 76 427 76 309 q 108 629 76 545 q 192 765 140 713 q 307 843 244 818 q 433 868 370 868 q 524 855 478 868 q 612 816 569 842 q 703 846 670 819 q 752 913 736 873 q 775 995 769 953 q 784 1023 778 1013 q 802 1033 790 1033 q 820 1022 815 1033 q 826 994 826 1010 q 806 904 826 951 q 751 820 787 856 q 664 775 715 784 q 754 636 719 722 q 789 427 789 550 q 757 225 789 309 q 674 88 726 141 q 559 10 622 35 q 433 -15 496 -15 m 122 427 q 169 201 122 289 q 287 71 215 113 q 433 29 359 29 q 544 52 489 29 q 644 124 599 76 q 716 248 689 173 q 743 427 743 324 q 716 606 743 531 q 644 729 689 681 q 544 801 599 777 q 433 824 489 824 q 287 782 359 824 q 169 652 215 740 q 122 427 122 565 m 424 -219 q 382 -202 399 -219 q 365 -160 365 -185 q 382 -118 365 -135 q 424 -101 399 -101 q 466 -118 449 -101 q 483 -160 483 -135 q 466 -202 483 -185 q 424 -219 449 -219 z "},"Ờ":{"ha":860,"x_min":76,"x_max":826,"o":"m 433 -15 q 307 10 370 -15 q 192 88 244 35 q 108 225 140 141 q 76 427 76 309 q 108 629 76 545 q 192 765 140 713 q 307 843 244 818 q 433 868 370 868 q 524 855 478 868 q 612 816 569 842 q 703 846 670 819 q 752 913 736 873 q 775 995 769 953 q 784 1023 778 1013 q 802 1033 790 1033 q 820 1022 815 1033 q 826 994 826 1010 q 806 904 826 951 q 751 820 787 856 q 664 775 715 784 q 754 636 719 722 q 789 427 789 550 q 757 225 789 309 q 674 88 726 141 q 559 10 622 35 q 433 -15 496 -15 m 122 427 q 169 201 122 289 q 287 71 215 113 q 433 29 359 29 q 544 52 489 29 q 644 124 599 76 q 716 248 689 173 q 743 427 743 324 q 716 606 743 531 q 644 729 689 681 q 544 801 599 777 q 433 824 489 824 q 287 782 359 824 q 169 652 215 740 q 122 427 122 565 m 462 922 q 444 928 453 922 q 423 947 434 935 l 317 1057 q 304 1079 304 1070 q 310 1089 304 1086 q 325 1091 317 1091 l 336 1091 q 360 1086 351 1091 q 377 1069 368 1081 l 456 967 q 476 933 476 941 q 470 924 476 926 q 462 922 465 922 z "},"Ở":{"ha":860,"x_min":76,"x_max":826,"o":"m 433 -15 q 307 10 370 -15 q 192 88 244 35 q 108 225 140 141 q 76 427 76 309 q 108 629 76 545 q 192 765 140 713 q 307 843 244 818 q 433 868 370 868 q 524 855 478 868 q 612 816 569 842 q 703 846 670 819 q 752 913 736 873 q 775 995 769 953 q 784 1023 778 1013 q 802 1033 790 1033 q 820 1022 815 1033 q 826 994 826 1010 q 806 904 826 951 q 751 820 787 856 q 664 775 715 784 q 754 636 719 722 q 789 427 789 550 q 757 225 789 309 q 674 88 726 141 q 559 10 622 35 q 433 -15 496 -15 m 122 427 q 169 201 122 289 q 287 71 215 113 q 433 29 359 29 q 544 52 489 29 q 644 124 599 76 q 716 248 689 173 q 743 427 743 324 q 716 606 743 531 q 644 729 689 681 q 544 801 599 777 q 433 824 489 824 q 287 782 359 824 q 169 652 215 740 q 122 427 122 565 m 403 922 q 383 927 390 922 q 376 941 376 932 q 383 955 376 950 q 403 959 390 959 q 476 967 442 959 q 511 1003 511 974 q 478 1036 511 1031 q 409 1042 446 1042 q 373 1041 390 1042 q 342 1038 356 1040 q 330 1036 335 1037 q 320 1035 324 1035 q 308 1039 312 1035 q 304 1049 304 1043 q 335 1075 304 1067 q 406 1082 365 1082 q 480 1076 446 1082 q 534 1052 513 1069 q 555 1002 555 1035 q 529 952 555 969 q 468 928 503 935 q 403 922 433 922 z "},"Ỡ":{"ha":860,"x_min":76,"x_max":826,"o":"m 433 -15 q 307 10 370 -15 q 192 88 244 35 q 108 225 140 141 q 76 427 76 309 q 108 629 76 545 q 192 765 140 713 q 307 843 244 818 q 433 868 370 868 q 524 855 478 868 q 612 816 569 842 q 703 846 670 819 q 752 913 736 873 q 775 995 769 953 q 784 1023 778 1013 q 802 1033 790 1033 q 820 1022 815 1033 q 826 994 826 1010 q 806 904 826 951 q 751 820 787 856 q 664 775 715 784 q 754 636 719 722 q 789 427 789 550 q 757 225 789 309 q 674 88 726 141 q 559 10 622 35 q 433 -15 496 -15 m 122 427 q 169 201 122 289 q 287 71 215 113 q 433 29 359 29 q 544 52 489 29 q 644 124 599 76 q 716 248 689 173 q 743 427 743 324 q 716 606 743 531 q 644 729 689 681 q 544 801 599 777 q 433 824 489 824 q 287 782 359 824 q 169 652 215 740 q 122 427 122 565 m 499 935 q 451 946 469 935 q 417 973 434 957 q 390 995 402 988 q 357 1002 378 1002 q 318 993 335 1002 q 289 974 301 985 q 273 962 281 967 q 260 957 265 957 q 247 963 253 957 q 240 977 240 969 q 259 1007 240 990 q 303 1035 277 1021 q 360 1049 330 1049 q 407 1038 390 1049 q 441 1010 424 1026 q 468 988 456 996 q 501 979 481 979 q 540 988 524 979 q 567 1007 556 997 q 586 1022 577 1017 q 604 1028 596 1028 q 617 1023 612 1028 q 623 1008 623 1018 q 617 994 623 998 q 573 957 604 979 q 499 935 541 935 z "},"Ő":{"ha":860,"x_min":79,"x_max":779,"o":"m 430 -15 q 305 10 367 -15 q 191 88 242 35 q 110 225 140 141 q 79 427 79 309 q 110 629 79 545 q 191 765 140 713 q 305 843 242 818 q 430 868 367 868 q 554 843 492 868 q 667 765 616 818 q 749 629 718 713 q 779 427 779 545 q 749 225 779 309 q 667 88 718 141 q 554 10 616 35 q 430 -15 492 -15 m 430 29 q 574 71 504 29 q 688 201 643 113 q 733 427 733 289 q 688 652 733 565 q 574 782 643 740 q 430 824 504 824 q 285 782 356 824 q 170 652 215 740 q 126 427 126 565 q 170 201 126 289 q 285 71 215 113 q 430 29 356 29 m 475 949 l 535 1064 q 547 1081 541 1076 q 563 1087 552 1087 l 579 1087 q 589 1084 585 1087 q 594 1075 594 1081 q 585 1052 594 1067 l 512 942 q 495 920 502 927 q 482 913 488 913 q 473 917 477 913 q 469 927 469 920 q 475 949 469 935 m 297 949 l 356 1064 q 368 1081 362 1076 q 384 1087 374 1087 l 401 1087 q 411 1084 406 1087 q 415 1075 415 1081 q 406 1052 415 1067 l 333 942 q 317 920 324 927 q 303 913 310 913 q 294 917 299 913 q 290 927 290 920 q 297 949 290 935 z "},"Ȏ":{"ha":860,"x_min":79,"x_max":779,"o":"m 430 -15 q 305 10 367 -15 q 191 88 242 35 q 110 225 140 141 q 79 427 79 309 q 110 629 79 545 q 191 765 140 713 q 305 843 242 818 q 430 868 367 868 q 554 843 492 868 q 667 765 616 818 q 749 629 718 713 q 779 427 779 545 q 749 225 779 309 q 667 88 718 141 q 554 10 616 35 q 430 -15 492 -15 m 430 29 q 574 71 504 29 q 688 201 643 113 q 733 427 733 289 q 688 652 733 565 q 574 782 643 740 q 430 824 504 824 q 285 782 356 824 q 170 652 215 740 q 126 427 126 565 q 170 201 126 289 q 285 71 215 113 q 430 29 356 29 m 547 928 q 530 938 535 928 q 520 965 524 947 q 495 1024 515 996 q 430 1052 475 1052 q 365 1024 385 1052 q 339 965 344 996 q 330 937 335 947 q 312 928 324 928 q 297 935 303 928 q 291 956 291 942 q 291 963 291 960 q 292 969 291 967 q 335 1055 301 1019 q 428 1092 369 1092 q 522 1055 487 1092 q 567 969 557 1019 q 568 963 568 967 q 569 956 569 960 q 563 935 569 942 q 547 928 557 928 z "},"Ō":{"ha":860,"x_min":79,"x_max":779,"o":"m 430 -15 q 305 10 367 -15 q 191 88 242 35 q 110 225 140 141 q 79 427 79 309 q 110 629 79 545 q 191 765 140 713 q 305 843 242 818 q 430 868 367 868 q 554 843 492 868 q 667 765 616 818 q 749 629 718 713 q 779 427 779 545 q 749 225 779 309 q 667 88 718 141 q 554 10 616 35 q 430 -15 492 -15 m 430 29 q 574 71 504 29 q 688 201 643 113 q 733 427 733 289 q 688 652 733 565 q 574 782 643 740 q 430 824 504 824 q 285 782 356 824 q 170 652 215 740 q 126 427 126 565 q 170 201 126 289 q 285 71 215 113 q 430 29 356 29 m 206 985 q 216 1001 206 996 q 245 1007 226 1007 l 615 1007 q 644 1001 634 1007 q 654 985 654 996 q 644 969 654 975 q 615 964 634 964 l 245 964 q 216 969 226 964 q 206 985 206 975 z "},"Ǫ":{"ha":860,"x_min":79,"x_max":779,"o":"m 430 -15 q 305 10 367 -15 q 191 88 242 35 q 110 225 140 141 q 79 427 79 309 q 110 629 79 545 q 191 765 140 713 q 305 843 242 818 q 430 868 367 868 q 554 843 492 868 q 667 765 616 818 q 749 629 718 713 q 779 427 779 545 q 749 225 779 309 q 667 88 718 141 q 554 10 616 35 q 430 -15 492 -15 m 430 29 q 574 71 504 29 q 688 201 643 113 q 733 427 733 289 q 688 652 733 565 q 574 782 643 740 q 430 824 504 824 q 285 782 356 824 q 170 652 215 740 q 126 427 126 565 q 170 201 126 289 q 285 71 215 113 q 430 29 356 29 m 624 -252 q 556 -239 588 -252 q 505 -200 524 -226 q 485 -133 485 -174 q 498 -72 485 -104 q 529 -11 510 -39 q 567 35 548 17 q 601 53 587 53 l 624 53 q 587 11 608 42 q 550 -59 566 -20 q 535 -135 535 -99 q 561 -192 535 -175 q 619 -210 587 -210 q 639 -209 629 -210 q 658 -206 649 -208 q 667 -205 663 -205 q 675 -204 672 -204 q 695 -210 688 -204 q 702 -224 702 -215 q 675 -247 702 -241 q 624 -252 649 -252 z "},"Ø":{"ha":860,"x_min":79,"x_max":779,"o":"m 740 904 q 754 899 748 904 q 760 884 760 894 q 758 874 760 879 q 751 861 756 868 l 151 -25 q 136 -44 142 -38 q 118 -50 130 -50 q 106 -45 111 -50 q 101 -32 101 -41 q 103 -20 101 -26 q 110 -7 105 -14 l 710 879 q 725 898 719 892 q 740 904 731 904 m 430 -15 q 305 10 367 -15 q 191 88 242 35 q 110 225 140 141 q 79 427 79 309 q 110 629 79 545 q 191 765 140 713 q 305 843 242 818 q 430 868 367 868 q 554 843 492 868 q 667 765 616 818 q 749 629 718 713 q 779 427 779 545 q 749 225 779 309 q 667 88 718 141 q 554 10 616 35 q 430 -15 492 -15 m 430 29 q 574 71 504 29 q 688 201 643 113 q 733 427 733 289 q 688 652 733 565 q 574 782 643 740 q 430 824 504 824 q 285 782 356 824 q 170 652 215 740 q 126 427 126 565 q 170 201 126 289 q 285 71 215 113 q 430 29 356 29 z "},"Ǿ":{"ha":860,"x_min":79,"x_max":779,"o":"m 740 904 q 754 899 748 904 q 760 884 760 894 q 758 874 760 879 q 751 861 756 868 l 151 -25 q 136 -44 142 -38 q 118 -50 130 -50 q 106 -45 111 -50 q 101 -32 101 -41 q 103 -20 101 -26 q 110 -7 105 -14 l 710 879 q 725 898 719 892 q 740 904 731 904 m 430 -15 q 305 10 367 -15 q 191 88 242 35 q 110 225 140 141 q 79 427 79 309 q 110 629 79 545 q 191 765 140 713 q 305 843 242 818 q 430 868 367 868 q 554 843 492 868 q 667 765 616 818 q 749 629 718 713 q 779 427 779 545 q 749 225 779 309 q 667 88 718 141 q 554 10 616 35 q 430 -15 492 -15 m 430 29 q 574 71 504 29 q 688 201 643 113 q 733 427 733 289 q 688 652 733 565 q 574 782 643 740 q 430 824 504 824 q 285 782 356 824 q 170 652 215 740 q 126 427 126 565 q 170 201 126 289 q 285 71 215 113 q 430 29 356 29 m 397 924 q 389 927 394 924 q 383 935 383 929 q 403 969 383 943 l 482 1072 q 500 1089 492 1084 q 523 1094 508 1094 l 534 1094 q 549 1091 542 1094 q 555 1082 555 1088 q 542 1060 555 1073 l 436 949 q 415 931 425 938 q 397 924 406 924 z "},"Õ":{"ha":860,"x_min":79,"x_max":779,"o":"m 430 -15 q 305 10 367 -15 q 191 88 242 35 q 110 225 140 141 q 79 427 79 309 q 110 629 79 545 q 191 765 140 713 q 305 843 242 818 q 430 868 367 868 q 554 843 492 868 q 667 765 616 818 q 749 629 718 713 q 779 427 779 545 q 749 225 779 309 q 667 88 718 141 q 554 10 616 35 q 430 -15 492 -15 m 430 29 q 574 71 504 29 q 688 201 643 113 q 733 427 733 289 q 688 652 733 565 q 574 782 643 740 q 430 824 504 824 q 285 782 356 824 q 170 652 215 740 q 126 427 126 565 q 170 201 126 289 q 285 71 215 113 q 430 29 356 29 m 499 949 q 451 960 468 949 q 417 988 433 972 q 389 1009 401 1002 q 356 1017 377 1017 q 317 1008 334 1017 q 288 989 300 999 q 259 972 269 972 q 246 978 252 972 q 240 992 240 984 q 258 1022 240 1005 q 303 1049 276 1035 q 359 1063 329 1063 q 407 1052 390 1063 q 440 1025 424 1041 q 467 1002 455 1010 q 501 994 480 994 q 539 1003 523 994 q 567 1022 556 1011 q 586 1037 576 1031 q 603 1042 595 1042 q 617 1038 611 1042 q 622 1024 622 1033 q 617 1009 622 1013 q 572 972 603 994 q 499 949 540 949 z "},"Ȭ":{"ha":860,"x_min":79,"x_max":779,"o":"m 430 -15 q 305 10 367 -15 q 191 88 242 35 q 110 225 140 141 q 79 427 79 309 q 110 629 79 545 q 191 765 140 713 q 305 843 242 818 q 430 868 367 868 q 554 843 492 868 q 667 765 616 818 q 749 629 718 713 q 779 427 779 545 q 749 225 779 309 q 667 88 718 141 q 554 10 616 35 q 430 -15 492 -15 m 430 29 q 574 71 504 29 q 688 201 643 113 q 733 427 733 289 q 688 652 733 565 q 574 782 643 740 q 430 824 504 824 q 285 782 356 824 q 170 652 215 740 q 126 427 126 565 q 170 201 126 289 q 285 71 215 113 q 430 29 356 29 m 499 935 q 451 946 469 935 q 417 973 434 957 q 390 995 402 988 q 357 1002 378 1002 q 318 993 335 1002 q 289 974 301 985 q 273 962 281 967 q 260 957 265 957 q 247 963 253 957 q 240 977 240 969 q 259 1007 240 990 q 303 1035 277 1021 q 360 1049 330 1049 q 407 1038 390 1049 q 441 1010 424 1026 q 468 988 456 996 q 501 979 481 979 q 540 988 524 979 q 567 1007 556 997 q 586 1022 577 1017 q 604 1028 596 1028 q 617 1023 612 1028 q 623 1008 623 1018 q 617 994 623 998 q 573 957 604 979 q 499 935 541 935 m 206 1181 q 216 1197 206 1191 q 245 1202 226 1202 l 615 1202 q 644 1197 634 1202 q 654 1181 654 1191 q 644 1165 654 1170 q 615 1159 634 1159 l 245 1159 q 216 1165 226 1159 q 206 1181 206 1170 z "},"Œ":{"ha":860,"x_min":37,"x_max":805,"o":"m 805 839 q 795 823 805 829 q 765 817 785 817 l 499 817 l 499 443 l 701 443 q 730 438 720 443 q 740 422 740 432 q 730 407 740 413 q 701 401 720 401 l 499 401 l 499 42 l 765 42 q 795 37 785 42 q 805 21 805 31 q 795 6 805 11 q 765 0 785 0 l 495 0 q 466 10 476 0 q 456 40 456 20 l 456 143 q 372 22 422 58 q 269 -15 322 -15 q 184 9 226 -15 q 110 83 143 32 q 57 219 76 135 q 37 427 37 304 q 57 634 37 550 q 110 770 76 719 q 184 845 143 822 q 269 868 226 868 q 372 832 322 868 q 456 711 422 796 l 456 820 q 466 850 456 840 q 495 860 476 860 l 765 860 q 795 855 785 860 q 805 839 805 849 m 83 427 q 110 195 83 283 q 178 68 136 108 q 269 29 221 29 q 358 68 317 29 q 426 195 400 108 q 452 427 452 283 q 426 659 452 572 q 358 785 400 746 q 269 824 317 824 q 178 785 221 824 q 110 659 136 746 q 83 427 83 572 z "},"P":{"ha":860,"x_min":187,"x_max":728,"o":"m 230 817 l 230 373 l 430 373 q 505 380 463 373 q 589 408 548 386 q 656 476 629 430 q 683 601 683 522 q 656 724 683 680 q 589 788 629 768 q 505 813 548 808 q 430 817 463 817 l 230 817 m 433 331 l 230 331 l 230 40 q 208 0 230 0 q 187 40 187 0 l 187 820 q 226 860 187 860 l 433 860 q 503 856 465 860 q 582 838 542 851 q 655 795 622 824 q 708 720 688 767 q 728 601 728 673 q 708 481 728 529 q 655 402 688 432 q 582 357 622 372 q 503 336 542 341 q 433 331 465 331 z "},"Þ":{"ha":860,"x_min":200,"x_max":688,"o":"m 399 666 q 472 663 433 666 q 549 648 510 659 q 618 611 587 636 q 668 545 649 587 q 688 440 688 503 q 668 326 688 372 q 618 254 649 281 q 549 213 587 226 q 472 194 510 199 q 399 190 433 190 l 243 190 l 243 23 q 238 -5 243 3 q 222 -13 232 -13 q 200 23 200 -13 l 200 830 q 222 867 200 867 q 243 830 243 867 l 243 666 l 399 666 m 417 232 q 488 238 449 232 q 562 265 527 244 q 620 326 597 285 q 643 440 643 368 q 620 544 643 506 q 562 598 597 581 q 488 619 527 615 q 417 624 449 624 l 243 624 l 243 232 l 417 232 z "},"Q":{"ha":860,"x_min":79,"x_max":779,"o":"m 671 -188 q 568 -165 622 -188 q 474 -102 514 -142 q 430 -15 435 -63 q 305 10 367 -15 q 191 88 242 35 q 110 225 140 141 q 79 427 79 309 q 110 629 79 545 q 191 765 140 713 q 305 843 242 818 q 430 868 367 868 q 554 843 492 868 q 667 765 616 818 q 749 629 718 713 q 779 427 779 545 q 736 193 779 285 q 624 50 692 100 q 480 -11 556 1 q 521 -80 490 -52 q 591 -123 552 -107 q 662 -144 630 -138 q 693 -153 685 -147 q 701 -167 701 -159 q 692 -184 701 -180 q 671 -188 683 -188 m 126 427 q 170 201 126 289 q 285 71 215 113 q 430 29 356 29 q 574 71 504 29 q 688 201 643 113 q 733 427 733 289 q 688 652 733 565 q 574 782 643 740 q 430 824 504 824 q 285 782 356 824 q 170 652 215 740 q 126 427 126 565 z "},"R":{"ha":860,"x_min":181,"x_max":735,"o":"m 225 817 l 225 457 l 491 457 q 635 506 580 457 q 690 644 690 555 q 631 775 690 733 q 478 817 572 817 l 225 817 m 181 33 l 181 820 q 221 860 181 860 l 478 860 q 578 848 532 860 q 660 810 625 836 q 716 744 696 785 q 735 644 735 703 q 677 483 735 539 q 539 417 619 428 l 714 33 q 717 23 717 28 q 718 15 718 19 q 712 -2 718 3 q 698 -7 706 -7 q 680 1 685 -7 q 666 24 674 8 l 488 415 l 225 415 l 225 33 q 203 -7 225 -7 q 181 33 181 -7 z "},"Ŕ":{"ha":860,"x_min":181,"x_max":735,"o":"m 225 817 l 225 457 l 491 457 q 635 506 580 457 q 690 644 690 555 q 631 775 690 733 q 478 817 572 817 l 225 817 m 181 33 l 181 820 q 221 860 181 860 l 478 860 q 578 848 532 860 q 660 810 625 836 q 716 744 696 785 q 735 644 735 703 q 677 483 735 539 q 539 417 619 428 l 714 33 q 717 23 717 28 q 718 15 718 19 q 712 -2 718 3 q 698 -7 706 -7 q 680 1 685 -7 q 666 24 674 8 l 488 415 l 225 415 l 225 33 q 203 -7 225 -7 q 181 33 181 -7 m 396 924 q 388 927 393 924 q 382 935 382 929 q 402 969 382 943 l 481 1072 q 498 1089 490 1084 q 522 1094 506 1094 l 533 1094 q 547 1091 541 1094 q 553 1082 553 1088 q 541 1060 553 1073 l 435 949 q 414 931 424 938 q 396 924 404 924 z "},"Ř":{"ha":860,"x_min":181,"x_max":735,"o":"m 225 817 l 225 457 l 491 457 q 635 506 580 457 q 690 644 690 555 q 631 775 690 733 q 478 817 572 817 l 225 817 m 181 33 l 181 820 q 221 860 181 860 l 478 860 q 578 848 532 860 q 660 810 625 836 q 716 744 696 785 q 735 644 735 703 q 677 483 735 539 q 539 417 619 428 l 714 33 q 717 23 717 28 q 718 15 718 19 q 712 -2 718 3 q 698 -7 706 -7 q 680 1 685 -7 q 666 24 674 8 l 488 415 l 225 415 l 225 33 q 203 -7 225 -7 q 181 33 181 -7 m 560 1023 l 469 933 q 448 917 458 922 q 428 912 439 912 q 407 917 417 912 q 387 933 398 922 l 297 1023 q 282 1053 282 1038 q 287 1067 282 1061 q 299 1072 292 1072 q 315 1067 309 1072 q 332 1051 322 1063 l 428 951 l 524 1051 q 541 1067 534 1062 q 556 1072 547 1072 q 570 1067 565 1072 q 576 1054 576 1062 q 572 1040 576 1048 q 560 1023 568 1032 z "},"Ŗ":{"ha":860,"x_min":181,"x_max":735,"o":"m 225 817 l 225 457 l 491 457 q 635 506 580 457 q 690 644 690 555 q 631 775 690 733 q 478 817 572 817 l 225 817 m 181 33 l 181 820 q 221 860 181 860 l 478 860 q 578 848 532 860 q 660 810 625 836 q 716 744 696 785 q 735 644 735 703 q 677 483 735 539 q 539 417 619 428 l 714 33 q 717 23 717 28 q 718 15 718 19 q 712 -2 718 3 q 698 -7 706 -7 q 680 1 685 -7 q 666 24 674 8 l 488 415 l 225 415 l 225 33 q 203 -7 225 -7 q 181 33 181 -7 m 417 -68 q 456 -83 440 -68 q 472 -124 472 -98 q 460 -188 472 -150 q 410 -256 449 -226 q 398 -264 403 -261 q 388 -266 393 -266 q 381 -262 383 -266 q 378 -256 378 -258 q 382 -246 378 -251 q 394 -235 387 -240 q 417 -210 409 -225 q 428 -179 426 -195 q 423 -180 427 -180 q 417 -180 419 -180 q 377 -164 394 -180 q 361 -124 361 -148 q 377 -85 361 -101 q 417 -68 394 -68 z "},"Ȑ":{"ha":860,"x_min":181,"x_max":735,"o":"m 225 817 l 225 457 l 491 457 q 635 506 580 457 q 690 644 690 555 q 631 775 690 733 q 478 817 572 817 l 225 817 m 181 33 l 181 820 q 221 860 181 860 l 478 860 q 578 848 532 860 q 660 810 625 836 q 716 744 696 785 q 735 644 735 703 q 677 483 735 539 q 539 417 619 428 l 714 33 q 717 23 717 28 q 718 15 718 19 q 712 -2 718 3 q 698 -7 706 -7 q 680 1 685 -7 q 666 24 674 8 l 488 415 l 225 415 l 225 33 q 203 -7 225 -7 q 181 33 181 -7 m 353 915 q 334 922 344 915 q 313 940 325 928 l 208 1050 q 198 1063 201 1058 q 195 1073 195 1069 q 201 1082 195 1079 q 216 1085 208 1085 l 227 1085 q 251 1080 242 1085 q 268 1063 259 1074 l 347 960 q 367 926 367 934 q 361 918 367 920 q 353 915 356 915 m 538 915 q 520 922 529 915 q 499 940 510 928 l 393 1050 q 381 1073 381 1063 q 387 1082 381 1079 q 401 1085 393 1085 l 412 1085 q 436 1080 428 1085 q 453 1063 444 1074 l 532 960 q 547 939 542 947 q 551 926 551 931 q 546 918 551 920 q 538 915 541 915 z "},"Ȓ":{"ha":860,"x_min":181,"x_max":735,"o":"m 225 817 l 225 457 l 491 457 q 635 506 580 457 q 690 644 690 555 q 631 775 690 733 q 478 817 572 817 l 225 817 m 181 33 l 181 820 q 221 860 181 860 l 478 860 q 578 848 532 860 q 660 810 625 836 q 716 744 696 785 q 735 644 735 703 q 677 483 735 539 q 539 417 619 428 l 714 33 q 717 23 717 28 q 718 15 718 19 q 712 -2 718 3 q 698 -7 706 -7 q 680 1 685 -7 q 666 24 674 8 l 488 415 l 225 415 l 225 33 q 203 -7 225 -7 q 181 33 181 -7 m 546 928 q 528 938 534 928 q 519 965 522 947 q 493 1024 513 996 q 428 1052 474 1052 q 364 1024 384 1052 q 338 965 343 996 q 328 937 334 947 q 310 928 322 928 q 295 935 301 928 q 290 956 290 942 q 290 963 290 960 q 290 969 290 967 q 334 1055 300 1019 q 427 1092 368 1092 q 520 1055 485 1092 q 566 969 556 1019 q 567 963 567 967 q 567 956 567 960 q 561 935 567 942 q 546 928 556 928 z "},"S":{"ha":860,"x_min":112,"x_max":744,"o":"m 432 -15 q 244 23 322 -15 q 124 116 167 60 q 112 144 112 131 q 120 161 112 156 q 136 167 128 167 q 152 161 144 167 q 168 143 160 155 q 270 61 204 93 q 432 29 335 29 q 559 51 499 29 q 658 113 620 72 q 697 211 697 154 q 626 342 697 293 q 428 426 556 391 q 210 519 283 467 q 138 668 138 572 q 179 777 138 732 q 288 845 221 822 q 433 868 356 868 q 596 834 525 868 q 706 742 667 800 q 714 728 711 735 q 716 715 716 721 q 709 699 716 705 q 695 694 702 694 q 680 700 688 694 q 664 719 672 707 q 574 794 634 764 q 433 824 515 824 q 314 806 371 824 q 221 752 257 787 q 185 668 185 717 q 245 551 185 594 q 428 474 306 509 q 607 406 538 442 q 710 324 677 371 q 744 212 744 278 q 700 89 744 140 q 585 12 656 38 q 432 -15 514 -15 z "},"Ś":{"ha":860,"x_min":112,"x_max":744,"o":"m 432 -15 q 244 23 322 -15 q 124 116 167 60 q 112 144 112 131 q 120 161 112 156 q 136 167 128 167 q 152 161 144 167 q 168 143 160 155 q 270 61 204 93 q 432 29 335 29 q 559 51 499 29 q 658 113 620 72 q 697 211 697 154 q 626 342 697 293 q 428 426 556 391 q 210 519 283 467 q 138 668 138 572 q 179 777 138 732 q 288 845 221 822 q 433 868 356 868 q 596 834 525 868 q 706 742 667 800 q 714 728 711 735 q 716 715 716 721 q 709 699 716 705 q 695 694 702 694 q 680 700 688 694 q 664 719 672 707 q 574 794 634 764 q 433 824 515 824 q 314 806 371 824 q 221 752 257 787 q 185 668 185 717 q 245 551 185 594 q 428 474 306 509 q 607 406 538 442 q 710 324 677 371 q 744 212 744 278 q 700 89 744 140 q 585 12 656 38 q 432 -15 514 -15 m 401 933 q 392 935 398 933 q 387 944 387 938 q 407 978 387 951 l 485 1080 q 503 1097 495 1092 q 526 1102 511 1102 l 538 1102 q 552 1099 546 1102 q 558 1090 558 1097 q 546 1068 558 1081 l 440 958 q 419 939 428 946 q 401 933 409 933 z "},"Š":{"ha":860,"x_min":112,"x_max":744,"o":"m 432 -15 q 244 23 322 -15 q 124 116 167 60 q 112 144 112 131 q 120 161 112 156 q 136 167 128 167 q 152 161 144 167 q 168 143 160 155 q 270 61 204 93 q 432 29 335 29 q 559 51 499 29 q 658 113 620 72 q 697 211 697 154 q 626 342 697 293 q 428 426 556 391 q 210 519 283 467 q 138 668 138 572 q 179 777 138 732 q 288 845 221 822 q 433 868 356 868 q 596 834 525 868 q 706 742 667 800 q 714 728 711 735 q 716 715 716 721 q 709 699 716 705 q 695 694 702 694 q 680 700 688 694 q 664 719 672 707 q 574 794 634 764 q 433 824 515 824 q 314 806 371 824 q 221 752 257 787 q 185 668 185 717 q 245 551 185 594 q 428 474 306 509 q 607 406 538 442 q 710 324 677 371 q 744 212 744 278 q 700 89 744 140 q 585 12 656 38 q 432 -15 514 -15 m 565 1031 l 474 941 q 453 925 463 930 q 433 920 444 920 q 412 925 422 920 q 392 941 403 930 l 301 1031 q 287 1061 287 1046 q 292 1075 287 1069 q 304 1081 297 1081 q 320 1076 314 1081 q 337 1060 326 1071 l 433 960 l 528 1059 q 545 1075 539 1070 q 561 1081 552 1081 q 575 1075 570 1081 q 581 1063 581 1070 q 577 1048 581 1056 q 565 1031 573 1040 z "},"Ş":{"ha":860,"x_min":112,"x_max":744,"o":"m 408 -289 q 383 -288 396 -289 q 356 -285 369 -287 q 321 -260 321 -277 q 327 -246 321 -251 q 346 -241 333 -241 q 365 -243 354 -241 q 386 -245 372 -244 q 410 -247 399 -247 q 506 -225 466 -247 q 546 -164 546 -204 q 531 -128 546 -139 q 494 -117 516 -117 q 455 -121 471 -117 q 426 -130 439 -124 q 409 -136 417 -133 q 390 -138 400 -138 q 377 -134 382 -138 q 372 -121 372 -131 q 373 -110 372 -117 q 377 -97 375 -103 l 403 -14 q 234 27 305 -8 q 124 116 164 63 q 112 144 112 131 q 120 161 112 156 q 136 167 128 167 q 152 161 144 167 q 168 143 160 155 q 270 61 204 93 q 432 29 335 29 q 559 51 499 29 q 658 113 620 72 q 697 211 697 154 q 626 342 697 293 q 428 426 556 391 q 210 519 283 467 q 138 668 138 572 q 179 777 138 732 q 288 845 221 822 q 433 868 356 868 q 596 834 525 868 q 706 742 667 800 q 714 728 711 735 q 716 715 716 721 q 709 699 716 705 q 695 694 702 694 q 680 700 688 694 q 664 719 672 707 q 574 794 634 764 q 433 824 515 824 q 314 806 371 824 q 221 752 257 787 q 185 668 185 717 q 245 551 185 594 q 428 474 306 509 q 607 406 538 442 q 710 324 677 371 q 744 212 744 278 q 702 92 744 142 q 592 15 660 42 q 445 -15 524 -12 l 419 -101 q 458 -85 435 -92 q 505 -78 481 -78 q 549 -85 528 -78 q 582 -110 569 -93 q 594 -154 594 -127 q 569 -230 594 -199 q 501 -274 543 -260 q 408 -289 459 -289 z "},"Ŝ":{"ha":860,"x_min":112,"x_max":744,"o":"m 432 -15 q 244 23 322 -15 q 124 116 167 60 q 112 144 112 131 q 120 161 112 156 q 136 167 128 167 q 152 161 144 167 q 168 143 160 155 q 270 61 204 93 q 432 29 335 29 q 559 51 499 29 q 658 113 620 72 q 697 211 697 154 q 626 342 697 293 q 428 426 556 391 q 210 519 283 467 q 138 668 138 572 q 179 777 138 732 q 288 845 221 822 q 433 868 356 868 q 596 834 525 868 q 706 742 667 800 q 714 728 711 735 q 716 715 716 721 q 709 699 716 705 q 695 694 702 694 q 680 700 688 694 q 664 719 672 707 q 574 794 634 764 q 433 824 515 824 q 314 806 371 824 q 221 752 257 787 q 185 668 185 717 q 245 551 185 594 q 428 474 306 509 q 607 406 538 442 q 710 324 677 371 q 744 212 744 278 q 700 89 744 140 q 585 12 656 38 q 432 -15 514 -15 m 565 975 q 581 944 581 958 q 576 931 581 936 q 561 926 570 926 q 546 931 552 926 q 529 947 540 936 l 433 1047 l 337 947 q 320 931 326 935 q 305 926 315 926 q 292 932 297 926 q 287 946 287 937 q 290 960 287 952 q 301 975 294 967 l 392 1066 q 413 1082 403 1077 q 433 1086 422 1086 q 453 1082 444 1086 q 474 1066 463 1077 l 565 975 z "},"Ș":{"ha":860,"x_min":112,"x_max":744,"o":"m 432 -15 q 244 23 322 -15 q 124 116 167 60 q 112 144 112 131 q 120 161 112 156 q 136 167 128 167 q 152 161 144 167 q 168 143 160 155 q 270 61 204 93 q 432 29 335 29 q 559 51 499 29 q 658 113 620 72 q 697 211 697 154 q 626 342 697 293 q 428 426 556 391 q 210 519 283 467 q 138 668 138 572 q 179 777 138 732 q 288 845 221 822 q 433 868 356 868 q 596 834 525 868 q 706 742 667 800 q 714 728 711 735 q 716 715 716 721 q 709 699 716 705 q 695 694 702 694 q 680 700 688 694 q 664 719 672 707 q 574 794 634 764 q 433 824 515 824 q 314 806 371 824 q 221 752 257 787 q 185 668 185 717 q 245 551 185 594 q 428 474 306 509 q 607 406 538 442 q 710 324 677 371 q 744 212 744 278 q 700 89 744 140 q 585 12 656 38 q 432 -15 514 -15 m 449 -68 q 487 -83 471 -68 q 503 -124 503 -98 q 492 -188 503 -150 q 441 -256 480 -226 q 430 -264 435 -261 q 419 -266 424 -266 q 412 -262 415 -266 q 409 -256 409 -258 q 414 -246 409 -251 q 426 -235 418 -240 q 449 -210 440 -225 q 460 -179 457 -195 q 455 -180 458 -180 q 449 -180 451 -180 q 409 -164 425 -180 q 392 -124 392 -148 q 409 -85 392 -101 q 449 -68 425 -68 z "},"ẞ":{"ha":860,"x_min":152,"x_max":733,"o":"m 494 507 q 509 475 494 490 q 549 449 525 461 q 603 419 572 438 q 664 370 635 400 q 713 299 694 341 q 733 201 733 258 q 694 81 733 128 q 592 9 656 33 q 447 -15 527 -15 q 373 -11 412 -15 q 308 3 335 -7 q 281 31 281 13 q 284 41 281 37 q 292 46 287 44 q 306 48 298 48 q 351 41 325 48 q 389 33 367 37 q 447 29 412 29 q 555 43 500 29 q 648 94 610 57 q 685 201 685 131 q 658 305 685 263 q 593 371 631 346 q 526 411 556 397 q 471 450 494 427 q 449 506 449 473 q 468 564 449 540 q 508 608 488 587 q 565 667 536 638 q 614 724 594 696 q 633 778 633 752 q 617 811 633 804 q 583 817 601 817 l 353 817 q 264 806 299 817 q 213 752 229 794 q 196 618 196 710 l 196 40 q 174 0 196 0 q 152 40 152 0 l 152 626 q 164 740 152 694 q 199 812 175 785 q 261 849 223 838 q 353 860 299 860 l 584 860 q 651 844 623 860 q 680 783 680 828 q 657 711 680 747 q 600 642 633 676 q 538 576 567 608 q 507 542 521 558 q 494 507 494 526 z "},"T":{"ha":860,"x_min":111,"x_max":749,"o":"m 709 860 q 749 839 749 860 q 739 823 749 829 q 709 817 728 817 l 451 817 l 451 33 q 429 -7 451 -7 q 408 33 408 -7 l 408 817 l 151 817 q 121 823 131 817 q 111 839 111 829 q 121 854 111 849 q 151 860 131 860 l 709 860 z "},"Ŧ":{"ha":860,"x_min":111,"x_max":749,"o":"m 206 463 q 217 479 206 473 q 251 485 229 485 l 611 485 q 646 479 634 485 q 658 463 658 473 q 646 448 658 453 q 611 442 634 442 l 251 442 q 217 448 229 442 q 206 463 206 453 m 709 860 q 749 839 749 860 q 739 823 749 829 q 709 817 728 817 l 451 817 l 451 33 q 429 -7 451 -7 q 408 33 408 -7 l 408 817 l 151 817 q 121 823 131 817 q 111 839 111 829 q 121 854 111 849 q 151 860 131 860 l 709 860 z "},"Ť":{"ha":860,"x_min":111,"x_max":749,"o":"m 709 860 q 749 839 749 860 q 739 823 749 829 q 709 817 728 817 l 451 817 l 451 33 q 429 -7 451 -7 q 408 33 408 -7 l 408 817 l 151 817 q 121 823 131 817 q 111 839 111 829 q 121 854 111 849 q 151 860 131 860 l 709 860 m 563 1023 l 472 933 q 451 917 460 922 q 431 912 442 912 q 410 917 419 912 q 390 933 401 922 l 299 1023 q 285 1053 285 1038 q 290 1067 285 1061 q 302 1072 294 1072 q 318 1067 312 1072 q 335 1051 324 1063 l 431 951 l 526 1051 q 543 1067 537 1062 q 559 1072 550 1072 q 573 1067 568 1072 q 578 1054 578 1062 q 575 1040 578 1048 q 563 1023 571 1032 z "},"Ţ":{"ha":860,"x_min":111,"x_max":749,"o":"m 709 860 q 749 839 749 860 q 739 823 749 829 q 709 817 728 817 l 451 817 l 451 33 q 429 -7 451 -7 q 408 33 408 -7 l 408 817 l 151 817 q 121 823 131 817 q 111 839 111 829 q 121 854 111 849 q 151 860 131 860 l 709 860 m 408 -278 q 383 -278 396 -278 q 356 -274 369 -277 q 321 -250 321 -267 q 327 -235 321 -240 q 346 -231 333 -231 q 365 -233 354 -231 q 386 -235 372 -234 q 410 -236 399 -236 q 506 -215 466 -236 q 546 -153 546 -194 q 531 -118 546 -128 q 494 -107 516 -107 q 455 -110 471 -107 q 426 -119 439 -114 q 409 -125 417 -123 q 390 -128 400 -128 q 377 -124 382 -128 q 372 -110 372 -120 q 373 -100 372 -106 q 377 -87 375 -93 l 410 19 q 433 31 415 31 q 447 28 443 31 q 451 18 451 24 l 419 -90 q 458 -74 435 -81 q 505 -67 481 -67 q 549 -75 528 -67 q 582 -100 569 -83 q 594 -144 594 -117 q 569 -219 594 -189 q 501 -264 543 -249 q 408 -278 459 -278 z "},"Ț":{"ha":860,"x_min":111,"x_max":749,"o":"m 709 860 q 749 839 749 860 q 739 823 749 829 q 709 817 728 817 l 451 817 l 451 33 q 429 -7 451 -7 q 408 33 408 -7 l 408 817 l 151 817 q 121 823 131 817 q 111 839 111 829 q 121 854 111 849 q 151 860 131 860 l 709 860 m 449 -58 q 487 -73 471 -58 q 503 -114 503 -87 q 492 -177 503 -140 q 441 -246 480 -215 q 430 -253 435 -251 q 419 -256 424 -256 q 412 -252 415 -256 q 409 -246 409 -248 q 414 -235 409 -241 q 426 -224 418 -230 q 449 -200 440 -215 q 460 -169 457 -185 q 455 -169 458 -169 q 449 -169 451 -169 q 409 -153 425 -169 q 392 -114 392 -137 q 409 -74 392 -91 q 449 -58 425 -58 z "},"U":{"ha":860,"x_min":119,"x_max":740,"o":"m 431 -15 q 273 26 344 -15 q 161 153 203 67 q 119 376 119 239 l 119 820 q 142 860 119 860 q 163 820 163 860 l 163 378 q 236 117 163 205 q 431 29 310 29 q 625 117 553 29 q 697 378 697 205 l 697 820 q 718 860 697 860 q 740 820 740 860 l 740 376 q 699 153 740 239 q 588 26 658 67 q 431 -15 518 -15 z "},"Ú":{"ha":860,"x_min":119,"x_max":740,"o":"m 431 -15 q 273 26 344 -15 q 161 153 203 67 q 119 376 119 239 l 119 820 q 142 860 119 860 q 163 820 163 860 l 163 378 q 236 117 163 205 q 431 29 310 29 q 625 117 553 29 q 697 378 697 205 l 697 820 q 718 860 697 860 q 740 820 740 860 l 740 376 q 699 153 740 239 q 588 26 658 67 q 431 -15 518 -15 m 397 924 q 388 927 394 924 q 383 935 383 929 q 403 969 383 943 l 481 1072 q 499 1089 491 1084 q 522 1094 507 1094 l 533 1094 q 548 1091 542 1094 q 554 1082 554 1088 q 542 1060 554 1073 l 435 949 q 415 931 424 938 q 397 924 405 924 z "},"Ŭ":{"ha":860,"x_min":119,"x_max":740,"o":"m 431 -15 q 273 26 344 -15 q 161 153 203 67 q 119 376 119 239 l 119 820 q 142 860 119 860 q 163 820 163 860 l 163 378 q 236 117 163 205 q 431 29 310 29 q 625 117 553 29 q 697 378 697 205 l 697 820 q 718 860 697 860 q 740 820 740 860 l 740 376 q 699 153 740 239 q 588 26 658 67 q 431 -15 518 -15 m 547 1092 q 562 1084 556 1092 q 568 1063 568 1077 q 568 1057 568 1060 q 567 1050 567 1053 q 521 964 556 1001 q 428 928 486 928 q 335 964 369 928 q 291 1050 301 1001 q 290 1057 290 1053 q 290 1063 290 1060 q 296 1084 290 1077 q 311 1092 302 1092 q 329 1082 323 1092 q 338 1055 335 1073 q 364 996 344 1024 q 429 967 385 967 q 494 996 474 967 q 519 1054 514 1024 q 529 1082 523 1072 q 547 1092 535 1092 z "},"Ǔ":{"ha":860,"x_min":119,"x_max":740,"o":"m 431 -15 q 273 26 344 -15 q 161 153 203 67 q 119 376 119 239 l 119 820 q 142 860 119 860 q 163 820 163 860 l 163 378 q 236 117 163 205 q 431 29 310 29 q 625 117 553 29 q 697 378 697 205 l 697 820 q 718 860 697 860 q 740 820 740 860 l 740 376 q 699 153 740 239 q 588 26 658 67 q 431 -15 518 -15 m 560 1023 l 469 933 q 449 917 458 922 q 428 912 440 912 q 408 917 417 912 q 388 933 399 922 l 297 1023 q 283 1053 283 1038 q 288 1067 283 1061 q 300 1072 292 1072 q 316 1067 310 1072 q 333 1051 322 1063 l 429 951 l 524 1051 q 541 1067 535 1062 q 557 1072 548 1072 q 571 1067 566 1072 q 576 1054 576 1062 q 573 1040 576 1048 q 560 1023 569 1032 z "},"Û":{"ha":860,"x_min":119,"x_max":740,"o":"m 431 -15 q 273 26 344 -15 q 161 153 203 67 q 119 376 119 239 l 119 820 q 142 860 119 860 q 163 820 163 860 l 163 378 q 236 117 163 205 q 431 29 310 29 q 625 117 553 29 q 697 378 697 205 l 697 820 q 718 860 697 860 q 740 820 740 860 l 740 376 q 699 153 740 239 q 588 26 658 67 q 431 -15 518 -15 m 560 967 q 577 936 577 950 q 572 923 577 928 q 557 918 566 918 q 542 923 548 918 q 525 939 535 928 l 429 1038 l 333 938 q 316 923 322 927 q 301 918 310 918 q 288 923 292 918 q 283 938 283 928 q 286 951 283 944 q 297 967 290 959 l 388 1058 q 408 1073 399 1069 q 428 1078 418 1078 q 449 1073 440 1078 q 470 1058 459 1069 l 560 967 z "},"Ȕ":{"ha":860,"x_min":119,"x_max":740,"o":"m 431 -15 q 273 26 344 -15 q 161 153 203 67 q 119 376 119 239 l 119 820 q 142 860 119 860 q 163 820 163 860 l 163 378 q 236 117 163 205 q 431 29 310 29 q 625 117 553 29 q 697 378 697 205 l 697 820 q 718 860 697 860 q 740 820 740 860 l 740 376 q 699 153 740 239 q 588 26 658 67 q 431 -15 518 -15 m 353 915 q 335 922 344 915 q 314 940 326 928 l 208 1050 q 199 1063 201 1058 q 196 1073 196 1069 q 202 1082 196 1079 q 217 1085 208 1085 l 228 1085 q 251 1080 243 1085 q 269 1063 260 1074 l 347 960 q 367 926 367 934 q 362 918 367 920 q 353 915 357 915 m 538 915 q 520 922 530 915 q 499 940 511 928 l 394 1050 q 381 1073 381 1063 q 388 1082 381 1079 q 401 1085 394 1085 l 413 1085 q 436 1080 428 1085 q 453 1063 444 1074 l 533 960 q 547 939 542 947 q 552 926 552 931 q 547 918 552 920 q 538 915 542 915 z "},"Ü":{"ha":860,"x_min":119,"x_max":740,"o":"m 431 -15 q 273 26 344 -15 q 161 153 203 67 q 119 376 119 239 l 119 820 q 142 860 119 860 q 163 820 163 860 l 163 378 q 236 117 163 205 q 431 29 310 29 q 625 117 553 29 q 697 378 697 205 l 697 820 q 718 860 697 860 q 740 820 740 860 l 740 376 q 699 153 740 239 q 588 26 658 67 q 431 -15 518 -15 m 301 957 q 260 974 277 957 q 242 1017 242 992 q 260 1059 242 1041 q 301 1076 277 1076 q 344 1059 326 1076 q 361 1017 361 1041 q 344 974 361 992 q 301 957 326 957 m 557 957 q 515 974 532 957 q 497 1017 497 992 q 515 1059 497 1041 q 557 1076 532 1076 q 599 1059 581 1076 q 617 1017 617 1041 q 599 974 617 992 q 557 957 581 957 z "},"Ǘ":{"ha":860,"x_min":119,"x_max":740,"o":"m 431 -15 q 273 26 344 -15 q 161 153 203 67 q 119 376 119 239 l 119 820 q 142 860 119 860 q 163 820 163 860 l 163 378 q 236 117 163 205 q 431 29 310 29 q 625 117 553 29 q 697 378 697 205 l 697 820 q 718 860 697 860 q 740 820 740 860 l 740 376 q 699 153 740 239 q 588 26 658 67 q 431 -15 518 -15 m 301 957 q 260 974 277 957 q 242 1017 242 992 q 260 1059 242 1041 q 301 1076 277 1076 q 344 1059 326 1076 q 361 1017 361 1041 q 344 974 361 992 q 301 957 326 957 m 557 957 q 515 974 532 957 q 497 1017 497 992 q 515 1059 497 1041 q 557 1076 532 1076 q 599 1059 581 1076 q 617 1017 617 1041 q 599 974 617 992 q 557 957 581 957 m 397 1141 q 388 1143 394 1141 q 383 1152 383 1146 q 403 1186 383 1160 l 481 1288 q 499 1306 491 1301 q 522 1310 507 1310 l 533 1310 q 548 1308 542 1310 q 554 1299 554 1305 q 542 1276 554 1290 l 435 1166 q 415 1148 424 1154 q 397 1141 405 1141 z "},"Ǚ":{"ha":860,"x_min":119,"x_max":740,"o":"m 431 -15 q 273 26 344 -15 q 161 153 203 67 q 119 376 119 239 l 119 820 q 142 860 119 860 q 163 820 163 860 l 163 378 q 236 117 163 205 q 431 29 310 29 q 625 117 553 29 q 697 378 697 205 l 697 820 q 718 860 697 860 q 740 820 740 860 l 740 376 q 699 153 740 239 q 588 26 658 67 q 431 -15 518 -15 m 301 957 q 260 974 277 957 q 242 1017 242 992 q 260 1059 242 1041 q 301 1076 277 1076 q 344 1059 326 1076 q 361 1017 361 1041 q 344 974 361 992 q 301 957 326 957 m 557 957 q 515 974 532 957 q 497 1017 497 992 q 515 1059 497 1041 q 557 1076 532 1076 q 599 1059 581 1076 q 617 1017 617 1041 q 599 974 617 992 q 557 957 581 957 m 560 1240 l 469 1149 q 449 1133 458 1138 q 428 1128 440 1128 q 408 1133 417 1128 q 388 1149 399 1138 l 297 1240 q 283 1269 283 1254 q 288 1283 283 1278 q 300 1289 292 1289 q 316 1284 310 1289 q 333 1268 322 1279 l 429 1168 l 524 1267 q 541 1284 535 1278 q 557 1289 548 1289 q 571 1284 566 1289 q 576 1271 576 1278 q 573 1257 576 1265 q 560 1240 569 1249 z "},"Ǜ":{"ha":860,"x_min":119,"x_max":740,"o":"m 431 -15 q 273 26 344 -15 q 161 153 203 67 q 119 376 119 239 l 119 820 q 142 860 119 860 q 163 820 163 860 l 163 378 q 236 117 163 205 q 431 29 310 29 q 625 117 553 29 q 697 378 697 205 l 697 820 q 718 860 697 860 q 740 820 740 860 l 740 376 q 699 153 740 239 q 588 26 658 67 q 431 -15 518 -15 m 301 957 q 260 974 277 957 q 242 1017 242 992 q 260 1059 242 1041 q 301 1076 277 1076 q 344 1059 326 1076 q 361 1017 361 1041 q 344 974 361 992 q 301 957 326 957 m 557 957 q 515 974 532 957 q 497 1017 497 992 q 515 1059 497 1041 q 557 1076 532 1076 q 599 1059 581 1076 q 617 1017 617 1041 q 599 974 617 992 q 557 957 581 957 m 461 1139 q 443 1145 453 1139 q 422 1163 433 1151 l 316 1274 q 303 1296 303 1287 q 310 1305 303 1303 q 324 1308 316 1308 l 335 1308 q 359 1303 351 1308 q 376 1285 367 1298 l 455 1183 q 475 1149 475 1158 q 470 1141 475 1143 q 461 1139 465 1139 z "},"Ǖ":{"ha":860,"x_min":119,"x_max":740,"o":"m 431 -15 q 273 26 344 -15 q 161 153 203 67 q 119 376 119 239 l 119 820 q 142 860 119 860 q 163 820 163 860 l 163 378 q 236 117 163 205 q 431 29 310 29 q 625 117 553 29 q 697 378 697 205 l 697 820 q 718 860 697 860 q 740 820 740 860 l 740 376 q 699 153 740 239 q 588 26 658 67 q 431 -15 518 -15 m 301 957 q 260 974 277 957 q 242 1017 242 992 q 260 1059 242 1041 q 301 1076 277 1076 q 344 1059 326 1076 q 361 1017 361 1041 q 344 974 361 992 q 301 957 326 957 m 557 957 q 515 974 532 957 q 497 1017 497 992 q 515 1059 497 1041 q 557 1076 532 1076 q 599 1059 581 1076 q 617 1017 617 1041 q 599 974 617 992 q 557 957 581 957 m 205 1202 q 215 1218 205 1213 q 244 1224 225 1224 l 614 1224 q 643 1218 633 1224 q 653 1202 653 1213 q 643 1186 653 1192 q 614 1181 633 1181 l 244 1181 q 215 1186 225 1181 q 205 1202 205 1192 z "},"Ụ":{"ha":860,"x_min":119,"x_max":740,"o":"m 431 -15 q 273 26 344 -15 q 161 153 203 67 q 119 376 119 239 l 119 820 q 142 860 119 860 q 163 820 163 860 l 163 378 q 236 117 163 205 q 431 29 310 29 q 625 117 553 29 q 697 378 697 205 l 697 820 q 718 860 697 860 q 740 820 740 860 l 740 376 q 699 153 740 239 q 588 26 658 67 q 431 -15 518 -15 m 429 -219 q 387 -202 404 -219 q 369 -160 369 -185 q 387 -118 369 -135 q 429 -101 404 -101 q 471 -118 453 -101 q 488 -160 488 -135 q 471 -202 488 -185 q 429 -219 453 -219 z "},"Ù":{"ha":860,"x_min":119,"x_max":740,"o":"m 431 -15 q 273 26 344 -15 q 161 153 203 67 q 119 376 119 239 l 119 820 q 142 860 119 860 q 163 820 163 860 l 163 378 q 236 117 163 205 q 431 29 310 29 q 625 117 553 29 q 697 378 697 205 l 697 820 q 718 860 697 860 q 740 820 740 860 l 740 376 q 699 153 740 239 q 588 26 658 67 q 431 -15 518 -15 m 461 922 q 443 928 453 922 q 422 947 433 935 l 316 1057 q 303 1079 303 1070 q 310 1089 303 1086 q 324 1091 316 1091 l 335 1091 q 359 1086 351 1091 q 376 1069 367 1081 l 455 967 q 475 933 475 941 q 470 924 475 926 q 461 922 465 922 z "},"Ủ":{"ha":860,"x_min":119,"x_max":740,"o":"m 431 -15 q 273 26 344 -15 q 161 153 203 67 q 119 376 119 239 l 119 820 q 142 860 119 860 q 163 820 163 860 l 163 378 q 236 117 163 205 q 431 29 310 29 q 625 117 553 29 q 697 378 697 205 l 697 820 q 718 860 697 860 q 740 820 740 860 l 740 376 q 699 153 740 239 q 588 26 658 67 q 431 -15 518 -15 m 402 922 q 382 927 390 922 q 375 941 375 932 q 382 955 375 950 q 402 959 390 959 q 476 967 441 959 q 510 1003 510 974 q 478 1036 510 1031 q 408 1042 445 1042 q 373 1041 390 1042 q 342 1038 356 1040 q 329 1036 335 1037 q 319 1035 323 1035 q 307 1039 311 1035 q 303 1049 303 1043 q 334 1075 303 1067 q 405 1082 365 1082 q 479 1076 445 1082 q 533 1052 513 1069 q 554 1002 554 1035 q 528 952 554 969 q 467 928 503 935 q 402 922 432 922 z "},"Ư":{"ha":860,"x_min":122,"x_max":944,"o":"m 432 -15 q 275 26 346 -15 q 163 153 205 67 q 122 376 122 239 l 122 820 q 143 860 122 860 q 165 820 165 860 l 165 378 q 238 117 165 205 q 432 29 311 29 q 626 117 554 29 q 698 378 698 205 l 698 820 q 720 860 698 860 q 818 887 783 860 q 870 955 853 914 q 894 1039 887 997 q 903 1067 897 1057 q 921 1076 908 1076 q 939 1065 934 1076 q 944 1038 944 1054 q 922 940 944 991 q 856 852 899 888 q 755 816 814 816 l 742 816 l 742 376 q 701 153 742 239 q 590 26 660 67 q 432 -15 519 -15 z "},"Ứ":{"ha":860,"x_min":122,"x_max":944,"o":"m 432 -15 q 275 26 346 -15 q 163 153 205 67 q 122 376 122 239 l 122 820 q 143 860 122 860 q 165 820 165 860 l 165 378 q 238 117 165 205 q 432 29 311 29 q 626 117 554 29 q 698 378 698 205 l 698 820 q 720 860 698 860 q 818 887 783 860 q 870 955 853 914 q 894 1039 887 997 q 903 1067 897 1057 q 921 1076 908 1076 q 939 1065 934 1076 q 944 1038 944 1054 q 922 940 944 991 q 856 852 899 888 q 755 816 814 816 l 742 816 l 742 376 q 701 153 742 239 q 590 26 660 67 q 432 -15 519 -15 m 391 924 q 383 927 388 924 q 377 935 377 929 q 397 969 377 943 l 476 1072 q 493 1089 485 1084 q 517 1094 501 1094 l 528 1094 q 542 1091 536 1094 q 549 1082 549 1088 q 536 1060 549 1073 l 430 949 q 409 931 419 938 q 391 924 399 924 z "},"Ự":{"ha":860,"x_min":122,"x_max":944,"o":"m 432 -15 q 275 26 346 -15 q 163 153 205 67 q 122 376 122 239 l 122 820 q 143 860 122 860 q 165 820 165 860 l 165 378 q 238 117 165 205 q 432 29 311 29 q 626 117 554 29 q 698 378 698 205 l 698 820 q 720 860 698 860 q 818 887 783 860 q 870 955 853 914 q 894 1039 887 997 q 903 1067 897 1057 q 921 1076 908 1076 q 939 1065 934 1076 q 944 1038 944 1054 q 922 940 944 991 q 856 852 899 888 q 755 816 814 816 l 742 816 l 742 376 q 701 153 742 239 q 590 26 660 67 q 432 -15 519 -15 m 424 -219 q 381 -202 399 -219 q 364 -160 364 -185 q 381 -118 364 -135 q 424 -101 399 -101 q 465 -118 448 -101 q 483 -160 483 -135 q 465 -202 483 -185 q 424 -219 448 -219 z "},"Ừ":{"ha":860,"x_min":122,"x_max":944,"o":"m 432 -15 q 275 26 346 -15 q 163 153 205 67 q 122 376 122 239 l 122 820 q 143 860 122 860 q 165 820 165 860 l 165 378 q 238 117 165 205 q 432 29 311 29 q 626 117 554 29 q 698 378 698 205 l 698 820 q 720 860 698 860 q 818 887 783 860 q 870 955 853 914 q 894 1039 887 997 q 903 1067 897 1057 q 921 1076 908 1076 q 939 1065 934 1076 q 944 1038 944 1054 q 922 940 944 991 q 856 852 899 888 q 755 816 814 816 l 742 816 l 742 376 q 701 153 742 239 q 590 26 660 67 q 432 -15 519 -15 m 456 922 q 438 928 447 922 q 417 947 428 935 l 310 1057 q 298 1079 298 1070 q 304 1089 298 1086 q 319 1091 310 1091 l 330 1091 q 353 1086 345 1091 q 371 1069 362 1081 l 449 967 q 469 933 469 941 q 464 924 469 926 q 456 922 459 922 z "},"Ử":{"ha":860,"x_min":122,"x_max":944,"o":"m 432 -15 q 275 26 346 -15 q 163 153 205 67 q 122 376 122 239 l 122 820 q 143 860 122 860 q 165 820 165 860 l 165 378 q 238 117 165 205 q 432 29 311 29 q 626 117 554 29 q 698 378 698 205 l 698 820 q 720 860 698 860 q 818 887 783 860 q 870 955 853 914 q 894 1039 887 997 q 903 1067 897 1057 q 921 1076 908 1076 q 939 1065 934 1076 q 944 1038 944 1054 q 922 940 944 991 q 856 852 899 888 q 755 816 814 816 l 742 816 l 742 376 q 701 153 742 239 q 590 26 660 67 q 432 -15 519 -15 m 397 922 q 377 927 384 922 q 369 941 369 932 q 377 955 369 950 q 397 959 384 959 q 470 967 435 959 q 505 1003 505 974 q 472 1036 505 1031 q 403 1042 440 1042 q 367 1041 384 1042 q 336 1038 350 1040 q 323 1036 329 1037 q 314 1035 317 1035 q 302 1039 306 1035 q 298 1049 298 1043 q 328 1075 298 1067 q 399 1082 359 1082 q 473 1076 440 1082 q 528 1052 507 1069 q 549 1002 549 1035 q 523 952 549 969 q 462 928 497 935 q 397 922 426 922 z "},"Ữ":{"ha":860,"x_min":122,"x_max":944,"o":"m 432 -15 q 275 26 346 -15 q 163 153 205 67 q 122 376 122 239 l 122 820 q 143 860 122 860 q 165 820 165 860 l 165 378 q 238 117 165 205 q 432 29 311 29 q 626 117 554 29 q 698 378 698 205 l 698 820 q 720 860 698 860 q 818 887 783 860 q 870 955 853 914 q 894 1039 887 997 q 903 1067 897 1057 q 921 1076 908 1076 q 939 1065 934 1076 q 944 1038 944 1054 q 922 940 944 991 q 856 852 899 888 q 755 816 814 816 l 742 816 l 742 376 q 701 153 742 239 q 590 26 660 67 q 432 -15 519 -15 m 493 935 q 445 946 463 935 q 411 973 428 957 q 384 995 396 988 q 351 1002 372 1002 q 311 993 328 1002 q 283 974 294 985 q 267 962 274 967 q 253 957 259 957 q 240 963 247 957 q 234 977 234 969 q 253 1007 234 990 q 297 1035 271 1021 q 353 1049 324 1049 q 401 1038 384 1049 q 435 1010 417 1026 q 462 988 449 996 q 495 979 474 979 q 534 988 517 979 q 561 1007 550 997 q 580 1022 571 1017 q 598 1028 590 1028 q 611 1023 606 1028 q 617 1008 617 1018 q 611 994 617 998 q 566 957 598 979 q 493 935 535 935 z "},"Ű":{"ha":860,"x_min":119,"x_max":740,"o":"m 431 -15 q 273 26 344 -15 q 161 153 203 67 q 119 376 119 239 l 119 820 q 142 860 119 860 q 163 820 163 860 l 163 378 q 236 117 163 205 q 431 29 310 29 q 625 117 553 29 q 697 378 697 205 l 697 820 q 718 860 697 860 q 740 820 740 860 l 740 376 q 699 153 740 239 q 588 26 658 67 q 431 -15 518 -15 m 474 949 l 534 1064 q 546 1081 540 1076 q 562 1087 551 1087 l 578 1087 q 589 1084 584 1087 q 593 1075 593 1081 q 584 1052 593 1067 l 511 942 q 494 920 501 927 q 481 913 488 913 q 472 917 476 913 q 468 927 468 920 q 474 949 468 935 m 296 949 l 356 1064 q 367 1081 361 1076 q 383 1087 373 1087 l 400 1087 q 410 1084 406 1087 q 415 1075 415 1081 q 405 1052 415 1067 l 333 942 q 316 920 323 927 q 303 913 309 913 q 294 917 298 913 q 290 927 290 920 q 296 949 290 935 z "},"Ȗ":{"ha":860,"x_min":119,"x_max":740,"o":"m 431 -15 q 273 26 344 -15 q 161 153 203 67 q 119 376 119 239 l 119 820 q 142 860 119 860 q 163 820 163 860 l 163 378 q 236 117 163 205 q 431 29 310 29 q 625 117 553 29 q 697 378 697 205 l 697 820 q 718 860 697 860 q 740 820 740 860 l 740 376 q 699 153 740 239 q 588 26 658 67 q 431 -15 518 -15 m 547 928 q 529 938 535 928 q 519 965 523 947 q 494 1024 514 996 q 429 1052 474 1052 q 364 1024 385 1052 q 338 965 344 996 q 329 937 335 947 q 311 928 323 928 q 296 935 302 928 q 290 956 290 942 q 290 963 290 960 q 291 969 290 967 q 335 1055 301 1019 q 428 1092 369 1092 q 521 1055 486 1092 q 567 969 556 1019 q 568 963 567 967 q 568 956 568 960 q 562 935 568 942 q 547 928 556 928 z "},"Ū":{"ha":860,"x_min":119,"x_max":740,"o":"m 431 -15 q 273 26 344 -15 q 161 153 203 67 q 119 376 119 239 l 119 820 q 142 860 119 860 q 163 820 163 860 l 163 378 q 236 117 163 205 q 431 29 310 29 q 625 117 553 29 q 697 378 697 205 l 697 820 q 718 860 697 860 q 740 820 740 860 l 740 376 q 699 153 740 239 q 588 26 658 67 q 431 -15 518 -15 m 205 985 q 215 1001 205 996 q 244 1007 225 1007 l 614 1007 q 643 1001 633 1007 q 653 985 653 996 q 643 969 653 975 q 614 964 633 964 l 244 964 q 215 969 225 964 q 205 985 205 975 z "},"Ų":{"ha":860,"x_min":119,"x_max":740,"o":"m 599 -272 q 530 -259 562 -272 q 479 -220 499 -247 q 460 -153 460 -194 q 472 -92 460 -124 q 503 -31 485 -59 q 542 15 522 -3 q 575 33 561 33 l 599 33 q 561 -9 582 22 q 525 -80 540 -40 q 509 -155 509 -119 q 535 -212 509 -195 q 594 -230 561 -230 q 613 -229 603 -230 q 632 -226 623 -228 q 641 -225 637 -225 q 649 -224 646 -224 q 669 -230 662 -224 q 676 -244 676 -235 q 650 -267 676 -261 q 599 -272 623 -272 m 431 -15 q 273 26 344 -15 q 161 153 203 67 q 119 376 119 239 l 119 820 q 142 860 119 860 q 163 820 163 860 l 163 378 q 236 117 163 205 q 431 29 310 29 q 625 117 553 29 q 697 378 697 205 l 697 820 q 718 860 697 860 q 740 820 740 860 l 740 376 q 699 153 740 239 q 588 26 658 67 q 431 -15 518 -15 z "},"Ů":{"ha":860,"x_min":119,"x_max":740,"o":"m 431 -15 q 273 26 344 -15 q 161 153 203 67 q 119 376 119 239 l 119 820 q 142 860 119 860 q 163 820 163 860 l 163 378 q 236 117 163 205 q 431 29 310 29 q 625 117 553 29 q 697 378 697 205 l 697 820 q 718 860 697 860 q 740 820 740 860 l 740 376 q 699 153 740 239 q 588 26 658 67 q 431 -15 518 -15 m 431 908 q 361 936 390 908 q 331 1006 331 964 q 345 1054 331 1032 q 381 1089 358 1076 q 431 1102 403 1102 q 478 1089 456 1102 q 514 1054 500 1076 q 527 1006 527 1032 q 498 936 527 964 q 431 908 469 908 m 431 944 q 474 961 456 944 q 492 1007 492 978 q 474 1047 492 1031 q 431 1063 456 1063 q 386 1047 405 1063 q 368 1007 368 1031 q 386 961 368 978 q 431 944 405 944 z "},"Ũ":{"ha":860,"x_min":119,"x_max":740,"o":"m 431 -15 q 273 26 344 -15 q 161 153 203 67 q 119 376 119 239 l 119 820 q 142 860 119 860 q 163 820 163 860 l 163 378 q 236 117 163 205 q 431 29 310 29 q 625 117 553 29 q 697 378 697 205 l 697 820 q 718 860 697 860 q 740 820 740 860 l 740 376 q 699 153 740 239 q 588 26 658 67 q 431 -15 518 -15 m 499 935 q 451 946 468 935 q 417 973 433 957 q 389 995 401 988 q 356 1002 377 1002 q 317 993 334 1002 q 288 974 300 985 q 272 962 280 967 q 259 957 265 957 q 246 963 252 957 q 240 977 240 969 q 258 1007 240 990 q 303 1035 276 1021 q 359 1049 329 1049 q 406 1038 390 1049 q 440 1010 423 1026 q 467 988 455 996 q 501 979 480 979 q 539 988 523 979 q 567 1007 556 997 q 586 1022 576 1017 q 603 1028 595 1028 q 617 1023 611 1028 q 622 1008 622 1018 q 617 994 622 998 q 572 957 603 979 q 499 935 540 935 z "},"V":{"ha":860,"x_min":108,"x_max":757,"o":"m 433 -7 l 432 -7 q 404 1 415 -7 q 388 26 393 10 l 114 822 q 110 834 112 827 q 108 845 108 842 q 116 862 108 857 q 132 867 124 867 q 148 858 142 867 q 158 833 153 850 l 433 38 l 708 833 q 720 858 714 850 q 738 867 727 867 q 752 861 747 867 q 757 844 757 856 q 756 834 757 840 q 752 822 754 827 l 478 26 q 461 1 472 10 q 433 -7 449 -7 z "},"W":{"ha":860,"x_min":76,"x_max":787,"o":"m 208 -13 q 183 -4 191 -13 q 172 24 174 5 q 164 82 170 35 q 150 201 158 129 q 131 355 141 272 q 111 520 122 438 q 93 672 101 602 q 81 785 85 741 q 76 836 76 830 q 81 859 76 852 q 97 867 87 867 q 113 858 108 867 q 119 832 117 850 l 214 50 l 393 789 q 407 815 397 806 q 431 823 417 823 q 456 815 446 823 q 469 789 465 806 l 651 58 l 743 832 q 751 858 745 850 q 768 867 757 867 q 782 859 778 867 q 787 836 787 852 q 782 788 787 831 q 769 675 777 744 q 751 523 761 606 q 731 357 741 440 q 713 202 722 274 q 698 82 704 130 q 691 24 692 35 q 680 -3 688 6 q 655 -13 672 -13 l 654 -13 q 625 -5 637 -13 q 610 21 614 3 l 431 761 l 253 21 q 237 -5 249 3 q 209 -13 226 -13 l 208 -13 z "},"Ẃ":{"ha":860,"x_min":76,"x_max":787,"o":"m 208 -13 q 183 -4 191 -13 q 172 24 174 5 q 164 82 170 35 q 150 201 158 129 q 131 355 141 272 q 111 520 122 438 q 93 672 101 602 q 81 785 85 741 q 76 836 76 830 q 81 859 76 852 q 97 867 87 867 q 113 858 108 867 q 119 832 117 850 l 214 50 l 393 789 q 407 815 397 806 q 431 823 417 823 q 456 815 446 823 q 469 789 465 806 l 651 58 l 743 832 q 751 858 745 850 q 768 867 757 867 q 782 859 778 867 q 787 836 787 852 q 782 788 787 831 q 769 675 777 744 q 751 523 761 606 q 731 357 741 440 q 713 202 722 274 q 698 82 704 130 q 691 24 692 35 q 680 -3 688 6 q 655 -13 672 -13 l 654 -13 q 625 -5 637 -13 q 610 21 614 3 l 431 761 l 253 21 q 237 -5 249 3 q 209 -13 226 -13 l 208 -13 m 399 924 q 390 927 396 924 q 385 935 385 929 q 405 969 385 943 l 483 1072 q 501 1089 493 1084 q 524 1094 509 1094 l 535 1094 q 550 1091 544 1094 q 556 1082 556 1088 q 544 1060 556 1073 l 438 949 q 417 931 426 938 q 399 924 407 924 z "},"Ŵ":{"ha":860,"x_min":76,"x_max":787,"o":"m 208 -13 q 183 -4 191 -13 q 172 24 174 5 q 164 82 170 35 q 150 201 158 129 q 131 355 141 272 q 111 520 122 438 q 93 672 101 602 q 81 785 85 741 q 76 836 76 830 q 81 859 76 852 q 97 867 87 867 q 113 858 108 867 q 119 832 117 850 l 214 50 l 393 789 q 407 815 397 806 q 431 823 417 823 q 456 815 446 823 q 469 789 465 806 l 651 58 l 743 832 q 751 858 745 850 q 768 867 757 867 q 782 859 778 867 q 787 836 787 852 q 782 788 787 831 q 769 675 777 744 q 751 523 761 606 q 731 357 741 440 q 713 202 722 274 q 698 82 704 130 q 691 24 692 35 q 680 -3 688 6 q 655 -13 672 -13 l 654 -13 q 625 -5 637 -13 q 610 21 614 3 l 431 761 l 253 21 q 237 -5 249 3 q 209 -13 226 -13 l 208 -13 m 563 967 q 579 936 579 950 q 574 923 579 928 q 559 918 568 918 q 544 923 550 918 q 527 939 538 928 l 431 1038 l 335 938 q 318 923 324 927 q 303 918 313 918 q 290 923 294 918 q 285 938 285 928 q 288 951 285 944 q 299 967 292 959 l 390 1058 q 410 1073 401 1069 q 431 1078 420 1078 q 451 1073 442 1078 q 472 1058 461 1069 l 563 967 z "},"Ẅ":{"ha":860,"x_min":76,"x_max":787,"o":"m 208 -13 q 183 -4 191 -13 q 172 24 174 5 q 164 82 170 35 q 150 201 158 129 q 131 355 141 272 q 111 520 122 438 q 93 672 101 602 q 81 785 85 741 q 76 836 76 830 q 81 859 76 852 q 97 867 87 867 q 113 858 108 867 q 119 832 117 850 l 214 50 l 393 789 q 407 815 397 806 q 431 823 417 823 q 456 815 446 823 q 469 789 465 806 l 651 58 l 743 832 q 751 858 745 850 q 768 867 757 867 q 782 859 778 867 q 787 836 787 852 q 782 788 787 831 q 769 675 777 744 q 751 523 761 606 q 731 357 741 440 q 713 202 722 274 q 698 82 704 130 q 691 24 692 35 q 680 -3 688 6 q 655 -13 672 -13 l 654 -13 q 625 -5 637 -13 q 610 21 614 3 l 431 761 l 253 21 q 237 -5 249 3 q 209 -13 226 -13 l 208 -13 m 303 957 q 262 974 279 957 q 244 1017 244 992 q 262 1059 244 1041 q 303 1076 279 1076 q 346 1059 328 1076 q 363 1017 363 1041 q 346 974 363 992 q 303 957 328 957 m 559 957 q 517 974 534 957 q 499 1017 499 992 q 517 1059 499 1041 q 559 1076 534 1076 q 601 1059 583 1076 q 619 1017 619 1041 q 601 974 619 992 q 559 957 583 957 z "},"Ẁ":{"ha":860,"x_min":76,"x_max":787,"o":"m 208 -13 q 183 -4 191 -13 q 172 24 174 5 q 164 82 170 35 q 150 201 158 129 q 131 355 141 272 q 111 520 122 438 q 93 672 101 602 q 81 785 85 741 q 76 836 76 830 q 81 859 76 852 q 97 867 87 867 q 113 858 108 867 q 119 832 117 850 l 214 50 l 393 789 q 407 815 397 806 q 431 823 417 823 q 456 815 446 823 q 469 789 465 806 l 651 58 l 743 832 q 751 858 745 850 q 768 867 757 867 q 782 859 778 867 q 787 836 787 852 q 782 788 787 831 q 769 675 777 744 q 751 523 761 606 q 731 357 741 440 q 713 202 722 274 q 698 82 704 130 q 691 24 692 35 q 680 -3 688 6 q 655 -13 672 -13 l 654 -13 q 625 -5 637 -13 q 610 21 614 3 l 431 761 l 253 21 q 237 -5 249 3 q 209 -13 226 -13 l 208 -13 m 463 922 q 445 928 455 922 q 424 947 435 935 l 318 1057 q 306 1079 306 1070 q 312 1089 306 1086 q 326 1091 318 1091 l 338 1091 q 361 1086 353 1091 q 378 1069 369 1081 l 457 967 q 477 933 477 941 q 472 924 477 926 q 463 922 467 922 z "},"X":{"ha":860,"x_min":126,"x_max":715,"o":"m 149 -13 q 134 -8 140 -13 q 128 6 128 -3 q 131 17 128 10 q 138 30 133 23 l 394 424 l 131 831 q 127 840 128 835 q 126 849 126 844 q 133 862 126 857 q 148 867 139 867 q 160 864 155 867 q 169 855 165 860 q 180 840 174 849 l 420 466 l 662 840 q 676 860 671 853 q 695 867 682 867 q 710 862 704 867 q 715 849 715 858 q 710 832 715 840 l 447 424 l 704 30 q 711 17 709 23 q 714 6 714 10 q 708 -9 714 -4 q 693 -13 701 -13 q 677 -7 683 -13 q 662 14 672 0 l 422 384 l 180 14 q 165 -7 171 -1 q 149 -13 158 -13 z "},"Y":{"ha":860,"x_min":124,"x_max":726,"o":"m 424 -13 q 403 25 403 -13 l 403 335 q 379 363 391 340 l 130 828 q 124 849 124 838 q 129 864 124 858 q 143 869 134 869 q 160 862 154 869 q 174 838 166 854 l 425 369 l 674 838 q 689 862 683 854 q 706 869 695 869 q 721 864 716 869 q 726 851 726 858 q 724 840 726 845 q 719 828 723 834 l 470 363 q 459 345 465 352 q 447 335 454 338 l 447 25 q 424 -13 447 -13 z "},"Ý":{"ha":860,"x_min":124,"x_max":726,"o":"m 424 -13 q 403 25 403 -13 l 403 335 q 379 363 391 340 l 130 828 q 124 849 124 838 q 129 864 124 858 q 143 869 134 869 q 160 862 154 869 q 174 838 166 854 l 425 369 l 674 838 q 689 862 683 854 q 706 869 695 869 q 721 864 716 869 q 726 851 726 858 q 724 840 726 845 q 719 828 723 834 l 470 363 q 459 345 465 352 q 447 335 454 338 l 447 25 q 424 -13 447 -13 m 387 924 q 378 927 384 924 q 373 935 373 929 q 393 969 373 943 l 472 1072 q 489 1089 481 1084 q 513 1094 497 1094 l 524 1094 q 538 1091 532 1094 q 544 1082 544 1088 q 532 1060 544 1073 l 426 949 q 405 931 415 938 q 387 924 395 924 z "},"Ŷ":{"ha":860,"x_min":124,"x_max":726,"o":"m 424 -13 q 403 25 403 -13 l 403 335 q 379 363 391 340 l 130 828 q 124 849 124 838 q 129 864 124 858 q 143 869 134 869 q 160 862 154 869 q 174 838 166 854 l 425 369 l 674 838 q 689 862 683 854 q 706 869 695 869 q 721 864 716 869 q 726 851 726 858 q 724 840 726 845 q 719 828 723 834 l 470 363 q 459 345 465 352 q 447 335 454 338 l 447 25 q 424 -13 447 -13 m 551 967 q 567 936 567 950 q 562 923 567 928 q 547 918 556 918 q 532 923 538 918 q 515 939 526 928 l 419 1038 l 323 938 q 307 923 313 927 q 291 918 301 918 q 278 923 283 918 q 273 938 273 928 q 276 951 273 944 q 288 967 280 959 l 378 1058 q 399 1073 389 1069 q 419 1078 408 1078 q 440 1073 430 1078 q 460 1058 449 1069 l 551 967 z "},"Ÿ":{"ha":860,"x_min":124,"x_max":726,"o":"m 424 -13 q 403 25 403 -13 l 403 335 q 379 363 391 340 l 130 828 q 124 849 124 838 q 129 864 124 858 q 143 869 134 869 q 160 862 154 869 q 174 838 166 854 l 425 369 l 674 838 q 689 862 683 854 q 706 869 695 869 q 721 864 716 869 q 726 851 726 858 q 724 840 726 845 q 719 828 723 834 l 470 363 q 459 345 465 352 q 447 335 454 338 l 447 25 q 424 -13 447 -13 m 292 957 q 250 974 267 957 q 233 1017 233 992 q 250 1059 233 1041 q 292 1076 267 1076 q 334 1059 317 1076 q 351 1017 351 1041 q 334 974 351 992 q 292 957 317 957 m 547 957 q 505 974 522 957 q 488 1017 488 992 q 505 1059 488 1041 q 547 1076 522 1076 q 589 1059 572 1076 q 607 1017 607 1041 q 589 974 607 992 q 547 957 572 957 z "},"Ỵ":{"ha":860,"x_min":124,"x_max":726,"o":"m 424 -13 q 403 25 403 -13 l 403 335 q 379 363 391 340 l 130 828 q 124 849 124 838 q 129 864 124 858 q 143 869 134 869 q 160 862 154 869 q 174 838 166 854 l 425 369 l 674 838 q 689 862 683 854 q 706 869 695 869 q 721 864 716 869 q 726 851 726 858 q 724 840 726 845 q 719 828 723 834 l 470 363 q 459 345 465 352 q 447 335 454 338 l 447 25 q 424 -13 447 -13 m 397 -219 q 354 -202 372 -219 q 337 -160 337 -185 q 354 -118 337 -135 q 397 -101 372 -101 q 438 -118 421 -101 q 456 -160 456 -135 q 438 -202 456 -185 q 397 -219 421 -219 z "},"Ỳ":{"ha":860,"x_min":124,"x_max":726,"o":"m 424 -13 q 403 25 403 -13 l 403 335 q 379 363 391 340 l 130 828 q 124 849 124 838 q 129 864 124 858 q 143 869 134 869 q 160 862 154 869 q 174 838 166 854 l 425 369 l 674 838 q 689 862 683 854 q 706 869 695 869 q 721 864 716 869 q 726 851 726 858 q 724 840 726 845 q 719 828 723 834 l 470 363 q 459 345 465 352 q 447 335 454 338 l 447 25 q 424 -13 447 -13 m 451 922 q 433 928 443 922 q 413 947 424 935 l 306 1057 q 294 1079 294 1070 q 300 1089 294 1086 q 315 1091 306 1091 l 326 1091 q 349 1086 341 1091 q 367 1069 358 1081 l 445 967 q 465 933 465 941 q 460 924 465 926 q 451 922 455 922 z "},"Ỷ":{"ha":860,"x_min":124,"x_max":726,"o":"m 424 -13 q 403 25 403 -13 l 403 335 q 379 363 391 340 l 130 828 q 124 849 124 838 q 129 864 124 858 q 143 869 134 869 q 160 862 154 869 q 174 838 166 854 l 425 369 l 674 838 q 689 862 683 854 q 706 869 695 869 q 721 864 716 869 q 726 851 726 858 q 724 840 726 845 q 719 828 723 834 l 470 363 q 459 345 465 352 q 447 335 454 338 l 447 25 q 424 -13 447 -13 m 392 922 q 373 927 380 922 q 365 941 365 932 q 373 955 365 950 q 392 959 380 959 q 466 967 431 959 q 501 1003 501 974 q 468 1036 501 1031 q 399 1042 435 1042 q 363 1041 380 1042 q 332 1038 346 1040 q 319 1036 325 1037 q 310 1035 313 1035 q 298 1039 301 1035 q 294 1049 294 1043 q 324 1075 294 1067 q 395 1082 355 1082 q 469 1076 435 1082 q 524 1052 503 1069 q 544 1002 544 1035 q 519 952 544 969 q 458 928 493 935 q 392 922 422 922 z "},"Ȳ":{"ha":860,"x_min":124,"x_max":726,"o":"m 424 -13 q 403 25 403 -13 l 403 335 q 379 363 391 340 l 130 828 q 124 849 124 838 q 129 864 124 858 q 143 869 134 869 q 160 862 154 869 q 174 838 166 854 l 425 369 l 674 838 q 689 862 683 854 q 706 869 695 869 q 721 864 716 869 q 726 851 726 858 q 724 840 726 845 q 719 828 723 834 l 470 363 q 459 345 465 352 q 447 335 454 338 l 447 25 q 424 -13 447 -13 m 195 985 q 205 1001 195 996 q 235 1007 215 1007 l 604 1007 q 634 1001 624 1007 q 644 985 644 996 q 634 969 644 975 q 604 964 624 964 l 235 964 q 205 969 215 964 q 195 985 195 975 z "},"Ỹ":{"ha":860,"x_min":124,"x_max":726,"o":"m 424 -13 q 403 25 403 -13 l 403 335 q 379 363 391 340 l 130 828 q 124 849 124 838 q 129 864 124 858 q 143 869 134 869 q 160 862 154 869 q 174 838 166 854 l 425 369 l 674 838 q 689 862 683 854 q 706 869 695 869 q 721 864 716 869 q 726 851 726 858 q 724 840 726 845 q 719 828 723 834 l 470 363 q 459 345 465 352 q 447 335 454 338 l 447 25 q 424 -13 447 -13 m 489 935 q 441 946 458 935 q 407 973 424 957 q 380 995 392 988 q 347 1002 367 1002 q 307 993 324 1002 q 278 974 290 985 q 263 962 270 967 q 249 957 255 957 q 236 963 242 957 q 230 977 230 969 q 249 1007 230 990 q 293 1035 267 1021 q 349 1049 319 1049 q 397 1038 380 1049 q 431 1010 413 1026 q 458 988 445 996 q 491 979 470 979 q 530 988 513 979 q 557 1007 546 997 q 576 1022 567 1017 q 594 1028 585 1028 q 607 1023 601 1028 q 613 1008 613 1018 q 607 994 613 998 q 562 957 594 979 q 489 935 531 935 z "},"Z":{"ha":860,"x_min":144,"x_max":715,"o":"m 195 42 l 675 42 q 705 37 695 42 q 715 21 715 31 q 705 6 715 11 q 675 0 695 0 l 183 0 q 154 8 164 0 q 144 31 144 17 q 147 46 144 39 q 158 65 151 53 l 649 817 l 194 817 q 164 823 174 817 q 154 839 154 829 q 164 854 154 849 q 194 860 174 860 l 660 860 q 689 852 679 860 q 699 830 699 844 q 696 814 699 821 q 685 795 692 807 l 195 42 z "},"Ź":{"ha":860,"x_min":144,"x_max":715,"o":"m 195 42 l 675 42 q 705 37 695 42 q 715 21 715 31 q 705 6 715 11 q 675 0 695 0 l 183 0 q 154 8 164 0 q 144 31 144 17 q 147 46 144 39 q 158 65 151 53 l 649 817 l 194 817 q 164 823 174 817 q 154 839 154 829 q 164 854 154 849 q 194 860 174 860 l 660 860 q 689 852 679 860 q 699 830 699 844 q 696 814 699 821 q 685 795 692 807 l 195 42 m 396 924 q 388 927 393 924 q 382 935 382 929 q 402 969 382 943 l 481 1072 q 498 1089 490 1084 q 522 1094 506 1094 l 533 1094 q 547 1091 541 1094 q 553 1082 553 1088 q 541 1060 553 1073 l 435 949 q 414 931 424 938 q 396 924 404 924 z "},"Ž":{"ha":860,"x_min":144,"x_max":715,"o":"m 195 42 l 675 42 q 705 37 695 42 q 715 21 715 31 q 705 6 715 11 q 675 0 695 0 l 183 0 q 154 8 164 0 q 144 31 144 17 q 147 46 144 39 q 158 65 151 53 l 649 817 l 194 817 q 164 823 174 817 q 154 839 154 829 q 164 854 154 849 q 194 860 174 860 l 660 860 q 689 852 679 860 q 699 830 699 844 q 696 814 699 821 q 685 795 692 807 l 195 42 m 560 1023 l 469 933 q 448 917 458 922 q 428 912 439 912 q 407 917 417 912 q 387 933 398 922 l 297 1023 q 282 1053 282 1038 q 287 1067 282 1061 q 299 1072 292 1072 q 315 1067 309 1072 q 332 1051 322 1063 l 428 951 l 524 1051 q 541 1067 534 1062 q 556 1072 547 1072 q 570 1067 565 1072 q 576 1054 576 1062 q 572 1040 576 1048 q 560 1023 568 1032 z "},"Ż":{"ha":860,"x_min":144,"x_max":715,"o":"m 195 42 l 675 42 q 705 37 695 42 q 715 21 715 31 q 705 6 715 11 q 675 0 695 0 l 183 0 q 154 8 164 0 q 144 31 144 17 q 147 46 144 39 q 158 65 151 53 l 649 817 l 194 817 q 164 823 174 817 q 154 839 154 829 q 164 854 154 849 q 194 860 174 860 l 660 860 q 689 852 679 860 q 699 830 699 844 q 696 814 699 821 q 685 795 692 807 l 195 42 m 428 965 q 386 982 403 965 q 369 1024 369 999 q 386 1066 369 1049 q 428 1083 403 1083 q 470 1066 453 1083 q 488 1024 488 1049 q 470 982 488 999 q 428 965 453 965 z "},"a":{"ha":860,"x_min":107,"x_max":797,"o":"m 668 0 q 639 9 649 0 q 628 36 628 19 l 628 102 q 575 54 613 80 q 483 9 537 28 q 363 -9 428 -9 q 232 11 290 -9 q 140 74 174 31 q 107 185 107 117 q 141 294 107 249 q 240 363 176 339 q 391 388 303 388 q 483 378 435 388 q 572 354 532 368 q 628 327 611 340 l 628 460 q 606 554 628 519 q 548 606 584 589 q 470 629 512 624 q 390 635 429 635 q 286 620 342 635 q 197 588 230 606 q 181 582 188 584 q 167 579 173 579 q 151 586 157 579 q 146 599 146 592 q 153 614 146 607 q 173 628 160 622 q 270 662 210 647 q 399 677 331 677 q 491 669 444 677 q 580 639 539 660 q 647 576 621 617 q 672 471 672 535 l 672 42 l 757 42 q 786 37 776 42 q 797 21 797 31 q 786 6 797 11 q 757 0 776 0 l 668 0 m 628 279 q 566 309 609 294 q 475 335 523 324 q 392 345 428 345 q 216 305 281 345 q 151 185 151 264 q 180 94 151 128 q 258 47 209 61 q 366 33 307 33 q 484 55 431 33 q 575 106 538 76 q 628 156 613 135 l 628 279 z "},"á":{"ha":860,"x_min":107,"x_max":797,"o":"m 668 0 q 639 9 649 0 q 628 36 628 19 l 628 102 q 575 54 613 80 q 483 9 537 28 q 363 -9 428 -9 q 232 11 290 -9 q 140 74 174 31 q 107 185 107 117 q 141 294 107 249 q 240 363 176 339 q 391 388 303 388 q 483 378 435 388 q 572 354 532 368 q 628 327 611 340 l 628 460 q 606 554 628 519 q 548 606 584 589 q 470 629 512 624 q 390 635 429 635 q 286 620 342 635 q 197 588 230 606 q 181 582 188 584 q 167 579 173 579 q 151 586 157 579 q 146 599 146 592 q 153 614 146 607 q 173 628 160 622 q 270 662 210 647 q 399 677 331 677 q 491 669 444 677 q 580 639 539 660 q 647 576 621 617 q 672 471 672 535 l 672 42 l 757 42 q 786 37 776 42 q 797 21 797 31 q 786 6 797 11 q 757 0 776 0 l 668 0 m 628 279 q 566 309 609 294 q 475 335 523 324 q 392 345 428 345 q 216 305 281 345 q 151 185 151 264 q 180 94 151 128 q 258 47 209 61 q 366 33 307 33 q 484 55 431 33 q 575 106 538 76 q 628 156 613 135 l 628 279 m 365 763 q 357 766 363 763 q 351 774 351 768 q 372 808 351 782 l 450 910 q 468 927 460 922 q 491 933 476 933 l 502 933 q 517 930 510 933 q 523 921 523 927 q 510 898 523 910 l 404 788 q 383 770 393 776 q 365 763 374 763 z "},"ă":{"ha":860,"x_min":107,"x_max":797,"o":"m 668 0 q 639 9 649 0 q 628 36 628 19 l 628 102 q 575 54 613 80 q 483 9 537 28 q 363 -9 428 -9 q 232 11 290 -9 q 140 74 174 31 q 107 185 107 117 q 141 294 107 249 q 240 363 176 339 q 391 388 303 388 q 483 378 435 388 q 572 354 532 368 q 628 327 611 340 l 628 460 q 606 554 628 519 q 548 606 584 589 q 470 629 512 624 q 390 635 429 635 q 286 620 342 635 q 197 588 230 606 q 181 582 188 584 q 167 579 173 579 q 151 586 157 579 q 146 599 146 592 q 153 614 146 607 q 173 628 160 622 q 270 662 210 647 q 399 677 331 677 q 491 669 444 677 q 580 639 539 660 q 647 576 621 617 q 672 471 672 535 l 672 42 l 757 42 q 786 37 776 42 q 797 21 797 31 q 786 6 797 11 q 757 0 776 0 l 668 0 m 628 279 q 566 309 609 294 q 475 335 523 324 q 392 345 428 345 q 216 305 281 345 q 151 185 151 264 q 180 94 151 128 q 258 47 209 61 q 366 33 307 33 q 484 55 431 33 q 575 106 538 76 q 628 156 613 135 l 628 279 m 555 933 q 570 925 565 933 q 576 904 576 918 q 576 898 576 901 q 575 891 576 894 q 530 805 565 842 q 436 769 494 769 q 343 805 377 769 q 299 891 309 842 q 299 898 299 894 q 299 904 299 901 q 305 925 299 918 q 319 933 310 933 q 337 923 331 933 q 347 896 343 914 q 373 836 352 865 q 438 808 393 808 q 502 836 483 808 q 528 895 522 865 q 537 923 531 913 q 555 933 543 933 z "},"ắ":{"ha":860,"x_min":107,"x_max":797,"o":"m 668 0 q 639 9 649 0 q 628 36 628 19 l 628 102 q 575 54 613 80 q 483 9 537 28 q 363 -9 428 -9 q 232 11 290 -9 q 140 74 174 31 q 107 185 107 117 q 141 294 107 249 q 240 363 176 339 q 391 388 303 388 q 483 378 435 388 q 572 354 532 368 q 628 327 611 340 l 628 460 q 606 554 628 519 q 548 606 584 589 q 470 629 512 624 q 390 635 429 635 q 286 620 342 635 q 197 588 230 606 q 181 582 188 584 q 167 579 173 579 q 151 586 157 579 q 146 599 146 592 q 153 614 146 607 q 173 628 160 622 q 270 662 210 647 q 399 677 331 677 q 491 669 444 677 q 580 639 539 660 q 647 576 621 617 q 672 471 672 535 l 672 42 l 757 42 q 786 37 776 42 q 797 21 797 31 q 786 6 797 11 q 757 0 776 0 l 668 0 m 628 279 q 566 309 609 294 q 475 335 523 324 q 392 345 428 345 q 216 305 281 345 q 151 185 151 264 q 180 94 151 128 q 258 47 209 61 q 366 33 307 33 q 484 55 431 33 q 575 106 538 76 q 628 156 613 135 l 628 279 m 555 933 q 570 925 565 933 q 576 904 576 918 q 576 898 576 901 q 575 891 576 894 q 530 805 565 842 q 436 769 494 769 q 343 805 377 769 q 299 891 309 842 q 299 898 299 894 q 299 904 299 901 q 305 925 299 918 q 319 933 310 933 q 337 923 331 933 q 347 896 343 914 q 373 836 352 865 q 438 808 393 808 q 502 836 483 808 q 528 895 522 865 q 537 923 531 913 q 555 933 543 933 m 365 1035 q 357 1037 363 1035 q 351 1045 351 1040 q 372 1080 351 1053 l 450 1181 q 468 1199 460 1194 q 491 1204 476 1204 l 502 1204 q 517 1201 510 1204 q 523 1192 523 1199 q 510 1169 523 1182 l 404 1059 q 383 1041 393 1048 q 365 1035 374 1035 z "},"ặ":{"ha":860,"x_min":107,"x_max":797,"o":"m 668 0 q 639 9 649 0 q 628 36 628 19 l 628 102 q 575 54 613 80 q 483 9 537 28 q 363 -9 428 -9 q 232 11 290 -9 q 140 74 174 31 q 107 185 107 117 q 141 294 107 249 q 240 363 176 339 q 391 388 303 388 q 483 378 435 388 q 572 354 532 368 q 628 327 611 340 l 628 460 q 606 554 628 519 q 548 606 584 589 q 470 629 512 624 q 390 635 429 635 q 286 620 342 635 q 197 588 230 606 q 181 582 188 584 q 167 579 173 579 q 151 586 157 579 q 146 599 146 592 q 153 614 146 607 q 173 628 160 622 q 270 662 210 647 q 399 677 331 677 q 491 669 444 677 q 580 639 539 660 q 647 576 621 617 q 672 471 672 535 l 672 42 l 757 42 q 786 37 776 42 q 797 21 797 31 q 786 6 797 11 q 757 0 776 0 l 668 0 m 628 279 q 566 309 609 294 q 475 335 523 324 q 392 345 428 345 q 216 305 281 345 q 151 185 151 264 q 180 94 151 128 q 258 47 209 61 q 366 33 307 33 q 484 55 431 33 q 575 106 538 76 q 628 156 613 135 l 628 279 m 438 -219 q 395 -202 413 -219 q 378 -160 378 -185 q 395 -118 378 -135 q 438 -101 413 -101 q 479 -118 462 -101 q 497 -160 497 -135 q 479 -202 497 -185 q 438 -219 462 -219 m 555 933 q 570 925 565 933 q 576 904 576 918 q 576 898 576 901 q 575 891 576 894 q 530 805 565 842 q 436 769 494 769 q 343 805 377 769 q 299 891 309 842 q 299 898 299 894 q 299 904 299 901 q 305 925 299 918 q 319 933 310 933 q 337 923 331 933 q 347 896 343 914 q 373 836 352 865 q 438 808 393 808 q 502 836 483 808 q 528 895 522 865 q 537 923 531 913 q 555 933 543 933 z "},"ằ":{"ha":860,"x_min":107,"x_max":797,"o":"m 668 0 q 639 9 649 0 q 628 36 628 19 l 628 102 q 575 54 613 80 q 483 9 537 28 q 363 -9 428 -9 q 232 11 290 -9 q 140 74 174 31 q 107 185 107 117 q 141 294 107 249 q 240 363 176 339 q 391 388 303 388 q 483 378 435 388 q 572 354 532 368 q 628 327 611 340 l 628 460 q 606 554 628 519 q 548 606 584 589 q 470 629 512 624 q 390 635 429 635 q 286 620 342 635 q 197 588 230 606 q 181 582 188 584 q 167 579 173 579 q 151 586 157 579 q 146 599 146 592 q 153 614 146 607 q 173 628 160 622 q 270 662 210 647 q 399 677 331 677 q 491 669 444 677 q 580 639 539 660 q 647 576 621 617 q 672 471 672 535 l 672 42 l 757 42 q 786 37 776 42 q 797 21 797 31 q 786 6 797 11 q 757 0 776 0 l 668 0 m 628 279 q 566 309 609 294 q 475 335 523 324 q 392 345 428 345 q 216 305 281 345 q 151 185 151 264 q 180 94 151 128 q 258 47 209 61 q 366 33 307 33 q 484 55 431 33 q 575 106 538 76 q 628 156 613 135 l 628 279 m 555 933 q 570 925 565 933 q 576 904 576 918 q 576 898 576 901 q 575 891 576 894 q 530 805 565 842 q 436 769 494 769 q 343 805 377 769 q 299 891 309 842 q 299 898 299 894 q 299 904 299 901 q 305 925 299 918 q 319 933 310 933 q 337 923 331 933 q 347 896 343 914 q 373 836 352 865 q 438 808 393 808 q 502 836 483 808 q 528 895 522 865 q 537 923 531 913 q 555 933 543 933 m 449 1035 q 431 1041 440 1035 q 410 1059 422 1047 l 303 1169 q 291 1192 291 1184 q 298 1201 291 1199 q 312 1204 304 1204 l 323 1204 q 347 1199 338 1204 q 364 1181 355 1194 l 442 1080 q 463 1045 463 1053 q 457 1037 463 1040 q 449 1035 452 1035 z "},"ẳ":{"ha":860,"x_min":107,"x_max":797,"o":"m 668 0 q 639 9 649 0 q 628 36 628 19 l 628 102 q 575 54 613 80 q 483 9 537 28 q 363 -9 428 -9 q 232 11 290 -9 q 140 74 174 31 q 107 185 107 117 q 141 294 107 249 q 240 363 176 339 q 391 388 303 388 q 483 378 435 388 q 572 354 532 368 q 628 327 611 340 l 628 460 q 606 554 628 519 q 548 606 584 589 q 470 629 512 624 q 390 635 429 635 q 286 620 342 635 q 197 588 230 606 q 181 582 188 584 q 167 579 173 579 q 151 586 157 579 q 146 599 146 592 q 153 614 146 607 q 173 628 160 622 q 270 662 210 647 q 399 677 331 677 q 491 669 444 677 q 580 639 539 660 q 647 576 621 617 q 672 471 672 535 l 672 42 l 757 42 q 786 37 776 42 q 797 21 797 31 q 786 6 797 11 q 757 0 776 0 l 668 0 m 628 279 q 566 309 609 294 q 475 335 523 324 q 392 345 428 345 q 216 305 281 345 q 151 185 151 264 q 180 94 151 128 q 258 47 209 61 q 366 33 307 33 q 484 55 431 33 q 575 106 538 76 q 628 156 613 135 l 628 279 m 555 933 q 570 925 565 933 q 576 904 576 918 q 576 898 576 901 q 575 891 576 894 q 530 805 565 842 q 436 769 494 769 q 343 805 377 769 q 299 891 309 842 q 299 898 299 894 q 299 904 299 901 q 305 925 299 918 q 319 933 310 933 q 337 923 331 933 q 347 896 343 914 q 373 836 352 865 q 438 808 393 808 q 502 836 483 808 q 528 895 522 865 q 537 923 531 913 q 555 933 543 933 m 410 1037 q 383 1056 383 1037 q 391 1069 383 1065 q 410 1074 398 1074 q 484 1081 449 1074 q 519 1118 519 1089 q 486 1151 519 1144 q 417 1157 453 1157 q 381 1155 398 1157 q 350 1151 364 1153 q 336 1150 343 1151 q 326 1149 330 1149 q 317 1152 322 1149 q 312 1164 312 1155 q 342 1189 312 1182 q 413 1196 373 1196 q 487 1190 453 1196 q 542 1166 521 1183 q 563 1117 563 1149 q 537 1067 563 1084 q 476 1043 511 1049 q 410 1037 440 1037 z "},"ẵ":{"ha":860,"x_min":107,"x_max":797,"o":"m 668 0 q 639 9 649 0 q 628 36 628 19 l 628 102 q 575 54 613 80 q 483 9 537 28 q 363 -9 428 -9 q 232 11 290 -9 q 140 74 174 31 q 107 185 107 117 q 141 294 107 249 q 240 363 176 339 q 391 388 303 388 q 483 378 435 388 q 572 354 532 368 q 628 327 611 340 l 628 460 q 606 554 628 519 q 548 606 584 589 q 470 629 512 624 q 390 635 429 635 q 286 620 342 635 q 197 588 230 606 q 181 582 188 584 q 167 579 173 579 q 151 586 157 579 q 146 599 146 592 q 153 614 146 607 q 173 628 160 622 q 270 662 210 647 q 399 677 331 677 q 491 669 444 677 q 580 639 539 660 q 647 576 621 617 q 672 471 672 535 l 672 42 l 757 42 q 786 37 776 42 q 797 21 797 31 q 786 6 797 11 q 757 0 776 0 l 668 0 m 628 279 q 566 309 609 294 q 475 335 523 324 q 392 345 428 345 q 216 305 281 345 q 151 185 151 264 q 180 94 151 128 q 258 47 209 61 q 366 33 307 33 q 484 55 431 33 q 575 106 538 76 q 628 156 613 135 l 628 279 m 555 933 q 570 925 565 933 q 576 904 576 918 q 576 898 576 901 q 575 891 576 894 q 530 805 565 842 q 436 769 494 769 q 343 805 377 769 q 299 891 309 842 q 299 898 299 894 q 299 904 299 901 q 305 925 299 918 q 319 933 310 933 q 337 923 331 933 q 347 896 343 914 q 373 836 352 865 q 438 808 393 808 q 502 836 483 808 q 528 895 522 865 q 537 923 531 913 q 555 933 543 933 m 506 1022 q 458 1033 476 1022 q 424 1060 441 1044 q 397 1082 409 1075 q 364 1090 385 1090 q 325 1081 342 1090 q 296 1062 308 1072 q 267 1044 277 1044 q 253 1051 260 1044 q 247 1065 247 1057 q 266 1094 247 1078 q 310 1122 284 1108 q 367 1136 337 1136 q 414 1125 397 1136 q 448 1098 431 1114 q 475 1075 463 1083 q 509 1067 488 1067 q 547 1076 531 1067 q 574 1094 563 1084 q 593 1110 584 1104 q 611 1115 603 1115 q 624 1110 619 1115 q 630 1097 630 1106 q 624 1082 630 1085 q 580 1044 611 1067 q 506 1022 548 1022 z "},"ǎ":{"ha":860,"x_min":107,"x_max":797,"o":"m 668 0 q 639 9 649 0 q 628 36 628 19 l 628 102 q 575 54 613 80 q 483 9 537 28 q 363 -9 428 -9 q 232 11 290 -9 q 140 74 174 31 q 107 185 107 117 q 141 294 107 249 q 240 363 176 339 q 391 388 303 388 q 483 378 435 388 q 572 354 532 368 q 628 327 611 340 l 628 460 q 606 554 628 519 q 548 606 584 589 q 470 629 512 624 q 390 635 429 635 q 286 620 342 635 q 197 588 230 606 q 181 582 188 584 q 167 579 173 579 q 151 586 157 579 q 146 599 146 592 q 153 614 146 607 q 173 628 160 622 q 270 662 210 647 q 399 677 331 677 q 491 669 444 677 q 580 639 539 660 q 647 576 621 617 q 672 471 672 535 l 672 42 l 757 42 q 786 37 776 42 q 797 21 797 31 q 786 6 797 11 q 757 0 776 0 l 668 0 m 628 279 q 566 309 609 294 q 475 335 523 324 q 392 345 428 345 q 216 305 281 345 q 151 185 151 264 q 180 94 151 128 q 258 47 209 61 q 366 33 307 33 q 484 55 431 33 q 575 106 538 76 q 628 156 613 135 l 628 279 m 569 851 l 478 760 q 458 744 467 749 q 437 740 448 740 q 417 744 426 740 q 396 760 407 749 l 306 851 q 291 881 291 865 q 296 894 291 889 q 309 899 301 899 q 325 895 319 899 q 341 879 331 890 l 438 779 l 533 878 q 550 894 544 890 q 565 899 556 899 q 580 894 574 899 q 585 882 585 890 q 569 851 585 867 z "},"â":{"ha":860,"x_min":107,"x_max":797,"o":"m 668 0 q 639 9 649 0 q 628 36 628 19 l 628 102 q 575 54 613 80 q 483 9 537 28 q 363 -9 428 -9 q 232 11 290 -9 q 140 74 174 31 q 107 185 107 117 q 141 294 107 249 q 240 363 176 339 q 391 388 303 388 q 483 378 435 388 q 572 354 532 368 q 628 327 611 340 l 628 460 q 606 554 628 519 q 548 606 584 589 q 470 629 512 624 q 390 635 429 635 q 286 620 342 635 q 197 588 230 606 q 181 582 188 584 q 167 579 173 579 q 151 586 157 579 q 146 599 146 592 q 153 614 146 607 q 173 628 160 622 q 270 662 210 647 q 399 677 331 677 q 491 669 444 677 q 580 639 539 660 q 647 576 621 617 q 672 471 672 535 l 672 42 l 757 42 q 786 37 776 42 q 797 21 797 31 q 786 6 797 11 q 757 0 776 0 l 668 0 m 628 279 q 566 309 609 294 q 475 335 523 324 q 392 345 428 345 q 216 305 281 345 q 151 185 151 264 q 180 94 151 128 q 258 47 209 61 q 366 33 307 33 q 484 55 431 33 q 575 106 538 76 q 628 156 613 135 l 628 279 m 569 788 q 585 757 585 772 q 580 744 585 749 q 565 740 574 740 q 550 744 556 740 q 533 760 544 749 l 438 860 l 341 760 q 325 744 331 749 q 309 740 319 740 q 296 745 301 740 q 291 758 291 750 q 306 788 291 774 l 396 879 q 417 895 407 890 q 437 899 426 899 q 458 895 448 899 q 478 879 467 890 l 569 788 z "},"ấ":{"ha":860,"x_min":107,"x_max":797,"o":"m 668 0 q 639 9 649 0 q 628 36 628 19 l 628 102 q 575 54 613 80 q 483 9 537 28 q 363 -9 428 -9 q 232 11 290 -9 q 140 74 174 31 q 107 185 107 117 q 141 294 107 249 q 240 363 176 339 q 391 388 303 388 q 483 378 435 388 q 572 354 532 368 q 628 327 611 340 l 628 460 q 606 554 628 519 q 548 606 584 589 q 470 629 512 624 q 390 635 429 635 q 286 620 342 635 q 197 588 230 606 q 181 582 188 584 q 167 579 173 579 q 151 586 157 579 q 146 599 146 592 q 153 614 146 607 q 173 628 160 622 q 270 662 210 647 q 399 677 331 677 q 491 669 444 677 q 580 639 539 660 q 647 576 621 617 q 672 471 672 535 l 672 42 l 757 42 q 786 37 776 42 q 797 21 797 31 q 786 6 797 11 q 757 0 776 0 l 668 0 m 628 279 q 566 309 609 294 q 475 335 523 324 q 392 345 428 345 q 216 305 281 345 q 151 185 151 264 q 180 94 151 128 q 258 47 209 61 q 366 33 307 33 q 484 55 431 33 q 575 106 538 76 q 628 156 613 135 l 628 279 m 569 788 q 585 757 585 772 q 580 744 585 749 q 565 740 574 740 q 550 744 556 740 q 533 760 544 749 l 438 860 l 341 760 q 325 744 331 749 q 309 740 319 740 q 296 745 301 740 q 291 758 291 750 q 306 788 291 774 l 396 879 q 417 895 407 890 q 437 899 426 899 q 458 895 448 899 q 478 879 467 890 l 569 788 m 549 856 q 541 859 547 856 q 535 867 535 861 q 556 901 535 875 l 634 1003 q 652 1020 644 1015 q 675 1026 660 1026 l 686 1026 q 701 1023 694 1026 q 707 1014 707 1020 q 694 991 707 1003 l 588 881 q 567 863 577 869 q 549 856 558 856 z "},"ậ":{"ha":860,"x_min":107,"x_max":797,"o":"m 668 0 q 639 9 649 0 q 628 36 628 19 l 628 102 q 575 54 613 80 q 483 9 537 28 q 363 -9 428 -9 q 232 11 290 -9 q 140 74 174 31 q 107 185 107 117 q 141 294 107 249 q 240 363 176 339 q 391 388 303 388 q 483 378 435 388 q 572 354 532 368 q 628 327 611 340 l 628 460 q 606 554 628 519 q 548 606 584 589 q 470 629 512 624 q 390 635 429 635 q 286 620 342 635 q 197 588 230 606 q 181 582 188 584 q 167 579 173 579 q 151 586 157 579 q 146 599 146 592 q 153 614 146 607 q 173 628 160 622 q 270 662 210 647 q 399 677 331 677 q 491 669 444 677 q 580 639 539 660 q 647 576 621 617 q 672 471 672 535 l 672 42 l 757 42 q 786 37 776 42 q 797 21 797 31 q 786 6 797 11 q 757 0 776 0 l 668 0 m 628 279 q 566 309 609 294 q 475 335 523 324 q 392 345 428 345 q 216 305 281 345 q 151 185 151 264 q 180 94 151 128 q 258 47 209 61 q 366 33 307 33 q 484 55 431 33 q 575 106 538 76 q 628 156 613 135 l 628 279 m 438 -219 q 395 -202 413 -219 q 378 -160 378 -185 q 395 -118 378 -135 q 438 -101 413 -101 q 479 -118 462 -101 q 497 -160 497 -135 q 479 -202 497 -185 q 438 -219 462 -219 m 569 788 q 585 757 585 772 q 580 744 585 749 q 565 740 574 740 q 550 744 556 740 q 533 760 544 749 l 438 860 l 341 760 q 325 744 331 749 q 309 740 319 740 q 296 745 301 740 q 291 758 291 750 q 306 788 291 774 l 396 879 q 417 895 407 890 q 437 899 426 899 q 458 895 448 899 q 478 879 467 890 l 569 788 z "},"ầ":{"ha":860,"x_min":107,"x_max":797,"o":"m 668 0 q 639 9 649 0 q 628 36 628 19 l 628 102 q 575 54 613 80 q 483 9 537 28 q 363 -9 428 -9 q 232 11 290 -9 q 140 74 174 31 q 107 185 107 117 q 141 294 107 249 q 240 363 176 339 q 391 388 303 388 q 483 378 435 388 q 572 354 532 368 q 628 327 611 340 l 628 460 q 606 554 628 519 q 548 606 584 589 q 470 629 512 624 q 390 635 429 635 q 286 620 342 635 q 197 588 230 606 q 181 582 188 584 q 167 579 173 579 q 151 586 157 579 q 146 599 146 592 q 153 614 146 607 q 173 628 160 622 q 270 662 210 647 q 399 677 331 677 q 491 669 444 677 q 580 639 539 660 q 647 576 621 617 q 672 471 672 535 l 672 42 l 757 42 q 786 37 776 42 q 797 21 797 31 q 786 6 797 11 q 757 0 776 0 l 668 0 m 628 279 q 566 309 609 294 q 475 335 523 324 q 392 345 428 345 q 216 305 281 345 q 151 185 151 264 q 180 94 151 128 q 258 47 209 61 q 366 33 307 33 q 484 55 431 33 q 575 106 538 76 q 628 156 613 135 l 628 279 m 569 788 q 585 757 585 772 q 580 744 585 749 q 565 740 574 740 q 550 744 556 740 q 533 760 544 749 l 438 860 l 341 760 q 325 744 331 749 q 309 740 319 740 q 296 745 301 740 q 291 758 291 750 q 306 788 291 774 l 396 879 q 417 895 407 890 q 437 899 426 899 q 458 895 448 899 q 478 879 467 890 l 569 788 m 615 856 q 598 863 607 856 q 576 881 588 869 l 470 991 q 458 1014 458 1006 q 464 1023 458 1020 q 478 1026 471 1026 l 490 1026 q 513 1020 505 1026 q 531 1003 522 1015 l 609 901 q 629 867 629 875 q 624 859 629 861 q 615 856 619 856 z "},"ẩ":{"ha":860,"x_min":107,"x_max":797,"o":"m 668 0 q 639 9 649 0 q 628 36 628 19 l 628 102 q 575 54 613 80 q 483 9 537 28 q 363 -9 428 -9 q 232 11 290 -9 q 140 74 174 31 q 107 185 107 117 q 141 294 107 249 q 240 363 176 339 q 391 388 303 388 q 483 378 435 388 q 572 354 532 368 q 628 327 611 340 l 628 460 q 606 554 628 519 q 548 606 584 589 q 470 629 512 624 q 390 635 429 635 q 286 620 342 635 q 197 588 230 606 q 181 582 188 584 q 167 579 173 579 q 151 586 157 579 q 146 599 146 592 q 153 614 146 607 q 173 628 160 622 q 270 662 210 647 q 399 677 331 677 q 491 669 444 677 q 580 639 539 660 q 647 576 621 617 q 672 471 672 535 l 672 42 l 757 42 q 786 37 776 42 q 797 21 797 31 q 786 6 797 11 q 757 0 776 0 l 668 0 m 628 279 q 566 309 609 294 q 475 335 523 324 q 392 345 428 345 q 216 305 281 345 q 151 185 151 264 q 180 94 151 128 q 258 47 209 61 q 366 33 307 33 q 484 55 431 33 q 575 106 538 76 q 628 156 613 135 l 628 279 m 569 788 q 585 757 585 772 q 580 744 585 749 q 565 740 574 740 q 550 744 556 740 q 533 760 544 749 l 438 860 l 341 760 q 325 744 331 749 q 309 740 319 740 q 296 745 301 740 q 291 758 291 750 q 306 788 291 774 l 396 879 q 417 895 407 890 q 437 899 426 899 q 458 895 448 899 q 478 879 467 890 l 569 788 m 570 869 q 543 888 543 869 q 550 902 543 897 q 570 906 558 906 q 644 914 609 906 q 678 951 678 922 q 646 983 678 977 q 576 990 613 990 q 541 988 558 990 q 510 984 524 986 q 496 983 503 983 q 486 982 490 982 q 476 985 481 982 q 472 997 472 988 q 502 1022 472 1015 q 573 1028 533 1028 q 647 1022 613 1028 q 701 999 681 1016 q 722 949 722 982 q 697 899 722 917 q 635 876 671 882 q 570 869 600 869 z "},"ẫ":{"ha":860,"x_min":107,"x_max":797,"o":"m 668 0 q 639 9 649 0 q 628 36 628 19 l 628 102 q 575 54 613 80 q 483 9 537 28 q 363 -9 428 -9 q 232 11 290 -9 q 140 74 174 31 q 107 185 107 117 q 141 294 107 249 q 240 363 176 339 q 391 388 303 388 q 483 378 435 388 q 572 354 532 368 q 628 327 611 340 l 628 460 q 606 554 628 519 q 548 606 584 589 q 470 629 512 624 q 390 635 429 635 q 286 620 342 635 q 197 588 230 606 q 181 582 188 584 q 167 579 173 579 q 151 586 157 579 q 146 599 146 592 q 153 614 146 607 q 173 628 160 622 q 270 662 210 647 q 399 677 331 677 q 491 669 444 677 q 580 639 539 660 q 647 576 621 617 q 672 471 672 535 l 672 42 l 757 42 q 786 37 776 42 q 797 21 797 31 q 786 6 797 11 q 757 0 776 0 l 668 0 m 628 279 q 566 309 609 294 q 475 335 523 324 q 392 345 428 345 q 216 305 281 345 q 151 185 151 264 q 180 94 151 128 q 258 47 209 61 q 366 33 307 33 q 484 55 431 33 q 575 106 538 76 q 628 156 613 135 l 628 279 m 569 788 q 585 757 585 772 q 580 744 585 749 q 565 740 574 740 q 550 744 556 740 q 533 760 544 749 l 438 860 l 341 760 q 325 744 331 749 q 309 740 319 740 q 296 745 301 740 q 291 758 291 750 q 306 788 291 774 l 396 879 q 417 895 407 890 q 437 899 426 899 q 458 895 448 899 q 478 879 467 890 l 569 788 m 506 989 q 458 1000 476 989 q 424 1027 441 1011 q 397 1049 409 1042 q 364 1056 385 1056 q 325 1048 342 1056 q 296 1028 308 1039 q 267 1011 277 1011 q 253 1017 260 1011 q 247 1031 247 1024 q 266 1061 247 1044 q 310 1089 284 1075 q 367 1103 337 1103 q 414 1092 397 1103 q 448 1065 431 1081 q 475 1042 463 1050 q 509 1034 488 1034 q 547 1042 531 1034 q 574 1061 563 1051 q 593 1076 584 1071 q 611 1082 603 1082 q 624 1077 619 1082 q 630 1063 630 1072 q 624 1049 630 1052 q 580 1011 611 1033 q 506 989 548 989 z "},"ȁ":{"ha":860,"x_min":107,"x_max":797,"o":"m 668 0 q 639 9 649 0 q 628 36 628 19 l 628 102 q 575 54 613 80 q 483 9 537 28 q 363 -9 428 -9 q 232 11 290 -9 q 140 74 174 31 q 107 185 107 117 q 141 294 107 249 q 240 363 176 339 q 391 388 303 388 q 483 378 435 388 q 572 354 532 368 q 628 327 611 340 l 628 460 q 606 554 628 519 q 548 606 584 589 q 470 629 512 624 q 390 635 429 635 q 286 620 342 635 q 197 588 230 606 q 181 582 188 584 q 167 579 173 579 q 151 586 157 579 q 146 599 146 592 q 153 614 146 607 q 173 628 160 622 q 270 662 210 647 q 399 677 331 677 q 491 669 444 677 q 580 639 539 660 q 647 576 621 617 q 672 471 672 535 l 672 42 l 757 42 q 786 37 776 42 q 797 21 797 31 q 786 6 797 11 q 757 0 776 0 l 668 0 m 628 279 q 566 309 609 294 q 475 335 523 324 q 392 345 428 345 q 216 305 281 345 q 151 185 151 264 q 180 94 151 128 q 258 47 209 61 q 366 33 307 33 q 484 55 431 33 q 575 106 538 76 q 628 156 613 135 l 628 279 m 336 763 q 318 769 328 763 q 297 788 309 776 l 191 898 q 181 911 184 906 q 178 921 178 917 q 185 930 178 927 q 199 933 192 933 l 210 933 q 234 927 226 933 q 251 910 242 922 l 330 808 q 350 774 350 782 q 345 766 350 768 q 336 763 340 763 m 522 763 q 503 769 513 763 q 482 788 494 776 l 376 898 q 364 921 364 913 q 370 930 364 927 q 385 933 376 933 l 396 933 q 419 927 411 933 q 437 910 428 922 l 515 808 q 535 774 535 782 q 530 766 535 768 q 522 763 525 763 z "},"ä":{"ha":860,"x_min":107,"x_max":797,"o":"m 668 0 q 639 9 649 0 q 628 36 628 19 l 628 102 q 575 54 613 80 q 483 9 537 28 q 363 -9 428 -9 q 232 11 290 -9 q 140 74 174 31 q 107 185 107 117 q 141 294 107 249 q 240 363 176 339 q 391 388 303 388 q 483 378 435 388 q 572 354 532 368 q 628 327 611 340 l 628 460 q 606 554 628 519 q 548 606 584 589 q 470 629 512 624 q 390 635 429 635 q 286 620 342 635 q 197 588 230 606 q 181 582 188 584 q 167 579 173 579 q 151 586 157 579 q 146 599 146 592 q 153 614 146 607 q 173 628 160 622 q 270 662 210 647 q 399 677 331 677 q 491 669 444 677 q 580 639 539 660 q 647 576 621 617 q 672 471 672 535 l 672 42 l 757 42 q 786 37 776 42 q 797 21 797 31 q 786 6 797 11 q 757 0 776 0 l 668 0 m 628 279 q 566 309 609 294 q 475 335 523 324 q 392 345 428 345 q 216 305 281 345 q 151 185 151 264 q 180 94 151 128 q 258 47 209 61 q 366 33 307 33 q 484 55 431 33 q 575 106 538 76 q 628 156 613 135 l 628 279 m 310 800 q 268 817 285 800 q 251 860 251 835 q 268 902 251 885 q 310 919 285 919 q 352 902 335 919 q 369 860 369 885 q 352 817 369 835 q 310 800 335 800 m 565 800 q 523 817 540 800 q 506 860 506 835 q 523 902 506 885 q 565 919 540 919 q 607 902 590 919 q 625 860 625 885 q 607 817 625 835 q 565 800 590 800 z "},"ạ":{"ha":860,"x_min":107,"x_max":797,"o":"m 668 0 q 639 9 649 0 q 628 36 628 19 l 628 102 q 575 54 613 80 q 483 9 537 28 q 363 -9 428 -9 q 232 11 290 -9 q 140 74 174 31 q 107 185 107 117 q 141 294 107 249 q 240 363 176 339 q 391 388 303 388 q 483 378 435 388 q 572 354 532 368 q 628 327 611 340 l 628 460 q 606 554 628 519 q 548 606 584 589 q 470 629 512 624 q 390 635 429 635 q 286 620 342 635 q 197 588 230 606 q 181 582 188 584 q 167 579 173 579 q 151 586 157 579 q 146 599 146 592 q 153 614 146 607 q 173 628 160 622 q 270 662 210 647 q 399 677 331 677 q 491 669 444 677 q 580 639 539 660 q 647 576 621 617 q 672 471 672 535 l 672 42 l 757 42 q 786 37 776 42 q 797 21 797 31 q 786 6 797 11 q 757 0 776 0 l 668 0 m 628 279 q 566 309 609 294 q 475 335 523 324 q 392 345 428 345 q 216 305 281 345 q 151 185 151 264 q 180 94 151 128 q 258 47 209 61 q 366 33 307 33 q 484 55 431 33 q 575 106 538 76 q 628 156 613 135 l 628 279 m 438 -219 q 395 -202 413 -219 q 378 -160 378 -185 q 395 -118 378 -135 q 438 -101 413 -101 q 479 -118 462 -101 q 497 -160 497 -135 q 479 -202 497 -185 q 438 -219 462 -219 z "},"à":{"ha":860,"x_min":107,"x_max":797,"o":"m 668 0 q 639 9 649 0 q 628 36 628 19 l 628 102 q 575 54 613 80 q 483 9 537 28 q 363 -9 428 -9 q 232 11 290 -9 q 140 74 174 31 q 107 185 107 117 q 141 294 107 249 q 240 363 176 339 q 391 388 303 388 q 483 378 435 388 q 572 354 532 368 q 628 327 611 340 l 628 460 q 606 554 628 519 q 548 606 584 589 q 470 629 512 624 q 390 635 429 635 q 286 620 342 635 q 197 588 230 606 q 181 582 188 584 q 167 579 173 579 q 151 586 157 579 q 146 599 146 592 q 153 614 146 607 q 173 628 160 622 q 270 662 210 647 q 399 677 331 677 q 491 669 444 677 q 580 639 539 660 q 647 576 621 617 q 672 471 672 535 l 672 42 l 757 42 q 786 37 776 42 q 797 21 797 31 q 786 6 797 11 q 757 0 776 0 l 668 0 m 628 279 q 566 309 609 294 q 475 335 523 324 q 392 345 428 345 q 216 305 281 345 q 151 185 151 264 q 180 94 151 128 q 258 47 209 61 q 366 33 307 33 q 484 55 431 33 q 575 106 538 76 q 628 156 613 135 l 628 279 m 449 763 q 431 769 440 763 q 410 788 422 776 l 303 898 q 291 921 291 913 q 298 930 291 927 q 312 933 304 933 l 323 933 q 347 927 338 933 q 364 910 355 922 l 442 808 q 463 774 463 782 q 457 766 463 768 q 449 763 452 763 z "},"ả":{"ha":860,"x_min":107,"x_max":797,"o":"m 668 0 q 639 9 649 0 q 628 36 628 19 l 628 102 q 575 54 613 80 q 483 9 537 28 q 363 -9 428 -9 q 232 11 290 -9 q 140 74 174 31 q 107 185 107 117 q 141 294 107 249 q 240 363 176 339 q 391 388 303 388 q 483 378 435 388 q 572 354 532 368 q 628 327 611 340 l 628 460 q 606 554 628 519 q 548 606 584 589 q 470 629 512 624 q 390 635 429 635 q 286 620 342 635 q 197 588 230 606 q 181 582 188 584 q 167 579 173 579 q 151 586 157 579 q 146 599 146 592 q 153 614 146 607 q 173 628 160 622 q 270 662 210 647 q 399 677 331 677 q 491 669 444 677 q 580 639 539 660 q 647 576 621 617 q 672 471 672 535 l 672 42 l 757 42 q 786 37 776 42 q 797 21 797 31 q 786 6 797 11 q 757 0 776 0 l 668 0 m 628 279 q 566 309 609 294 q 475 335 523 324 q 392 345 428 345 q 216 305 281 345 q 151 185 151 264 q 180 94 151 128 q 258 47 209 61 q 366 33 307 33 q 484 55 431 33 q 575 106 538 76 q 628 156 613 135 l 628 279 m 410 765 q 383 784 383 765 q 391 798 383 793 q 410 802 398 802 q 484 810 449 802 q 519 847 519 817 q 486 879 519 873 q 417 885 453 885 q 381 884 398 885 q 350 880 364 882 q 336 878 343 879 q 326 878 330 878 q 317 881 322 878 q 312 892 312 883 q 342 917 312 910 q 413 924 373 924 q 487 918 453 924 q 542 895 521 912 q 563 845 563 878 q 537 795 563 813 q 476 772 511 778 q 410 765 440 765 z "},"ȃ":{"ha":860,"x_min":107,"x_max":797,"o":"m 668 0 q 639 9 649 0 q 628 36 628 19 l 628 102 q 575 54 613 80 q 483 9 537 28 q 363 -9 428 -9 q 232 11 290 -9 q 140 74 174 31 q 107 185 107 117 q 141 294 107 249 q 240 363 176 339 q 391 388 303 388 q 483 378 435 388 q 572 354 532 368 q 628 327 611 340 l 628 460 q 606 554 628 519 q 548 606 584 589 q 470 629 512 624 q 390 635 429 635 q 286 620 342 635 q 197 588 230 606 q 181 582 188 584 q 167 579 173 579 q 151 586 157 579 q 146 599 146 592 q 153 614 146 607 q 173 628 160 622 q 270 662 210 647 q 399 677 331 677 q 491 669 444 677 q 580 639 539 660 q 647 576 621 617 q 672 471 672 535 l 672 42 l 757 42 q 786 37 776 42 q 797 21 797 31 q 786 6 797 11 q 757 0 776 0 l 668 0 m 628 279 q 566 309 609 294 q 475 335 523 324 q 392 345 428 345 q 216 305 281 345 q 151 185 151 264 q 180 94 151 128 q 258 47 209 61 q 366 33 307 33 q 484 55 431 33 q 575 106 538 76 q 628 156 613 135 l 628 279 m 555 753 q 538 763 544 753 q 528 791 531 773 q 502 850 522 822 q 438 878 483 878 q 373 849 393 878 q 347 790 353 821 q 338 763 344 772 q 319 753 331 753 q 305 761 310 753 q 299 782 299 768 q 299 788 299 785 q 300 795 299 792 q 344 881 310 844 q 436 917 378 917 q 530 881 494 917 q 575 795 565 844 q 576 788 576 792 q 576 782 576 785 q 570 761 576 768 q 555 753 565 753 z "},"ā":{"ha":860,"x_min":107,"x_max":797,"o":"m 668 0 q 639 9 649 0 q 628 36 628 19 l 628 102 q 575 54 613 80 q 483 9 537 28 q 363 -9 428 -9 q 232 11 290 -9 q 140 74 174 31 q 107 185 107 117 q 141 294 107 249 q 240 363 176 339 q 391 388 303 388 q 483 378 435 388 q 572 354 532 368 q 628 327 611 340 l 628 460 q 606 554 628 519 q 548 606 584 589 q 470 629 512 624 q 390 635 429 635 q 286 620 342 635 q 197 588 230 606 q 181 582 188 584 q 167 579 173 579 q 151 586 157 579 q 146 599 146 592 q 153 614 146 607 q 173 628 160 622 q 270 662 210 647 q 399 677 331 677 q 491 669 444 677 q 580 639 539 660 q 647 576 621 617 q 672 471 672 535 l 672 42 l 757 42 q 786 37 776 42 q 797 21 797 31 q 786 6 797 11 q 757 0 776 0 l 668 0 m 628 279 q 566 309 609 294 q 475 335 523 324 q 392 345 428 345 q 216 305 281 345 q 151 185 151 264 q 180 94 151 128 q 258 47 209 61 q 366 33 307 33 q 484 55 431 33 q 575 106 538 76 q 628 156 613 135 l 628 279 m 213 838 q 223 854 213 849 q 253 860 233 860 l 622 860 q 652 854 642 860 q 662 838 662 849 q 652 822 662 828 q 622 816 642 816 l 253 816 q 223 822 233 816 q 213 838 213 828 z "},"ą":{"ha":860,"x_min":107,"x_max":835,"o":"m 668 0 q 639 9 649 0 q 628 36 628 19 l 628 102 q 575 54 613 80 q 483 9 537 28 q 363 -9 428 -9 q 232 11 290 -9 q 140 74 174 31 q 107 185 107 117 q 141 294 107 249 q 240 363 176 339 q 391 388 303 388 q 483 378 435 388 q 572 354 532 368 q 628 327 611 340 l 628 460 q 606 554 628 519 q 548 606 584 589 q 470 629 512 624 q 390 635 429 635 q 286 620 342 635 q 197 588 230 606 q 181 582 188 584 q 167 579 173 579 q 151 586 157 579 q 146 599 146 592 q 153 614 146 607 q 173 628 160 622 q 270 662 210 647 q 399 677 331 677 q 491 669 444 677 q 580 639 539 660 q 647 576 621 617 q 672 471 672 535 l 672 42 l 757 42 q 786 37 776 42 q 797 21 797 31 q 786 6 797 11 q 757 0 776 0 l 668 0 m 628 279 q 566 309 609 294 q 475 335 523 324 q 392 345 428 345 q 216 305 281 345 q 151 185 151 264 q 180 94 151 128 q 258 47 209 61 q 366 33 307 33 q 484 55 431 33 q 575 106 538 76 q 628 156 613 135 l 628 279 m 757 -305 q 689 -292 720 -305 q 638 -253 657 -279 q 618 -186 618 -226 q 631 -124 618 -157 q 662 -64 643 -92 q 700 -18 681 -35 q 733 0 719 0 l 757 0 q 719 -42 740 -11 q 683 -112 699 -73 q 667 -187 667 -151 q 693 -245 667 -228 q 752 -262 719 -262 q 772 -261 762 -262 q 790 -259 781 -260 q 800 -257 795 -258 q 808 -257 804 -257 q 827 -262 820 -257 q 835 -276 835 -268 q 808 -299 835 -294 q 757 -305 781 -305 z "},"å":{"ha":860,"x_min":107,"x_max":797,"o":"m 668 0 q 639 9 649 0 q 628 36 628 19 l 628 102 q 575 54 613 80 q 483 9 537 28 q 363 -9 428 -9 q 232 11 290 -9 q 140 74 174 31 q 107 185 107 117 q 141 294 107 249 q 240 363 176 339 q 391 388 303 388 q 483 378 435 388 q 572 354 532 368 q 628 327 611 340 l 628 460 q 606 554 628 519 q 548 606 584 589 q 470 629 512 624 q 390 635 429 635 q 286 620 342 635 q 197 588 230 606 q 181 582 188 584 q 167 579 173 579 q 151 586 157 579 q 146 599 146 592 q 153 614 146 607 q 173 628 160 622 q 270 662 210 647 q 399 677 331 677 q 491 669 444 677 q 580 639 539 660 q 647 576 621 617 q 672 471 672 535 l 672 42 l 757 42 q 786 37 776 42 q 797 21 797 31 q 786 6 797 11 q 757 0 776 0 l 668 0 m 628 279 q 566 309 609 294 q 475 335 523 324 q 392 345 428 345 q 216 305 281 345 q 151 185 151 264 q 180 94 151 128 q 258 47 209 61 q 366 33 307 33 q 484 55 431 33 q 575 106 538 76 q 628 156 613 135 l 628 279 m 439 753 q 369 781 399 753 q 340 851 340 809 q 353 899 340 877 q 389 934 367 921 q 439 947 412 947 q 486 934 465 947 q 522 899 508 921 q 535 851 535 877 q 507 781 535 809 q 439 753 478 753 m 439 790 q 481 806 463 790 q 499 852 499 823 q 481 893 499 876 q 439 909 463 909 q 395 893 413 909 q 376 852 376 876 q 395 806 376 823 q 439 790 413 790 z "},"ǻ":{"ha":860,"x_min":107,"x_max":797,"o":"m 668 0 q 639 9 649 0 q 628 36 628 19 l 628 102 q 575 54 613 80 q 483 9 537 28 q 363 -9 428 -9 q 232 11 290 -9 q 140 74 174 31 q 107 185 107 117 q 141 294 107 249 q 240 363 176 339 q 391 388 303 388 q 483 378 435 388 q 572 354 532 368 q 628 327 611 340 l 628 460 q 606 554 628 519 q 548 606 584 589 q 470 629 512 624 q 390 635 429 635 q 286 620 342 635 q 197 588 230 606 q 181 582 188 584 q 167 579 173 579 q 151 586 157 579 q 146 599 146 592 q 153 614 146 607 q 173 628 160 622 q 270 662 210 647 q 399 677 331 677 q 491 669 444 677 q 580 639 539 660 q 647 576 621 617 q 672 471 672 535 l 672 42 l 757 42 q 786 37 776 42 q 797 21 797 31 q 786 6 797 11 q 757 0 776 0 l 668 0 m 628 279 q 566 309 609 294 q 475 335 523 324 q 392 345 428 345 q 216 305 281 345 q 151 185 151 264 q 180 94 151 128 q 258 47 209 61 q 366 33 307 33 q 484 55 431 33 q 575 106 538 76 q 628 156 613 135 l 628 279 m 439 753 q 369 781 399 753 q 340 851 340 809 q 353 899 340 877 q 389 934 367 921 q 439 947 412 947 q 486 934 465 947 q 522 899 508 921 q 535 851 535 877 q 507 781 535 809 q 439 753 478 753 m 439 790 q 481 806 463 790 q 499 852 499 823 q 481 893 499 876 q 439 909 463 909 q 395 893 413 909 q 376 852 376 876 q 395 806 376 823 q 439 790 413 790 m 365 1049 q 357 1052 363 1049 q 351 1060 351 1054 q 372 1094 351 1068 l 450 1196 q 468 1214 460 1208 q 491 1219 476 1219 l 502 1219 q 517 1216 510 1219 q 523 1207 523 1213 q 510 1184 523 1197 l 404 1074 q 383 1056 393 1063 q 365 1049 374 1049 z "}}}
